<svg xmlns="http://www.w3.org/2000/svg" width="16" height="16" viewBox="0 0 16 16">
    <defs>
        <filter id="kln45w3nsa">
            <feColorMatrix in="SourceGraphic" values="0 0 0 0 0.905882 0 0 0 0 0.482353 0 0 0 0 0.266667 0 0 0 1.000000 0"/>
        </filter>
    </defs>
    <g fill="none" fill-rule="evenodd">
        <g>
            <g filter="url(#kln45w3nsa)" transform="translate(-130 -54) translate(130 54)">
                <g>
                    <path fill="#000" fill-rule="nonzero" d="M6.667 0C5.348 0 4.059.391 2.963 1.124c-1.096.732-1.95 1.773-2.456 2.991-.504 1.219-.636 2.56-.379 3.852.257 1.293.892 2.481 1.825 3.414.932.932 2.12 1.567 3.413 1.824 1.293.257 2.634.125 3.852-.38 1.218-.504 2.26-1.358 2.992-2.455.732-1.096 1.123-2.385 1.123-3.703 0-.876-.172-1.743-.507-2.552-.335-.808-.826-1.543-1.445-2.162-.62-.62-1.354-1.11-2.163-1.446C8.409.172 7.542 0 6.667 0zm0 10.1c-.152 0-.3-.045-.426-.13-.126-.083-.225-.203-.283-.343-.058-.14-.073-.295-.043-.443.03-.149.102-.286.21-.393.107-.107.243-.18.392-.21.149-.03.303-.014.443.044.14.058.26.156.344.282.084.126.13.275.13.426 0 .204-.081.399-.225.542-.144.144-.339.225-.542.225zm.505-2.433h-1.01l-.308-4.334H7.48l-.307 4.334z" transform="translate(1.333 1.333)"/>
                </g>
            </g>
        </g>
    </g>
</svg>
