<svg xmlns="http://www.w3.org/2000/svg" width="24" height="24" viewBox="0 0 24 24">
    <g fill="none" fill-rule="evenodd">
        <g fill="#47C0BB">
            <g>
                <path d="M12 2c-1.978 0-3.911.586-5.556 1.685-1.644 1.1-2.926 2.66-3.683 4.488-.757 1.827-.955 3.838-.569 5.778.386 1.94 1.338 3.721 2.737 5.12 1.398 1.399 3.18 2.351 5.12 2.737 1.94.386 3.95.188 5.778-.57 1.827-.756 3.389-2.038 4.488-3.682C21.413 15.91 22 13.978 22 12c0-1.313-.259-2.614-.761-3.827-.503-1.213-1.24-2.315-2.168-3.244-.929-.929-2.03-1.665-3.244-2.168C14.614 2.26 13.313 2 12 2zm5 11h-6.829l2.536 2.535-1.414 1.414L6.343 12l4.95-4.95 1.414 1.415L10.171 11H17v2z" transform="translate(-130 -710) translate(130 710)"/>
            </g>
        </g>
    </g>
</svg>
