<svg xmlns="http://www.w3.org/2000/svg" width="85" height="30" viewBox="0 0 85 30">
    <g fill="none" fill-rule="evenodd">
        <g>
            <g>
                <path fill="#EAF1FC" d="M52.625 1.187c-10.911-.66-22.02-.155-32.715 2.21-5.73 1.266-12.885 2.452-17.147 6.88-5.696 5.92-1.877 14.69 5.03 17.595 8.416 3.54 18.672 1.018 27.347-.09 9.183-1.174 21.594-2.54 32.36-.18 4.092.896 1-2.762.25-3.69-1.097-1.356.453-3.09 1.185-3.427 3.074-1.418 3.95-3.469 4.51-7.286 1.498-10.207-13.9-11.593-20.82-12.012" transform="translate(0 -7) translate(0 7)"/>
                <path fill="#FFDA01" d="M82.284 0c-3.695-.009-11.452 1.405-15.108 2.167-.546.114-.974.552-1.062 1.103-.268 1.682-.403 3.385-.404 5.088 0 2.041-.087 3.282 2.32 3.013 4.115-.46 8.234-.92 12.304-1.686 1.215-.228 2.515-.534 3.328-1.466.447-.512.535-4.136.549-6.286.006-1.07-.858-1.93-1.927-1.933" transform="translate(0 -7) translate(0 7)"/>
                <path fill="#1B2942" d="M82.412 2.146c-.015.01-.028.02-.045.03-.27.155-6.636 3.802-8.087 4.33-1.533.557-6.208-1.985-7.13-2.5-.195-.11-.265-.355-.156-.55.108-.197.356-.266.551-.157 2.158 1.207 5.588 2.763 6.459 2.447 1.386-.505 7.895-4.235 7.96-4.272.195-.112.442-.045.552.15.102.177.055.4-.104.522" transform="translate(0 -7) translate(0 7)"/>
                <path fill="#180F64" d="M21.593 12.666c-.053-.365-.206-.663-.485-.852-1.004-.68-2.718 1.241-3.31 1.937-.972 1.148-2.271 4.826.328 4.57 1.403-.139 3.735-3.788 3.467-5.655M37.177 10.507c-.053-.366-.206-.664-.485-.853-1.005-.68-2.718 1.242-3.31 1.938-.972 1.148-2.272 4.825.327 4.57 1.403-.14 3.736-3.788 3.468-5.655M51.904 10.024c-.052-.366-.205-.664-.485-.852-1.004-.68-2.718 1.241-3.308 1.937-.974 1.148-2.273 4.825.326 4.57 1.403-.14 3.735-3.788 3.467-5.655" transform="translate(0 -7) translate(0 7)"/>
            </g>
        </g>
    </g>
</svg>
