<svg xmlns="http://www.w3.org/2000/svg" xmlns:xlink="http://www.w3.org/1999/xlink" width="256" height="200" viewBox="0 0 256 200">
    <defs>
        <path id="yvbgz983fb" d="M0.5 0.503L1.34 0.503 1.34 1.373 0.5 1.373z"/>
        <path id="p8vjoyz08d" d="M0 0.433L0.84 0.433 0.84 1.303 0 1.303z"/>
        <path id="ly10i5axff" d="M0.037 0.207L99.122 0.207 99.122 172.2 0.037 172.2z"/>
        <path id="uqnq15sh6h" d="M0 0.693L129.958 0.693 129.958 126.229 0 126.229z"/>
        <filter id="g24zlwr8xa">
            <feColorMatrix in="SourceGraphic" values="0 0 0 0 0.200000 0 0 0 0 0.164706 0 0 0 0 0.733333 0 0 0 1.000000 0"/>
        </filter>
    </defs>
    <g fill="none" fill-rule="evenodd">
        <g>
            <g filter="url(#g24zlwr8xa)">
                <g>
                    <path fill="#6BBDBA" d="M232.313 110.077c-.073-1.346-.252-2.682-.546-3.998-1.3-5.85-3.665-11.163-7.352-15.917-7.972-10.277-21.366-17.71-34.633-16.726-7.36.546-14.945 4.427-18.463 11.161-4.748 9.088 3.83 14.62 11.119 18.659 15.905 8.813 5.12 26.993 7.687 34.328 2.476 7.075 12.186 7.758 18.317 6.011 13.467-3.838 24.654-19.198 23.871-33.518" transform="translate(0 5)"/>
                    <path fill="#006EB7" d="M161.263 120.516c-1.234-.593-2.655-.787-3.986-.431-3.754 1.004-5.87 5.525-5.872 9.134 0 1.92.701 3.764 2.591 4.546 3.754 1.553 7.818-.846 9.68-4.153.962-1.709 1.302-3.81.691-5.673-.497-1.517-1.675-2.737-3.104-3.423" transform="translate(0 5)"/>
                    <path fill="#6BBDBA" d="M76.644 137.33c-.862-1.54-2.003-2.997-3.294-4.315-4.884-4.99-10.706-9.777-12.166-16.925-.882-4.318.059-8.887 1.416-13.006 1.452-4.407 3.36-8.616 5.268-12.843 1.745-3.864 2.323-7.908-.55-11.458-6.334-7.826-17.932-4.133-24.83.7-15.057 10.555-19.912 31.9-13.586 48.485 2.303 6.035 6.017 11.54 10.74 16.008 7.724 7.31 27.98 15.733 36.37 5.322 3.173-3.936 2.742-8.2.632-11.968" transform="translate(0 5)"/>
                    <path fill="#2F30B4" d="M65.574 145.664c-2.582-1.705-5.73-2.423-8.733-2.972-1.556-.284-3.122-.511-4.686-.749-1.445-.22-2.938-.384-4.34-.812-2.477-.756-4.473-2.401-5.833-4.589-2.917-4.697-3.165-10.525-4.672-15.724-.662-2.285-1.592-4.714-3.484-6.268-2.216-1.821-5.456-2.008-7.942-.644-14.461 7.934-4.106 26.874 4.358 34.885 7.724 7.31 27.98 15.733 36.371 5.322.133-.165.26-.33.38-.496 1.847-2.548 1.242-6.172-1.375-7.923l-.044-.03M111.995 49.3c1.151-1.437 1.852-3.213 1.837-5.438-.02-3.152-1.348-6.087-1.751-9.186-.313-2.408.449-5.492-2.357-6.702-1.017-.438-2.164-.511-3.275-.452-6.459.345-11.38 4.756-16.587 7.938-2.427 1.482-5.266 2.645-7.446 4.455-3.781 3.14-4.8 8.673-1.475 12.512 2.392 2.76 6.295 4.076 9.946 4.066 4.105-.01 8.185-.807 12.07-2.058 3.297-1.062 6.84-2.392 9.038-5.135" transform="translate(0 5)"/>
                    <path fill="#7286E9" d="M189.41 47.81c-1.136-.357-2.162.046-2.826.821-.873 1.02-1.1 2.786-.674 4.095 1.008 3.097 4.353 2.116 5.221-.485.546-1.636.107-3.856-1.72-4.431" transform="translate(0 5)"/>
                    <path fill="#006EB7" d="M241.32 126.616c-.84-1.176-2.441-1.85-3.74-1.038-1.21.756-1.54 2.36-1.958 3.641-1.146 3.512-3.45 5.413-6.033 7.756-1.44 1.305-3.446 4.547-.543 5.49 2.794.91 5.913.083 8.157-1.793 2.648-2.213 4.617-5.875 5.044-9.365.195-1.587.018-3.369-.926-4.691" transform="translate(0 5)"/>
                    <path fill="#D98050" d="M84.11 107.54c-1.157-.152-2.015.683-2.133 1.727-.18.818-.082 1.744.546 2.35 1.061 1.025 3.062.54 3.607-.822.495-1.238-.74-3.087-2.02-3.255" transform="translate(0 5)"/>
                    <path fill="#5D5EA3" d="M64.04 33.423c-.963-1.136-2.373-1.596-3.62-.808-1.755 1.11-2.033 4.112-1.094 6.026 1.279 2.608 3.286 2.055 4.967.32 1.527-1.575 1.006-4.051-.254-5.538" transform="translate(0 5)"/>
                    <path fill="#6BBDBA" d="M51.976 178.208c.18-2.22-2.887-4.1-4.919-5.48-2.784-1.89-5.27-3.787-7.7-5.945-.949-.843-1.914-1.676-2.953-2.452-1.69-1.264-3.815-1.818-5.39-.527-2.156 1.764-1.01 4.922.198 7.158 1.96 3.627 5.667 6.69 10.197 8.403 2.296.869 5.136 1.628 7.527 1.31 1.343-.178 2.54-.845 2.914-1.887.07-.194.11-.388.126-.58M219.205 159.676c-.961-.667-2.102-1.052-3.298-.988-2.867.155-5.016 2.858-7.52 3.983-3.73 1.675-10.168 1.376-10.042 6.962.103 4.56 5.412 7.05 9.367 7.09 4.519.046 9.818-.983 12.41-5.06 1.6-2.518 2.499-5.927 1.487-8.832-.438-1.253-1.302-2.39-2.404-3.155" transform="translate(0 5)"/>
                    <path fill="#D98050" d="M86.723 115.94c.898-.747 1.797-2.754-.027-2.631-.572.04-.836.648-.918 1.142-.322 1.916.311 2.017.945 1.49" transform="translate(0 5)"/>
                    <path fill="#F8DA4A" d="M6.094 116.849c-.17-.357-.659-.28-.847 0-.786 1.16-.651 2.719.253 3.756.086.133.178.265.283.393.229.276.755.13.82-.217.26-1.365.089-2.678-.51-3.932" transform="translate(0 5)"/>
                    <path fill="#5D5EA3" d="M203.115 60.847c-1.518-2.672-4.565.522-2.288 1.134.469.125 2.9-.054 2.288-1.134M124.356 4.678c-.675-1.502-3.55.735-2.571 2.227.95 1.446 2.908-.828 2.66-1.953-.023-.102-.053-.194-.089-.274" transform="translate(0 5)"/>
                    <path fill="#D98050" d="M157.582 73.73c-.604-.13-1.02.47-1.24.946-.094.205-.16.42-.181.632-.02.124-.016.25.014.37.038.203.132.397.3.568.077.077.16.11.245.127.013.004.027.004.04.007.027.002.052.012.078.01.099.003.2-.019.267-.069.458-.342.892-.808 1.045-1.377.128-.474-.024-1.095-.568-1.214" transform="translate(0 5)"/>
                    <path fill="#5D5EA3" d="M87.411 64.062c-.806.174-1.461.828-1.637 1.633-.02.091-.011.172.01.246-.048.356.337.708.725.499.716-.385 1.23-1.015 1.505-1.775.137-.375-.267-.676-.603-.603" transform="translate(0 5)"/>
                    <path fill="#D98050" d="M38.634 54.915c-.56-.106-1.057.265-1.349.752l-.034.024c-.193.133-.283.367-.205.586-.017.081-.028.163-.031.242-.01.248.232.512.49.49.72-.061 1.838-.52 1.843-1.393.003-.411-.334-.702-.714-.701" transform="translate(0 5)"/>
                    <path fill="#FADAC3" d="M54.382 36.17c-.162-.304-.537-.287-.77-.099-.722.58-1.004 1.54-.781 2.428.04.156.13.255.242.306.01.017.016.035.025.052.162.301.537.29.77.1.823-.675 1.007-1.865.514-2.787" transform="translate(0 5)"/>
                    <path fill="#5D5EA3" d="M185.16 143.734c-.228-.297-.804-.344-.896.118-.01.045-.011.091-.02.137-.036.051-.064.115-.08.192-.14.721.047 1.414.552 1.95.261.277.715.126.82-.217.227-.74.1-1.562-.375-2.18M166.547 117.58c.015-.193-.006-.395-.096-.569-.2-.386-.644-.55-1.047-.389-.368.146-.645.514-.652.916-.01.478.27.86.559 1.213.144.178.421.171.608.055.032.008.065.021.098.021.284 0 .47-.225.49-.49.012-.138.007-.286-.008-.433.013-.11.04-.223.048-.324" transform="translate(0 5)"/>
                    <path fill="#F8DA4A" d="M46.029 190.21c-.228-.729-.647-1.36-1.248-1.832-.482-.38-1.373-.903-2.017-.718-.876.25-.286 1.364.01 1.836.172.274.382.505.621.678.608.555 1.439.79 2.291.638.255-.045.416-.368.343-.603M110.519 137.054c-.614-1.125-2.237.274-2.744.838-.267.296-.086.683.19.807.073.065.162.117.28.128.078.008.156.006.233.005l.035.008c.853.067 2.636-.63 2.006-1.786" transform="translate(0 5)"/>
                    <path fill="#D98050" d="M241.47 93.628c-.255-.174-.653-.002-.72.293-.14.617-.124 1.237.033 1.818.012.635.246 1.3.75 1.711.499.407 1.127.25 1.453-.29.848-1.406-.422-2.79-1.515-3.532" transform="translate(0 5)"/>
                    <path fill="#5D5EA3" d="M253.645 131.267c-.449-.28-.884.044-1.067.459-.144.33-.191.685-.168 1.039-.07.401.045.774.311 1.1.162.2.527.18.694 0 .344-.373.57-.816.634-1.322.057-.44.016-1.013-.404-1.276" transform="translate(0 5)"/>
                    <path fill="#006EB7" d="M206.6 166.307c-.488-.392-1.093-.218-1.613.008-.616.268-2.232 1.147-1.778 1.994-.002.012-.007.024-.008.037-.002.052.003.098.01.143-.084.28.063.653.446.677 1.177.075 2.427-.465 3.078-1.477.294-.46.318-1.02-.134-1.382" transform="translate(0 5)"/>
                    <path fill="#F8DA4A" d="M109.662 120.73c-.348-.448-.922-1.027-1.55-.785-.753.291-.441 1.186-.173 1.712.332.654.868 1.184 1.5 1.548.177.102.353.084.488-.004.265.026.532-.123.501-.461-.07-.738-.309-1.42-.766-2.01" transform="translate(0 5)"/>
                    <path fill="#5D5EA3" d="M76.773 83.277c-.182-.478-.697-.67-1.145-.415-.484.275-.722.91-.886 1.41-.157.481-.34 1.17-.088 1.648.146.28.407.41.68.413.194.11.428.117.6-.057.725-.724 1.225-1.982.839-3" transform="translate(0 5)"/>
                    <path fill="#FADAC3" d="M91.852 25.891c-.711-.567-1.48.195-1.979.679-.375.364-.762.854-.93 1.388-.156.217-.279.447-.343.69-.177.679.357 1.453 1.109 1.247.81-.222 1.571-1.196 2.022-1.86.42-.618.851-1.56.12-2.144" transform="translate(0 5)"/>
                    <path fill="#D98050" d="M162.891 91.068c-.058-.636-.327-1.193-.751-1.665-.247-.273-.734-.13-.82.217-.014.052-.021.105-.033.158-.101.057-.181.15-.21.283-.197.046-.367.193-.374.453-.015.693.101 1.441.45 2.053.265.464.85.809 1.316.38.218-.203.306-.505.33-.817.106-.351.121-.754.092-1.062" transform="translate(0 5)"/>
                    <path fill="#F8DA4A" d="M170.852 14.119c-.357-.84-1.211-1.311-2.051-1.55-.357-.1-.77-.173-1.06.122-.08.08-.135.173-.17.271-.518.43-.678 1.189-.363 1.838.31.634.995 1.084 1.703 1.13.345.298.872.385 1.313.208.797-.321.931-1.305.628-2.02" transform="translate(0 5)"/>
                    <path fill="#5D5EA3" d="M187.973 39.68c-.058-.213-.192-.406-.374-.524-.178-.193-.521-.229-.707-.022-.22.121-.39.34-.507.56-.212.402-.289.859-.243 1.302-.007.247.016.498.072.75.044.2.177.3.327.333.15.21.434.316.658.193.12-.003.242-.03.352-.093.366-.209.423-.634.47-1.015.06-.476.08-1.015-.048-1.484" transform="translate(0 5)"/>
                    <path fill="#FADAC3" d="M239.196 78.394c-.694-1.556-2.338-2.445-4.055-2.199-.343.05-.409.47-.292.723 1.027 2.241 6.563 6.44 4.347 1.476" transform="translate(0 5)"/>
                    <path fill="#E5EAFF" d="M22.212 146.072c-1.474-2.092-3.451-.779-2.096 1.374.395.629 2.717 2.933 2.913.908.07-.733-.407-1.698-.817-2.282" transform="translate(0 5)"/>
                    <path fill="#5D5EA3" d="M19.212 87.846c-.54.247-.902.703-1.066 1.232-.163.296-.293.61-.386.945-.093.338.243.736.603.603.98-.36 1.656-1.297 1.587-2.357-.025-.392-.392-.582-.738-.423" transform="translate(0 5)"/>
                    <path fill="#D98050" d="M80.25 120.59c-.3-.24-.681-.15-.82.216-.402 1.066-.152 2.212.578 3.068.09.105.192.146.294.153.071.064.146.126.223.185.317.244.721-.094.738-.423.003-.052 0-.104.002-.156.064-.084.11-.186.123-.297.119-1.047-.313-2.09-1.137-2.746" transform="translate(0 5)"/>
                    <path fill="#5D5EA3" d="M73.008 14.069c-.14.028-.275.063-.411.1-.132-.085-.3-.11-.477-.003-.23.14-.454.286-.676.436-.692.337-1.323.791-1.87 1.355-.203.21-.159.468-.014.644.058.12.162.218.301.25 1.62.37 3.275-.583 3.75-2.178.114-.38-.25-.676-.603-.604" transform="translate(0 5)"/>
                    <path fill="#D98050" d="M47.144 52.08c-.446-.671-1.64-.92-2.39-.829-.331.04-.614.263-.742.53-.392.264-.5.76-.242 1.185.025.054.056.102.094.139l.034.028.03.04c.167.17.375.29.602.375.472.217 1.01.28 1.518.101.025-.009.048-.024.072-.035.07-.017.14-.033.204-.054.642-.209 1.3-.763.82-1.48M158.261 85.564c-.027-.189-.073-.362-.14-.51l-.035-.103c-.081-.226-.352-.43-.599-.354-.105-.004-.217.006-.348.046-.627.196-.94 1.028-1.034 1.61-.083.52.08 1.078.504 1.382.034.057.07.112.114.163.427.51 1.008.388 1.29-.182.043-.087.085-.205.124-.344.025-.046.05-.093.07-.143.191-.48.168-1.043.054-1.565M161.704 82.54c-.067-.235-.154-.467-.273-.689-.144-.268-.563-.332-.771-.1-.07.08-.128.164-.188.249-.144.099-.25.25-.276.438-.09.054-.17.133-.214.255-.336.939-.112 1.915.526 2.664.219.256.606.141.77-.1.388-.567.565-1.22.552-1.874.019-.288-.02-.573-.126-.842" transform="translate(0 5)"/>
                    <path fill="#F8DA4A" d="M51.78 186.623c-.52-.66-1.28-1.252-2.145-1.077-.087.001-.175.007-.264.02-.192.027-.38.28-.36.472.045.417.139.828.282 1.22.057.59.383 1.122.872 1.432.563.575 1.632.94 2.136.082.417-.71-.078-1.587-.521-2.149M181.175 13.859c-.397-.56-1.055-1.319-1.844-1.076-.73.223-.783.956-.523 1.727-.041.09-.056.198-.01.325.3.84.85 1.677 1.656 2.114.642.348 1.522.221 1.652-.605.128-.817-.481-1.852-.93-2.485" transform="translate(0 5)"/>
                    <path fill="#D98050" d="M244.864 91.588c-.128-.591-.368-1.379-.857-1.85-.356-.34-.97-.476-1.41-.164-.376.065-.653.322-.597.719.1.716.688 1.426 1.275 1.943.17.148.376.148.542.075.656.277 1.166-.173 1.047-.723M246.617 115.771c-.638-.484-1.224.24-1.46.768-.32.717-.382 1.467-.252 2.236.049.29.422.43.672.316.12.028.245.02.345-.052.514-.369.894-.872 1.038-1.496.121-.525.139-1.407-.343-1.772" transform="translate(0 5)"/>
                    <path fill="#5D5EA3" d="M169.327 115.831c.257-.79.048-1.71-.563-2.304-.25-.242-.579-.148-.77.1-.362.47-.518 1.066-.45 1.654-.013.07-.014.144.007.225.034.14.085.265.145.384.119.297.311.56.59.69.02.014.035.03.055.044.139.1.296.086.433.02.335-.084.517-.444.553-.813" transform="translate(0 5)"/>
                    <path fill="#F8DA4A" d="M181.157 147.331c-.2-.148-.566-.046-.67.176-.865 1.837-.203 4.073 1.587 5.077.264.149.65.023.72-.293.077-.342.111-.68.112-1.011.183-1.53-.478-3.012-1.749-3.949" transform="translate(0 5)"/>
                    <path fill="#5D5EA3" d="M143.486 136.6c-.173-.51-.482-.975-.94-1.182-.439-.198-.887.056-1 .509-.106.418.082.903.278 1.267.194.36.507.739.871.938.43.236.992.066 1.086-.448.065-.357-.112-.762-.295-1.084" transform="translate(0 5)"/>
                    <path fill="#FFF" d="M195.577 84.565c-.961 2.855-3.834 3.591-6.54 3.415-3.949-.257-8.651-1.61-11.432-4.569-2.642-2.809-3.364-6.773-4.37-10.355-.947-3.375-2.332-5.904-4.357-8.725-1.261-1.757-2.108-3.607-1.533-5.793.414-1.57 1.375-2.854 2.666-3.694.071-.008.145-.035.22-.09.143-.108.296-.203.453-.292.422-.207.866-.38 1.339-.493.064-.016.113-.044.159-.074 3.563-.805 8.7 1.168 10.298 4.035 1.028 1.847 1.384 4.122 2.223 6.073.667 1.551 1.451 3.05 2.355 4.477 2.19 3.46 5.565 6.1 7.558 9.66 1.064 1.9 1.683 4.283.961 6.425m-1.49-8.93c-2.714-3.51-5.805-6.472-7.795-10.517-1.883-3.828-2.087-8.595-6.272-10.691-2.824-1.416-6.855-2.57-9.761-.865-1.98.966-3.425 2.79-3.925 5.016-.77 3.429 1.458 5.7 3.253 8.334 4.112 6.04 2.876 14.866 9.705 19.12 4.317 2.689 14.628 5.63 17.111-.894 1.277-3.356-.262-6.846-2.315-9.502M62.168 125.832c-3.496-1.834-5.31-5.387-6.43-9.61-1.056-5.579-.525-11.772 2.714-16.428 2.1-3.02 6.117-5.441 9.889-4.212 4.447 1.449 2.038 6.937 1.49 10.143-.466 2.726-.66 5.506-.33 8.26.383 3.218 2.001 5.89 2.732 8.984 1.511 6.4-6.852 4.549-10.065 2.863m9.227-7.93c-1.414-4.117-1.28-8.533-.464-12.759.488-2.525 1.784-5.608.596-8.122-2.605-5.513-10.726-1.815-13.395 1.565-2.88 3.646-3.946 8.402-3.862 12.975.027 1.533.182 3.064.453 4.574.689 3.847 2.358 7.45 5.696 9.72 1.886 1.283 4.077 2.102 6.328 2.452 2.17.337 5.138.654 6.287-1.706 1.369-2.81-.75-6.11-1.639-8.699M207.372 148.259c-.043 1.257-.533 2.567-1.042 3.696-1.113 2.47-2.903 4.639-5.166 6.142-.39.26-.794.504-1.208.722-1.372.725-2.115 1.066-3.352.138-1.24-.933-1.14-1.963-.308-3.318.345-.56.824-1.054 1.252-1.553 2.02-2.352 4.606-4.272 6.211-6.924 1.075-1.774 3.994-.824 3.613 1.097m.87-1.35c-.416-1.563-1.75-2.432-3.354-2.15-2.031.354-2.843 2.22-3.919 3.73-1.24 1.74-2.61 3.387-4.096 4.92-1.278 1.32-2.67 3.18-2.117 5.13 1.187 4.186 6.46.923 8.402-.735 2.694-2.301 6.094-7.088 5.083-10.895M77.082 47.849c-3.92 3.11-5.84 7.855-8.44 11.98-1.507 2.387-3.305 4.718-5.743 6.217-1.164.715-2.856 1.563-4.238.99-2.236-.926-1.863-4.723-1.852-6.638.02-3.447.54-6.867 1.286-10.227.862-3.878 2.054-7.691 3.668-11.324.94-2.111 2.022-4.161 3.266-6.11 2.641-4.141 6.29-7.702 11.062-9.196 4.6-1.44 9.606-1.176 14.062-3.148 2.31-1.022 4.357-2.715 6.799-3.437 3.58-1.057 6.874.472 7.259 4.433.468 4.83-1.953 11-4.513 14.992-5.1 7.955-15.778 6.044-22.616 11.468m23.23-32.195c-2.422-.35-4.686.658-6.754 1.784-3.327 1.813-6.274 3.094-10.046 3.697-5.4.863-10.338 1.654-14.566 5.395-4.413 3.904-7.128 9.393-9.145 14.833-1.353 3.644-2.394 7.402-3.132 11.219-.373 1.927-.667 3.869-.888 5.82-.251 2.225-.654 4.52.096 6.699.375 1.091 1.088 2.228 2.1 2.836 1.137.683 2.553.288 3.706-.173 4.543-1.816 7.229-6.32 9.525-10.372 1.5-2.648 2.982-5.386 5.14-7.57 2.354-2.385 5.337-3.627 8.498-4.562 4.484-1.326 9.457-2.088 13.092-5.278 4.45-3.901 12.95-22.8 2.373-24.328M35.227 171.146c-.683.206-1.384.316-2.102.33-5.769.112-8.494-4.761-10.14-9.51-.673-1.943-.684-3.98 1.183-5.24 1.398-.944 3-.47 4.175.606 2.436 2.23 2.408 6.063 4.594 8.51.695.777 3.445 2.078 3.64 2.831.753 1.713.385 2.265-1.35 2.473m.521-4.29c-2.085-1.434-3.085-2.914-4.001-5.248-.49-1.242-.908-2.54-1.65-3.664-1.147-1.74-3.16-3.208-5.343-2.641-1.834.476-2.982 2.27-3.25 4.067-.274 1.83.367 3.546 1.271 5.118 1.333 3.945 4.288 7.212 8.708 7.86 1.821.268 4.955.173 6.183-1.509 1.304-1.784-.527-3.027-1.918-3.983M233.47 84.673c-.921 4.963-6.147-.385-7.57-1.958-3.05-3.369-6.406-4.872-10.62-6.374-1.204-.43-2.769-.916-3.48-2.094-1.113-1.84.088-4.07 1.603-5.191 2.313-1.714 5.47-1.506 8.082-.656 6.052 1.968 13.27 9.354 11.985 16.273zm.05-6.352c-2.316-6.096-8.99-11.45-15.617-11.544-2.764-.04-5.735 1.072-6.988 3.708-.965 2.031-.546 4.23 1.325 5.549 1.278.9 2.887 1.269 4.34 1.782 2.233.79 4.463 1.696 6.303 3.232 2.418 2.018 4.119 5.283 7.255 6.348 5.488 1.864 4.529-5.966 3.43-8.944l-.049-.13z" transform="translate(0 5)"/>
                    <path fill="#F8DA4A" d="M190.121 21.11c-.524 0-.525.814 0 .814s.526-.814 0-.814M191.53 24.3c-.56 0-.561.87 0 .87.56 0 .56-.87 0-.87M195.01 27.78c-.56 0-.561.87 0 .87.56 0 .56-.87 0-.87M186.455 24.505v.271c0 .524.814.525.814 0v-.271c0-.524-.814-.525-.814 0" transform="translate(0 5)"/>
                    <g transform="translate(0 5) translate(130 .017)">
                        <mask id="l0apbb9hpc" fill="#fff">
                            <use xlink:href="#yvbgz983fb"/>
                        </mask>
                        <path fill="#5D5EA3" d="M.92.503c-.56 0-.561.87 0 .87.56 0 .56-.87 0-.87" mask="url(#l0apbb9hpc)"/>
                    </g>
                    <path fill="#E5EAFF" d="M109.19 6.154l-.29.29c-.396.396.219 1.012.616.615l.29-.29c.396-.396-.218-1.012-.616-.615M112.688 7.767c-.56 0-.56.87 0 .87s.56-.87 0-.87M110.078 10.957c-.56 0-.56.87 0 .87s.561-.87 0-.87M78.14 12.99c-.56 0-.56.87 0 .87s.56-.87 0-.87" transform="translate(0 5)"/>
                    <path fill="#D98050" d="M25.65 64.32c-.56 0-.56.87 0 .87s.56-.87 0-.87" transform="translate(0 5)"/>
                    <g transform="translate(0 5) translate(0 102.457)">
                        <mask id="bphcs8dd4e" fill="#fff">
                            <use xlink:href="#p8vjoyz08d"/>
                        </mask>
                        <path fill="#F8DA4A" d="M.42.433c-.56 0-.56.87 0 .87s.561-.87 0-.87" mask="url(#bphcs8dd4e)"/>
                    </g>
                    <path fill="#F8DA4A" d="M2.74 109.56c-.56 0-.56.87 0 .87s.561-.87 0-.87" transform="translate(0 5)"/>
                    <path fill="#FADAC3" d="M74.37 96.51c-.56 0-.56.87 0 .87s.56-.87 0-.87M74.95 100.57c-.56 0-.56.87 0 .87s.56-.87 0-.87M79.01 95.93c-.56 0-.56.87 0 .87s.561-.87 0-.87" transform="translate(0 5)"/>
                    <path fill="#E5EAFF" d="M165.14 141.17c-.56 0-.56.87 0 .87s.56-.87 0-.87M168.62 144.65c-.56 0-.56.87 0 .87s.56-.87 0-.87M168.185 136.675v.29c0 .56.87.56.87 0v-.29c0-.56-.87-.561-.87 0" transform="translate(0 5)"/>
                    <path fill="#5D5EA3" d="M179.785 127.975v.29c0 .56.87.56.87 0v-.29c0-.56-.87-.56-.87 0M180.22 107.24c-.56 0-.56.87 0 .87s.56-.87 0-.87" transform="translate(0 5)"/>
                    <path fill="#D98050" d="M248.95 104.05c-.56 0-.56.87 0 .87s.56-.87 0-.87M255.347 103.307l-.29-.29c-.396-.396-1.012.219-.615.616l.29.29c.396.396 1.012-.219.615-.616" transform="translate(0 5)"/>
                    <path fill="#E5EAFF" d="M188.322 180.447l-.29.29c-.396.396.219 1.012.616.615l.29-.29c.396-.396-.219-1.012-.616-.615M192.11 188.44c-.56 0-.56.87 0 .87s.56-.87 0-.87M198.78 185.83h-.29c-.56 0-.561.87 0 .87h.29c.56 0 .56-.87 0-.87" transform="translate(0 5)"/>
                    <path fill="#D98050" d="M96.09 131.6c-.56 0-.561.87 0 .87.559 0 .56-.87 0-.87M84.49 125.8c-.56 0-.562.87 0 .87.559 0 .56-.87 0-.87M86.519 131.02c-.56 0-.56.87 0 .87s.561-.87 0-.87M88.114 125.075v.29c0 .56.87.56.87 0v-.29c0-.56-.87-.561-.87 0" transform="translate(0 5)"/>
                </g>
            </g>
            <g>
                <path fill="#F8DA4A" d="M53.387 13.203C53.387 5.91 59.298 0 66.59 0c7.291 0 13.203 5.91 13.203 13.203 0 7.292-5.912 13.203-13.203 13.203-7.292 0-13.203-5.911-13.203-13.203" transform="translate(63)"/>
                <path fill="#DDA528" d="M39.087 28.614c0-7.29 5.91-13.202 13.202-13.202 7.29 0 13.202 5.911 13.202 13.202 0 7.292-5.911 13.203-13.202 13.203-7.292 0-13.202-5.91-13.202-13.203" transform="translate(63)"/>
                <g fill="#DDA528">
                    <path d="M1.964 6.662h10.202c.995 0 1.802.806 1.802 1.802s-.807 1.802-1.802 1.803H1.964c-.995 0-1.803-.807-1.803-1.803 0-.996.808-1.802 1.803-1.802M1.964.28h10.202c.995 0 1.802.807 1.802 1.802 0 .996-.807 1.803-1.802 1.803H1.964c-.995 0-1.803-.807-1.803-1.802C.161 1.086.97.28 1.964.28" transform="translate(63) translate(59.5 7.93)"/>
                </g>
                <g fill="#F8DA4A">
                    <path d="M2.388 6.673H12.59c.995 0 1.802.807 1.802 1.803 0 .995-.807 1.802-1.802 1.802H2.388c-.996 0-1.803-.807-1.803-1.802 0-.996.807-1.803 1.803-1.803M2.388.292H12.59c.995 0 1.802.807 1.802 1.802 0 .996-.807 1.803-1.802 1.803H2.388c-.996 0-1.803-.807-1.803-1.803 0-.995.807-1.802 1.803-1.802" transform="translate(63) translate(44.8 23.33)"/>
                </g>
                <g transform="translate(63) translate(7.7 26.13)">
                    <mask id="q6t8ts9jng" fill="#fff">
                        <use xlink:href="#ly10i5axff"/>
                    </mask>
                    <path fill="#F09D7A" d="M89.043 127.013C79.193 109.337 74.304 86.7 74.304 86.7l-25.04 15.688c-8.963-9.344-6.526-4.958-15.051-15.794-8.526-10.836-10.754-17.632-14.866-33.877-4.11-16.244-4.915-29.594-9.63-42.554C5-2.797.963-.473.283 2.633c-.68 3.108.312 45.74-.143 61.814-.437 15.451 2.508 27.104 5.82 41.326 2.456 10.548 15.035 24.214 15.037 24.217 0 0 .091.4.458.787 10.9 18.724 22.62 37.902 26.396 39.67 4.324 2.023 16.64 3.911 32.672-4.18 16.912-8.536 18.345-22.349 18.592-24.371.245-2.023-6.044-7.655-10.072-14.883" mask="url(#q6t8ts9jng)"/>
                </g>
                <path stroke="#913933" stroke-linecap="round" stroke-width="2.1" d="M9.345 32.368c1.064.976 1.405 2.552 1.228 3.984-.179 1.433-.804 2.766-1.42 4.072" transform="translate(63)"/>
                <g transform="translate(63) translate(0 21.23)">
                    <mask id="98bds57jii" fill="#fff">
                        <use xlink:href="#uqnq15sh6h"/>
                    </mask>
                    <path fill="#006EB7" d="M53.797 16.2S60.366 3.218 66.949 1.526c6.584-1.693 52.408-.774 57.567 2.47 8.443 5.312 5.07 10.5 2.99 14.627-2.08 4.128-56.53 98.061-56.53 98.061s-3.713 9.054-9.08 9.226c-9.155.294-58.214.32-58.214.32s-7.884-4.087-.578-17.655c7.305-13.57 47.959-87.817 50.693-92.375" mask="url(#98bds57jii)"/>
                </g>
                <path fill="#2F30B4" d="M64.74 37.213C45.936 70.657 26.65 103.741 10.49 138.47c-.562 2.998-1.1 6.014-1.536 9.052 13.964.162 45.53-.142 52.942-.381 5.367-.172 9.08-9.227 9.08-9.227s54.45-93.932 56.53-98.06c1.138-2.26 2.618-4.773 2.365-7.491-18.583-2.26-32.308-.938-50.84-2.206-6.182-.423-11.253 1.657-14.29 7.057" transform="translate(63)"/>
                <path fill="#131D77" d="M123.197 39.27c.558-1.669.748-2.874-.981-3.197-2.15-.401-9.488-.909-10.743-.31-1.6.764-2.118 2.426-3.873 6.824-.604 1.513-.088 3.11 1.502 3.465 1.754.393 7.452.332 9.657.27 1.244-.036 2.871-2.365 4.438-7.052" transform="translate(63)"/>
                <path fill="#6BBDBA" d="M113.89 41.511c-.633 1.341-1.761 2.14-2.52 1.782-.759-.359-.86-1.736-.228-3.078.633-1.34 1.76-2.137 2.519-1.78.758.357.86 1.735.229 3.076" transform="translate(63)"/>
                <path fill="#F8DA4A" d="M119.948 41.967c-.632 1.341-1.76 2.139-2.518 1.78-.76-.357-.861-1.734-.23-3.076.634-1.341 1.761-2.138 2.52-1.781.758.358.86 1.736.228 3.077" transform="translate(63)"/>
                <path fill="#2F30B4" d="M51.099 46.98S39.014 66.762 39.087 68.975c.072 2.21 2.3 2.59 3.23 1.416 1.946-2.459 13.283-21.197 11.851-22.672-1.433-1.476-2.488-1.697-3.07-.74" transform="translate(63)"/>
                <path fill="#F09D7A" d="M76.867 125.29l7.68-13.479s5.59 7.192 9.296 12.571c3.513 5.098 9.673 12.98 8.693 13.707-2.013 1.493-8.681-1.512-12.016-3.304-3.003-1.611-13.653-9.495-13.653-9.495" transform="translate(63)"/>
                <path fill="#913933" d="M91.2 134.102c-3.981-2.515-7.646-5.474-11.515-8.15-.692-.479-2.326-1.922-3.307-1.36-.54.31-.562.982-.248 1.461.566.864 1.961.058 1.392-.813-.146-.223.082.129.005.143-1.888.335-.377.86-.028 1.064 2 1.169 3.805 2.684 5.672 4.048 2.36 1.725 4.744 3.437 7.216 4.998.88.556 1.688-.838.813-1.391" transform="translate(63)"/>
                <path fill="#F09D7A" d="M105.528 95.37s6.087 8.716.365 13.082c-2.175 1.66-10.998 4.86-19.495 7.536-8.664 2.73-16.219 5.56-17.583 4.362-1.365-1.2 1.54-7.84 12.45-13.678 10.91-5.84 24.263-11.302 24.263-11.302" transform="translate(63)"/>
                <path fill="#F09D7A" d="M102.335 83.71S85.149 91.367 78.43 97.152c-6.72 5.784-10.613 11.92-9.43 13.562 1.183 1.642 10.662-2.314 19.484-5.693 9.042-3.462 17.139-6.125 18.94-6.874 5.665-2.36 7.817-5.924 7.191-10.516-.452-3.317-9.082-10.342-9.082-10.342l-3.198 6.421zM116.769 53.566s-16.41 3.508-25.014 7.505c-9.176 4.263-13.069 9.806-11.76 11.444 1.31 1.638 15.655.109 32.031-3.36 16.375-3.467 17.442-7.576 16.519-10.83-1.83-6.453-11.776-4.76-11.776-4.76" transform="translate(63)"/>
                <path fill="#913933" d="M77.73 109.795c9.407-3.448 18.77-6.988 28.128-10.571.958-.367.542-1.926-.43-1.553-9.356 3.582-18.72 7.122-28.127 10.57-.966.354-.549 1.912.428 1.554" transform="translate(63)"/>
                <path fill="#F8DA4A" d="M85.574 22.996c0-7.291 5.911-13.202 13.202-13.202 7.292 0 13.204 5.91 13.204 13.202s-5.912 13.203-13.204 13.203c-7.29 0-13.202-5.911-13.202-13.203" transform="translate(63)"/>
                <g fill="#DDA528">
                    <path d="M1.951 6.655h10.201c.996 0 1.803.807 1.803 1.802 0 .996-.807 1.803-1.803 1.803H1.951c-.996 0-1.802-.807-1.802-1.803 0-.995.806-1.802 1.802-1.802M1.951.273h10.201c.996 0 1.803.808 1.803 1.803 0 .995-.807 1.802-1.803 1.802H1.951c-.996 0-1.802-.807-1.802-1.802S.955.273 1.95.273" transform="translate(63) translate(91.7 17.73)"/>
                </g>
            </g>
        </g>
    </g>
</svg>
