<svg xmlns="http://www.w3.org/2000/svg" width="24" height="24" viewBox="0 0 24 24">
    <g fill="none" fill-rule="evenodd" opacity=".3">
        <g fill="#FFF">
            <g>
                <path d="M12 5.518c-2.035.001-4.028.58-5.747 1.668-1.72 1.088-3.095 2.642-3.967 4.48.871 1.84 2.246 3.394 3.966 4.483 1.72 1.088 3.713 1.666 5.748 1.666s4.028-.578 5.748-1.666c1.72-1.089 3.095-2.643 3.965-4.482-.871-1.84-2.246-3.393-3.966-4.481-1.72-1.089-3.712-1.667-5.747-1.668zm0 9.072c-.578 0-1.144-.171-1.624-.492-.481-.322-.856-.778-1.077-1.313-.222-.534-.28-1.122-.167-1.689.113-.567.392-1.088.8-1.497.41-.409.93-.687 1.498-.8.567-.113 1.155-.055 1.689.166.534.222.99.596 1.312 1.077.321.481.493 1.046.493 1.625 0 .775-.308 1.519-.857 2.067-.548.548-1.292.856-2.067.856z" transform="translate(-541 -325) translate(541 325)"/>
            </g>
        </g>
    </g>
</svg>
