<svg xmlns="http://www.w3.org/2000/svg" width="16" height="16" viewBox="0 0 16 16">
    <g fill="none" fill-rule="evenodd">
        <g fill="#1B1B1B">
            <g>
                <g>
                    <path d="M12.667 16h-2.205l-.042-6.075h2.426V7.513H10.42V6.28c0-.416.257-.728.485-.728h1.942V3.15h-1.942c-1.604 0-2.909 1.413-2.909 3.152v1.211H6.054v2.412h1.942L8 16H3.333C1.493 16 0 14.508 0 12.667V3.333C0 1.493 1.492 0 3.333 0h9.334C14.507 0 16 1.492 16 3.333v9.334C16 14.507 14.508 16 12.667 16z" transform="translate(-618 -628) translate(577 628) translate(41)"/>
                </g>
            </g>
        </g>
    </g>
</svg>
