<svg xmlns="http://www.w3.org/2000/svg" width="24" height="24" viewBox="0 0 24 24">
    <g fill="none" fill-rule="evenodd">
        <g fill="#FFF">
            <g>
                <g>
                    <path d="M18.875 10.603h-6.727c0 .7 0 2.099-.004 2.798h3.898c-.15.7-.68 1.68-1.428 2.172 0 0 0 .005-.002.004-.995.657-2.308.806-3.283.61-1.528-.304-2.738-1.412-3.229-2.82.003-.002.005-.021.007-.023-.307-.873-.307-2.042 0-2.741.396-1.286 1.642-2.46 3.172-2.78 1.23-.261 2.62.021 3.64.977.136-.133 1.88-1.836 2.011-1.974-3.49-3.16-9.076-2.049-11.167 2.032l-.004.008c-1.034 2.004-.992 4.366.007 6.274l-.007.006c.905 1.756 2.551 3.103 4.536 3.616 2.107.552 4.79.174 6.587-1.45l.002.001c1.522-1.37 2.47-3.707 1.991-6.71" transform="translate(-285 -722) translate(275 711) translate(10 11)"/>
                </g>
            </g>
        </g>
    </g>
</svg>
