<svg xmlns="http://www.w3.org/2000/svg" width="24" height="24" viewBox="0 0 24 24">
    <g fill="none" fill-rule="evenodd">
        <g fill="#180F64">
            <g>
                <g>
                    <path d="M12 5C7.455 5 3.573 7.903 2 12c1.573 4.097 5.455 7 10 7s8.427-2.903 10-7c-1.573-4.097-5.455-7-10-7zm0 11.667c-2.51 0-4.545-2.091-4.545-4.667 0-2.576 2.036-4.667 4.545-4.667 2.51 0 4.545 2.091 4.545 4.667 0 2.576-2.036 4.667-4.545 4.667zM12 9.2c-1.51 0-2.727 1.25-2.727 2.8 0 1.55 1.218 2.8 2.727 2.8 1.51 0 2.727-1.25 2.727-2.8 0-1.55-1.218-2.8-2.727-2.8z" transform="translate(-1245 -562) translate(130 351) translate(1115 211)"/>
                </g>
            </g>
        </g>
    </g>
</svg>
