<svg xmlns="http://www.w3.org/2000/svg" width="24" height="24" viewBox="0 0 24 24">
    <g fill="none" fill-rule="evenodd">
        <g fill="#180F64">
            <g>
                <g>
                    <path d="M12 7.37c2.51 0 4.545 2.078 4.545 4.638 0 .473-.09.928-.218 1.355l2.782 2.839c1.264-1.142 2.264-2.57 2.891-4.203-1.573-4.063-5.455-6.948-10-6.948-1.155 0-2.264.185-3.31.528l1.974 2.013c.427-.13.872-.222 1.336-.222zM3.555 4.27c-.355.362-.355.947 0 1.308l1.79 1.828C3.873 8.604 2.7 10.181 2 12.008c1.573 4.073 5.455 6.958 10 6.958 1.382 0 2.7-.278 3.918-.76l2.473 2.523c.354.361.927.361 1.282 0 .354-.362.354-.947 0-1.308L4.845 4.27c-.354-.361-.936-.361-1.29 0zM12 16.647c-2.51 0-4.545-2.078-4.545-4.639 0-.714.163-1.391.445-1.985l1.427 1.457c-.027.167-.054.343-.054.528 0 1.54 1.218 2.783 2.727 2.783.182 0 .345-.027.518-.065l1.427 1.457c-.59.297-1.245.464-1.945.464zm2.7-4.945c-.136-1.299-1.136-2.31-2.4-2.449l2.4 2.45z" transform="translate(-659 -562) translate(130 351) translate(529 211)"/>
                </g>
            </g>
        </g>
    </g>
</svg>
