<svg xmlns="http://www.w3.org/2000/svg" width="24" height="24" viewBox="0 0 24 24">
    <defs>
        <filter id="8kz9x3phza">
            <feColorMatrix in="SourceGraphic" values="0 0 0 0 1.000000 0 0 0 0 1.000000 0 0 0 0 1.000000 0 0 0 1.000000 0"/>
        </filter>
        <filter id="eebsbf83ob" width="266.7%" height="266.7%" x="-83.3%" y="-83.3%" filterUnits="objectBoundingBox">
            <feOffset in="SourceAlpha" result="shadowOffsetOuter1"/>
            <feGaussianBlur in="shadowOffsetOuter1" result="shadowBlurOuter1" stdDeviation="5"/>
            <feColorMatrix in="shadowBlurOuter1" result="shadowMatrixOuter1" values="0 0 0 0 0 0 0 0 0 0 0 0 0 0 0 0 0 0 0.2 0"/>
            <feMerge>
                <feMergeNode in="shadowMatrixOuter1"/>
                <feMergeNode in="SourceGraphic"/>
            </feMerge>
        </filter>
    </defs>
    <g fill="none" fill-rule="evenodd" opacity=".3">
        <g>
            <g filter="url(#8kz9x3phza)" transform="translate(-131 -578) translate(130 530)">
                <g filter="url(#eebsbf83ob)" transform="translate(1 48)">
                    <path fill="#EAF1FC" d="M12 2c-1.978 0-3.911.586-5.556 1.685-1.644 1.1-2.926 2.66-3.683 4.488-.757 1.827-.955 3.838-.569 5.778.386 1.94 1.338 3.721 2.737 5.12 1.398 1.399 3.18 2.351 5.12 2.737 1.94.386 3.95.188 5.778-.57 1.827-.756 3.389-2.038 4.488-3.682C21.414 15.91 22 13.978 22 12c0-1.313-.259-2.614-.761-3.827-.503-1.213-1.24-2.315-2.168-3.244-.928-.929-2.03-1.665-3.244-2.168C14.614 2.26 13.313 2 12 2zm.49 4.85c.228 0 .45.067.639.194.189.126.336.306.424.516.087.21.11.441.065.664-.044.223-.154.428-.315.59-.16.16-.366.27-.589.314-.223.044-.454.021-.664-.066-.21-.087-.39-.234-.516-.423-.126-.19-.194-.412-.194-.639 0-.305.121-.598.337-.813.216-.216.508-.337.813-.337zm.043 10.246c-.295.062-.6.048-.889-.04-.288-.088-.549-.247-.759-.462-.21-.216-.362-.481-.443-.772-.08-.29-.085-.595-.016-.888l.657-2.754-1.492.346-.383-1.76 1.508-.328c.295-.064.602-.053.891.034.29.087.552.245.764.461.211.216.364.482.445.773.081.29.087.598.017.892l-.656 2.752 1.503-.335.37 1.761-1.517.32z"/>
                </g>
            </g>
        </g>
    </g>
</svg>
