<svg xmlns="http://www.w3.org/2000/svg" width="16" height="16" viewBox="0 0 16 16">
    <g fill="none" fill-rule="evenodd">
        <g fill="#1B1B1B">
            <g>
                <path d="M3.333 16h9.334C14.507 16 16 14.508 16 12.667V3.333C16 1.493 14.508 0 12.667 0H3.333C1.493 0 0 1.492 0 3.333v9.334C0 14.507 1.492 16 3.333 16zm8-13.333c0-.737.597-1.334 1.333-1.334.737 0 1.334.597 1.334 1.334C14 3.403 13.403 4 12.666 4c-.736 0-1.333-.597-1.333-1.333zM2.667 8.334c0-2.753 2.247-5 5-5 2.751 0 5 2.247 5 5 0 2.751-2.249 5-5 5-2.753 0-5-2.249-5-5zm2.666 0c0 1.294 1.038 2.333 2.334 2.333C8.962 10.667 10 9.628 10 8.333 10 7.038 8.962 6 7.667 6 6.37 6 5.333 7.038 5.333 8.333z" transform="translate(-577 -628) translate(577 628)"/>
            </g>
        </g>
    </g>
</svg>
