<svg xmlns="http://www.w3.org/2000/svg" width="24" height="24" viewBox="0 0 24 24">
    <g fill="none" fill-rule="evenodd">
        <g fill="#EAF1FC" fill-rule="nonzero">
            <g>
                <g>
                    <g>
                        <path d="M20.4 20.4h-3.6v-6.36c0-.996-.804-1.8-1.8-1.8s-1.8.804-1.8 1.8v6.36H9.6V9.6h3.6v1.44c.6-1.008 1.908-1.68 3-1.68 2.316 0 4.2 1.884 4.2 4.2v6.84zM5.4 7.572c-1.2 0-2.172-.972-2.172-2.172 0-1.2.972-2.172 2.172-2.172 1.2 0 2.172.972 2.172 2.172 0 1.2-.972 2.172-2.172 2.172zM7.2 20.4H3.6V9.6h3.6v10.8zM21.6 0H2.4C1.068 0 0 1.068 0 2.4v19.2C0 22.92 1.08 24 2.4 24h19.2c1.32 0 2.4-1.08 2.4-2.4V2.4C24 1.068 22.92 0 21.6 0z" transform="translate(-1150 -736) translate(127 501) translate(976 235) translate(47)"/>
                    </g>
                </g>
            </g>
        </g>
    </g>
</svg>
