<svg xmlns="http://www.w3.org/2000/svg" xmlns:xlink="http://www.w3.org/1999/xlink" width="112" height="41" viewBox="0 0 112 41">
    <defs>
        <path id="odu7yserja" d="M0.057 0.147L1.643 0.147 1.643 1.294 0.057 1.294z"/>
        <path id="3kxeocfi8c" d="M0 40.973L111.059 40.973 111.059 0.16 0 0.16z"/>
    </defs>
    <g fill="none" fill-rule="evenodd">
        <g>
            <g>
                <g transform="translate(-1157 -567) translate(1073 567) translate(84)">
                    <path fill="#DB0E16" d="M34.63 34.756h-.73c-.14 0-.202-.19-.093-.284l.21-.182c.179-.154.402-.238.631-.238h.731c.14 0 .203.188.093.284l-.21.181c-.178.155-.401.239-.631.239M35.587 33.73l-.73.05c-.138.009-.214-.175-.113-.277l.198-.195c.167-.168.384-.267.613-.282l.729-.051c.14-.01.215.175.112.276l-.196.196c-.168.167-.384.266-.613.282M36.469 32.639l-.725.102c-.138.02-.226-.16-.13-.269l.181-.208c.156-.178.365-.293.592-.324l.725-.103c.138-.02.226.16.131.268l-.182.21c-.157.178-.365.292-.592.324M37.272 31.49l-.716.15c-.137.03-.236-.142-.149-.257l.167-.221c.143-.188.343-.317.568-.365l.715-.151c.137-.03.237.142.15.258l-.168.22c-.143.188-.343.317-.567.367M37.992 30.287l-.702.201c-.135.038-.246-.126-.168-.248l.152-.231c.129-.198.32-.34.54-.404l.704-.2c.135-.04.247.125.168.246l-.152.233c-.13.197-.32.34-.542.403M38.628 29.036l-.686.25c-.132.049-.255-.108-.185-.234l.135-.242c.116-.207.296-.362.512-.44l.686-.25c.133-.048.255.109.186.234l-.136.243c-.114.206-.296.362-.512.44M39.175 27.744l-.668.299c-.128.057-.261-.09-.2-.222l.118-.25c.1-.215.27-.382.48-.476l.667-.297c.128-.057.262.092.2.221l-.118.252c-.1.213-.27.38-.48.473M39.63 26.42l-.646.342c-.123.066-.267-.072-.214-.206l.1-.259c.086-.22.242-.4.445-.508l.645-.342c.123-.066.268.071.215.206l-.099.258c-.086.222-.242.401-.445.508M39.992 25.065l-.62.387c-.119.074-.27-.054-.23-.191l.083-.265c.07-.226.214-.416.41-.537l.618-.387c.12-.075.272.053.23.19l-.082.265c-.07.227-.215.416-.409.538M40.258 23.687l-.592.43c-.113.082-.274-.034-.241-.173l.063-.27c.053-.231.184-.43.37-.565l.592-.43c.113-.083.273.035.242.175l-.064.27c-.053.23-.185.429-.37.563M40.428 22.297l-.56.47c-.108.09-.277-.016-.254-.159l.044-.273c.038-.234.154-.441.33-.59l.56-.469c.108-.09.277.016.253.157l-.043.275c-.037.233-.154.44-.33.589M40.5 20.896l-.526.508c-.102.097-.277.004-.264-.14l.024-.276c.022-.236.123-.452.289-.61l.525-.508c.101-.098.278-.004.264.14l-.025.276c-.02.235-.121.45-.287.61M40.474 19.494l-.49.542c-.094.105-.275.024-.272-.12l.005-.277c.005-.236.091-.458.245-.63l.488-.543c.094-.103.277-.023.273.122l-.005.277c-.004.236-.091.458-.244.629M40.35 18.098l-.45.574c-.086.112-.274.045-.281-.1l-.015-.278c-.01-.235.06-.463.202-.644l.45-.575c.087-.111.273-.044.28.1l.015.278c.011.236-.06.463-.201.645M40.13 16.713l-.41.605c-.078.117-.27.062-.287-.08l-.033-.276c-.029-.236.026-.468.154-.658l.41-.604c.078-.117.27-.063.287.08l.033.276c.029.235-.027.466-.154.657M39.812 15.347l-.365.632c-.07.122-.266.08-.293-.061l-.052-.273c-.045-.23-.006-.466.11-.666l.364-.632c.07-.122.266-.08.292.062l.053.272c.044.231.005.467-.11.666M39.4 14.006l-.32.658c-.06.124-.26.098-.295-.042l-.071-.267c-.061-.229-.04-.466.06-.673l.322-.657c.06-.125.26-.097.295.04l.072.269c.06.228.038.466-.062.672M38.897 12.698l-.274.678c-.053.13-.251.116-.297-.021l-.09-.262c-.078-.224-.073-.462.014-.675l.273-.677c.054-.13.253-.117.298.02l.09.262c.077.224.072.462-.014.675M38.303 11.427l-.228.695c-.042.133-.241.134-.298.001l-.107-.256c-.092-.217-.103-.456-.032-.673l.226-.696c.043-.133.242-.134.298 0l.109.255c.092.219.102.456.032.674M37.621 10.203l-.177.708c-.033.137-.233.151-.298.022l-.126-.248c-.107-.21-.133-.446-.079-.67l.177-.709c.034-.135.233-.15.299-.02l.125.246c.107.211.134.448.079.67M36.856 9.027l-.127.72c-.024.138-.222.166-.296.043l-.142-.239c-.121-.203-.166-.437-.125-.663l.126-.72c.025-.138.221-.165.296-.043l.142.239c.12.203.166.437.126.663M36.01 7.909l-.076.726c-.014.14-.21.181-.292.063l-.158-.227c-.135-.195-.197-.425-.172-.653l.076-.726c.015-.14.21-.182.291-.064l.16.228c.135.194.196.423.171.653M35.089 6.85l-.025.73c-.005.14-.197.196-.287.084l-.173-.216c-.15-.184-.226-.41-.218-.639l.026-.73c.004-.14.196-.195.287-.083l.173.216c.149.184.226.41.217.639M34.097 5.86l.024.731c.006.14-.181.208-.28.103l-.188-.203c-.161-.174-.253-.394-.262-.623l-.026-.73c-.003-.14.183-.209.282-.104l.188.204c.16.173.253.394.262.622M33.037 4.942l.076.726c.014.14-.166.222-.272.123l-.203-.19c-.172-.161-.279-.375-.304-.603l-.076-.726c-.015-.14.168-.22.272-.123l.203.19c.173.162.28.375.304.603M31.916 4.1l.127.719c.024.138-.152.232-.265.14l-.214-.174c-.183-.15-.305-.354-.345-.58l-.126-.72c-.025-.138.15-.232.262-.141l.216.175c.183.15.305.354.345.58M30.738 3.337l.177.709c.035.136-.133.243-.253.159l-.226-.16c-.193-.136-.33-.332-.384-.554l-.178-.71c-.033-.136.135-.241.254-.159l.226.16c.193.137.33.333.384.555M29.51 2.658l.227.695c.043.133-.118.251-.241.176l-.238-.144c-.202-.122-.35-.307-.422-.526l-.226-.695c-.043-.133.118-.25.241-.176l.237.144c.203.122.352.308.423.526M28.24 2.068l.274.677c.053.13-.1.258-.23.193l-.245-.127c-.211-.108-.372-.283-.459-.496l-.273-.677c-.053-.13.099-.259.227-.193l.248.127c.21.107.37.282.457.496M26.929 1.566l.32.657c.062.126-.08.264-.213.208l-.256-.11c-.217-.093-.391-.255-.491-.463l-.32-.656c-.062-.125.08-.264.213-.208l.255.11c.219.093.392.256.492.462M25.587 1.158l.366.632c.07.122-.062.27-.199.223l-.262-.091c-.224-.078-.409-.229-.523-.427l-.365-.632c-.071-.122.063-.27.198-.223l.262.091c.224.077.408.228.523.427M24.22.843l.41.605c.078.119-.045.275-.184.237l-.267-.072c-.23-.062-.423-.2-.552-.39l-.408-.606c-.078-.115.043-.273.182-.236l.268.073c.228.062.424.2.551.39M22.834.626l.45.575c.087.11-.024.276-.166.248l-.271-.054c-.233-.045-.436-.169-.578-.35l-.45-.576c-.086-.11.025-.275.167-.248l.271.055c.233.045.436.168.577.35"/>
                    <g transform="translate(20.32 .013)">
                        <mask id="n0mx7fophb" fill="#fff">
                            <use xlink:href="#odu7yserja"/>
                        </mask>
                        <path fill="#DB0E16" d="M1.118.492l.489.543c.093.104-.006.277-.15.258l-.273-.033C.947 1.23.736 1.121.582.95L.092.407C0 .302.099.13.243.148l.275.035c.235.028.446.138.601.309" mask="url(#n0mx7fophb)"/>
                    </g>
                    <path fill="#DB0E16" d="M20.035.482l.527.508c.1.097.013.276-.131.268l-.277-.016c-.236-.012-.455-.106-.62-.266L19.008.47c-.101-.097-.014-.277.13-.27l.276.016c.238.013.456.107.621.267M18.635.556l.56.471c.107.089.032.274-.112.276l-.277.004c-.237.005-.462-.074-.637-.222l-.56-.47c-.108-.09-.034-.275.11-.276l.278-.004c.237-.004.461.075.638.221M17.243.73l.591.428c.113.082.052.272-.091.285l-.277.023c-.235.02-.466-.043-.651-.177l-.591-.43c-.114-.082-.053-.272.091-.285l.277-.023c.235-.02.465.043.651.179M15.866.998l.62.386c.118.075.071.268-.072.29l-.274.043c-.233.037-.467-.009-.662-.132l-.62-.386c-.12-.075-.07-.268.071-.291l.274-.042c.234-.037.468.01.663.132M14.512 1.363l.646.342c.122.067.09.263-.052.295l-.27.061c-.231.053-.468.023-.67-.086l-.646-.342c-.124-.065-.09-.262.051-.293l.27-.064c.231-.052.467-.022.67.087M13.185 1.82l.668.296c.128.059.109.256-.03.299l-.266.08c-.226.069-.465.055-.674-.038l-.668-.297c-.128-.058-.107-.255.03-.298l.266-.08c.227-.068.465-.055.674.039M11.895 2.369l.687.25c.132.048.126.247-.01.298l-.26.099c-.219.085-.459.088-.674.009l-.687-.25c-.13-.048-.125-.247.01-.298l.26-.099c.22-.084.459-.087.674-.01M10.646 3.007l.702.202c.135.038.143.238.012.298l-.252.116c-.215.1-.452.12-.672.057l-.704-.202c-.134-.04-.142-.238-.01-.299l.251-.116c.215-.1.452-.12.673-.056M9.444 3.73l.715.153c.137.029.16.226.032.296l-.242.134c-.208.114-.443.15-.668.103l-.715-.152c-.136-.03-.159-.227-.033-.297l.245-.134c.207-.114.442-.15.666-.103M8.296 4.536l.724.102c.138.02.174.215.053.293l-.234.15c-.198.13-.43.182-.657.15l-.725-.101c-.139-.02-.173-.216-.053-.294l.233-.152c.2-.128.432-.18.66-.148M7.207 5.42l.73.05c.139.01.188.204.072.29l-.223.166c-.188.142-.416.21-.645.195l-.73-.051c-.14-.01-.189-.203-.072-.29l.221-.167c.189-.141.418-.21.647-.193M6.182 6.376h.731c.14 0 .203.19.093.285l-.21.18c-.178.155-.4.24-.631.24h-.73c-.141 0-.204-.19-.094-.284l.21-.181c.179-.155.401-.24.631-.24M5.227 7.403l.73-.05c.138-.01.214.174.112.276l-.198.195c-.167.167-.384.267-.612.283l-.73.05c-.14.01-.215-.174-.112-.276l.196-.195c.168-.168.384-.266.614-.283M4.346 8.493l.724-.101c.138-.02.226.16.13.268l-.182.209c-.155.178-.364.292-.592.324l-.723.102c-.139.02-.227-.159-.133-.269l.183-.208c.156-.178.365-.294.593-.325M3.542 9.643l.714-.152c.138-.029.238.143.15.258l-.167.221c-.143.188-.343.317-.568.365l-.715.151c-.137.03-.236-.142-.15-.257l.169-.22c.142-.19.343-.32.567-.366M2.82 10.846l.703-.203c.134-.038.247.128.168.247l-.152.233c-.13.199-.32.34-.541.405l-.703.2c-.134.04-.246-.126-.168-.246l.152-.233c.13-.197.32-.34.541-.403M2.186 12.095l.686-.249c.132-.048.255.109.185.234l-.136.243c-.115.207-.295.363-.512.44l-.686.25c-.132.048-.256-.108-.185-.235l.135-.242c.116-.207.296-.362.513-.44M1.638 13.386l.668-.296c.128-.057.261.09.2.222l-.117.25c-.1.214-.27.381-.48.475l-.668.297c-.128.056-.262-.09-.2-.22l.118-.252c.1-.214.27-.382.48-.476M1.183 14.713l.646-.343c.123-.066.268.072.215.206l-.1.26c-.085.22-.242.4-.445.506l-.645.343c-.124.067-.268-.07-.215-.205l.098-.26c.087-.22.244-.399.446-.507M.822 16.068l.62-.388c.118-.074.27.055.229.191l-.081.266c-.071.226-.215.415-.41.537l-.62.387c-.118.074-.272-.053-.229-.192l.081-.264c.07-.226.215-.416.41-.537M.555 17.444l.592-.43c.113-.082.275.035.242.175l-.063.27c-.054.23-.185.43-.371.566l-.59.429c-.114.083-.276-.035-.243-.175l.063-.27c.054-.23.185-.43.37-.565M.385 18.836l.56-.47c.107-.09.277.016.254.158l-.044.273c-.037.235-.154.442-.33.59l-.56.469c-.107.09-.277-.014-.253-.157l.043-.274c.038-.234.155-.441.33-.59M.314 20.237l.525-.509c.101-.096.277-.003.264.14l-.024.277c-.021.235-.123.45-.289.61l-.526.508c-.1.096-.277.004-.263-.14l.025-.276c.02-.235.122-.45.288-.61M.34 21.639l.489-.543c.094-.103.275-.024.273.12l-.007.278c-.004.235-.09.458-.244.628l-.49.544c-.092.104-.275.023-.272-.121l.006-.278c.004-.237.09-.458.244-.628M.463 23.035l.45-.576c.088-.11.273-.042.281.101l.015.278c.01.235-.06.464-.201.644l-.45.576c-.086.11-.275.042-.282-.101l-.014-.278c-.011-.235.06-.464.201-.644M.685 24.42l.408-.605c.078-.118.27-.063.287.08l.034.276c.027.234-.027.466-.155.656l-.41.606c-.077.117-.27.062-.286-.081l-.034-.275c-.028-.235.027-.466.156-.657M1.001 25.786l.365-.633c.07-.121.266-.08.293.062l.053.272c.043.232.006.467-.11.666l-.365.633c-.07.12-.265.08-.293-.062l-.052-.272c-.044-.232-.005-.467.11-.666M1.413 27.126l.32-.658c.062-.124.259-.097.296.042l.07.268c.062.228.04.465-.061.673l-.32.656c-.061.126-.26.098-.297-.04l-.07-.268c-.061-.23-.04-.466.062-.673M1.917 28.435l.273-.678c.053-.13.252-.117.299.02l.09.262c.076.225.071.462-.015.676l-.274.676c-.052.131-.251.117-.297-.02l-.09-.262c-.076-.224-.072-.46.014-.674M2.51 29.704l.227-.694c.043-.135.242-.135.298-.001l.108.256c.091.216.103.455.032.673l-.225.695c-.044.134-.243.134-.299.002l-.107-.256c-.093-.219-.104-.456-.033-.675M3.192 30.93l.177-.708c.033-.137.233-.151.298-.022l.126.246c.106.212.133.448.079.671l-.178.71c-.034.135-.232.149-.297.02L3.27 31.6c-.106-.21-.134-.447-.08-.67M3.957 32.105l.126-.72c.025-.138.222-.166.297-.043l.143.24c.12.202.164.437.125.662l-.127.72c-.024.138-.221.166-.296.043l-.142-.239c-.12-.203-.165-.437-.126-.663M4.802 33.224l.077-.726c.014-.14.208-.182.292-.064l.158.228c.136.194.196.425.172.653l-.077.726c-.014.14-.21.182-.291.063l-.159-.228c-.134-.193-.195-.424-.172-.652M5.724 34.282l.026-.73c.005-.14.196-.196.286-.083l.175.216c.148.184.224.409.216.638l-.025.73c-.004.14-.196.196-.286.083l-.175-.216c-.148-.184-.225-.409-.217-.638M6.717 35.273l-.026-.731c-.003-.14.183-.208.28-.103l.19.203c.16.173.252.394.261.622l.025.73c.005.141-.182.21-.281.103l-.188-.203c-.16-.174-.253-.393-.261-.621M7.777 36.19l-.077-.726c-.014-.139.167-.221.272-.122l.203.19c.173.16.28.374.304.603l.077.726c.014.139-.168.22-.272.123l-.204-.191c-.173-.161-.28-.374-.303-.602M8.898 37.033l-.127-.72c-.024-.137.15-.231.263-.14l.216.175c.183.15.304.354.343.58l.128.72c.024.137-.151.23-.263.14l-.216-.174c-.183-.15-.305-.354-.344-.581M10.075 37.796l-.177-.71c-.034-.135.135-.241.253-.158l.227.16c.193.136.329.331.384.554l.178.71c.033.135-.136.24-.254.157l-.227-.158c-.193-.137-.33-.332-.384-.555M11.302 38.474l-.226-.695c-.043-.132.117-.25.241-.175l.238.143c.201.123.351.308.422.525l.226.697c.044.132-.118.25-.242.176L11.724 39c-.202-.122-.35-.308-.422-.526M12.574 39.065l-.274-.677c-.052-.13.1-.258.229-.193l.246.126c.211.108.373.284.458.497l.274.677c.053.13-.099.258-.227.193l-.248-.127c-.21-.107-.372-.283-.458-.496M13.884 39.566l-.32-.656c-.061-.126.08-.265.214-.209l.255.11c.218.093.391.257.492.463l.32.656c.061.126-.081.264-.214.208l-.255-.11c-.218-.092-.391-.255-.492-.462M15.227 39.974l-.366-.632c-.07-.122.062-.27.2-.222l.26.09c.225.078.409.229.523.428l.366.632c.07.122-.063.27-.2.222l-.26-.09c-.225-.078-.41-.229-.523-.428M16.593 40.288l-.41-.604c-.078-.118.045-.275.184-.237l.267.073c.229.061.424.2.552.39l.409.605c.078.116-.044.274-.183.236l-.268-.073c-.23-.062-.423-.2-.551-.39M17.978 40.507l-.449-.575c-.087-.111.025-.277.166-.248l.272.053c.232.046.436.17.577.35l.45.576c.086.11-.025.275-.166.248l-.272-.054c-.233-.046-.436-.168-.578-.35M19.375 40.628l-.488-.543c-.094-.104.005-.277.148-.259l.275.034c.235.029.447.139.6.31l.49.542c.092.105-.005.278-.15.26l-.274-.035c-.235-.03-.447-.138-.6-.309M20.778 40.651l-.525-.508c-.101-.097-.015-.276.13-.268l.277.016c.236.012.455.106.62.264l.526.51c.1.096.014.275-.13.267l-.277-.015c-.237-.013-.456-.107-.62-.266M22.179 40.576l-.56-.47c-.107-.09-.034-.274.11-.277l.278-.004c.237-.004.461.075.637.223l.56.47c.108.088.035.274-.11.276l-.278.003c-.237.004-.461-.074-.637-.22M23.571 40.404l-.592-.43c-.112-.082-.051-.272.092-.284l.277-.023c.235-.02.465.042.65.178l.593.429c.113.082.052.272-.092.283l-.277.024c-.235.02-.465-.042-.65-.177M24.947 40.135l-.619-.389c-.12-.073-.072-.267.07-.288l.275-.043c.233-.036.468.01.663.132l.62.387c.119.074.07.268-.072.29l-.274.042c-.234.037-.467-.01-.663-.131M26.303 39.77l-.646-.342c-.124-.068-.089-.263.05-.295l.27-.062c.232-.052.469-.022.672.085l.645.344c.123.065.09.261-.051.293l-.271.062c-.23.053-.467.023-.67-.085M27.628 39.313l-.668-.298c-.127-.057-.108-.255.03-.297l.266-.08c.226-.068.464-.055.674.038l.667.297c.128.057.108.255-.03.298l-.265.08c-.226.068-.465.055-.674-.038M28.919 38.764l-.687-.251c-.132-.048-.125-.246.008-.298l.26-.099c.222-.084.46-.087.676-.008l.686.249c.132.048.126.248-.008.299l-.26.098c-.222.085-.46.088-.675.01M30.168 38.126l-.703-.202c-.134-.038-.142-.238-.013-.3l.253-.115c.216-.1.453-.118.673-.056l.703.202c.134.039.143.238.012.298l-.253.117c-.214.1-.452.119-.672.056M31.369 37.402l-.715-.152c-.138-.03-.159-.226-.032-.297l.243-.134c.207-.114.443-.15.668-.102l.715.152c.136.03.158.227.032.297l-.244.134c-.208.113-.442.149-.667.102M32.518 36.597l-.725-.103c-.14-.018-.174-.214-.052-.293l.233-.15c.198-.129.431-.182.658-.15l.724.102c.138.02.173.216.053.293l-.234.151c-.199.13-.43.181-.657.15M33.606 35.713l-.729-.051c-.14-.01-.189-.202-.072-.29l.222-.166c.188-.141.417-.21.645-.194l.73.05c.14.01.189.204.073.29l-.223.167c-.189.142-.417.21-.646.194M18.527 4.753L19.691 3.916 19.241 2.543 20.397 3.391 21.564 2.538 21.114 3.9 22.286 4.746 20.852 4.74 20.409 6.115 19.972 4.75zM12.619 6.676L13.373 5.457 12.432 4.361 13.825 4.702 14.577 3.468 14.682 4.897 16.089 5.231 14.762 5.774 14.879 7.214 13.952 6.12zM7.896 10.714L8.127 9.299 6.837 8.646 8.254 8.428 8.477 7 9.122 8.281 10.549 8.051 9.53 9.06 10.19 10.346 8.915 9.689zM5.078 16.251L4.75 14.856 3.308 14.746 4.534 14.003 4.193 12.598 5.279 13.534 6.51 12.776 5.955 14.098 7.056 15.034 5.628 14.915zM4.593 22.446L3.756 21.282 2.383 21.732 3.231 20.576 2.378 19.409 3.74 19.858 4.586 18.687 4.58 20.121 5.955 20.564 4.59 21.001zM6.516 28.354L5.297 27.599 4.201 28.541 4.542 27.148 3.308 26.396 4.737 26.29 5.071 24.884 5.614 26.211 7.054 26.094 5.96 27.02zM10.554 33.077L9.139 32.846 8.486 34.135 8.268 32.718 6.84 32.496 8.121 31.851 7.891 30.424 8.9 31.442 10.186 30.783 9.529 32.057zM16.091 35.895L14.696 36.223 14.586 37.664 13.843 36.438 12.438 36.779 13.374 35.693 12.616 34.463 13.938 35.018 14.874 33.917 14.755 35.345zM22.286 36.379L21.122 37.217 21.572 38.59 20.416 37.742 19.249 38.595 19.698 37.233 18.527 36.387 19.961 36.393 20.404 35.018 20.841 36.383zM28.194 34.456L27.439 35.675 28.381 36.772 26.988 36.431 26.236 37.665 26.13 36.235 24.724 35.901 26.051 35.359 25.934 33.919 26.86 35.013zM32.917 30.419L32.686 31.834 33.975 32.487 32.558 32.705 32.336 34.133 31.691 32.852 30.264 33.082 31.283 32.073 30.623 30.787 31.897 31.443zM35.735 24.881L36.063 26.277 37.504 26.387 36.278 27.13 36.619 28.535 35.534 27.598 34.303 28.357 34.858 27.035 33.757 26.099 35.185 26.218zM36.219 18.687L37.057 19.851 38.43 19.401 37.582 20.557 38.435 21.724 37.073 21.274 36.227 22.446 36.233 21.012 34.858 20.569 36.223 20.132zM34.297 12.779L35.516 13.533 36.612 12.592 36.271 13.985 37.505 14.737 36.075 14.842 35.742 16.249 35.199 14.922 33.759 15.039 34.853 14.112zM30.259 8.056L31.674 8.287 32.327 6.997 32.545 8.414 33.973 8.637 32.692 9.282 32.922 10.709 31.913 9.69 30.627 10.35 31.284 9.075zM24.722 5.238L26.117 4.91 26.227 3.468 26.97 4.694 28.375 4.353 27.438 5.439 28.197 6.67 26.875 6.115 25.939 7.216 26.058 5.787z"/>
                    <path fill="#DB0E16" d="M20.407 7.328c-7.299 0-13.238 5.939-13.238 13.238 0 7.299 5.939 13.237 13.238 13.237 7.3 0 13.237-5.938 13.237-13.237 0-7.3-5.938-13.238-13.237-13.238m0 26.874c-7.518 0-13.635-6.117-13.635-13.636 0-7.52 6.117-13.636 13.635-13.636 7.519 0 13.636 6.117 13.636 13.636 0 7.52-6.117 13.636-13.636 13.636"/>
                    <path fill="#DB0E16" d="M20.247 13.612h-.66c.018-.446.192-.712.392-.984.053-.072.106-.143.156-.218.054-.08.104-.162.148-.252.092-.186.155-.402.166-.668.003-.372-.13-.675-.3-.904-.693-.867-.41-1.67.294-1.838-.398.388-.36.797.08 1.297.01-.24.14-.387.36-.387-.219.226-.125.442.088.73.047.059.105.124.174.196.373.382.53.71.477 1.25-.089.861-1.19 1.13-1.375 1.778zm1.571-2.28c.392.367.627.896.603 1.485-.01.281-.08.552-.196.795h-.771c.259-.304.58-.553.507-.985-.1.556-.436.649-.642.985h-.86c.038-.1.104-.188.21-.293.06-.06.128-.119.198-.177l.23-.188c.309-.255.673-.586.726-1.107.019-.19.023-.361-.005-.514zm-3.29 2.28c-.097-.245-.146-.512-.135-.795.024-.577.29-1.096.698-1.461.412-.366.51-.699.29-.99.582.162.87.537.866 1.127-.039.945-.822 1.098-.863 2.119h-.856zm.39-.685c.06-.704.922-.93.807-1.61-.143.795-.768.642-.807 1.61zM21.074 23.316c-.13.206-.31.376-.523.494-.188.106-.4.169-.628.179-.024.003-.05.003-.074.003-.368 0-.703-.137-.959-.363-.3-.265-.49-.653-.49-1.087 0-.279.08-.541.218-.762.149-.241.366-.436.627-.554.055-.027.112-.048.172-.067.137-.043.282-.066.432-.066.515 0 .968.27 1.225.675-.213-.236-.52-.384-.862-.384-.173 0-.335.037-.482.103-.053.025-.105.054-.153.086-.239.156-.416.397-.49.68-.024.093-.036.19-.036.29 0 .26.086.501.23.694.214.282.549.465.929.465h.002c.075 0 .15-.007.222-.021.25-.049.474-.18.64-.365"/>
                    <path fill="#DB0E16" d="M22.079 22.655L22.306 22.969 21.806 22.806 21.496 23.233 21.496 22.706 20.997 22.542 21.496 22.379 21.496 21.855 21.629 22.037 21.806 22.279 22.306 22.118 21.997 22.542z"/>
                    <path fill="#DB0E16" d="M20.34 25.319c-1.574 0-2.85-1.276-2.85-2.85 0-1.575 1.276-2.851 2.85-2.851 1.576 0 2.851 1.276 2.851 2.85 0 1.575-1.275 2.85-2.85 2.85m0-6.04c-1.763 0-3.191 1.428-3.191 3.19 0 1.763 1.428 3.192 3.19 3.192 1.764 0 3.192-1.429 3.192-3.192 0-1.762-1.428-3.19-3.191-3.19"/>
                    <path fill="#DB0E16" d="M20.947 17.812h-1.043c-.054-.028-.093-.067-.111-.124-.017-.07-.055-.13-.119-.189v-.026h1.503l.001.026c-.06.052-.096.1-.11.157-.013.07-.054.12-.121.156zm-2.728-1.756c-.087-.16-.15-.33-.191-.515-.024-.111-.04-.229-.048-.347h4.887c-.004.117-.02.234-.046.347-.04.18-.106.355-.197.519-.277.51-.783.929-1.446 1.118H19.674c-.674-.21-1.18-.6-1.455-1.122zm.162-1.353h4.09v-.396h-4.09v.396zm11.752 6.59l-.403-.4.42 5.645c-1.45.127-2.273.23-3.717.026-.652-.092-1.303-.22-1.954-.286-1.952-.198-2.245-.069-3.467.815l.003-.464c1.21-.84 1.64-.908 3.502-.718 1.386.14 2.724.51 4.132.386l1.103-.096-.43-5.712-.399-.396.43 5.772c-1.054.092-1.75.118-2.816-.033-.661-.093-1.321-.222-1.982-.29-1.76-.179-2.32-.171-3.537.636l.003-.445c1.209-.76 1.926-.726 3.572-.559.666.068 1.33.197 1.998.292.827.117 1.534.135 2.364.063l-.435-5.838-.037-.037-.371-.358-.002-.019-.018.002v.005c-.298-.019-.593-.06-.933-.116-1.067-.176-2.858-.386-3.832-.393-.719-.005-1.453.108-2.182.434l.021-.895c-.002.002-.001-.01-.001-.01v-.293c.085-.047.152-.102.178-.171.065-.171.143-.247.24-.23v-.138c.848-.314 1.375-.877 1.594-1.678l.088-.44c.017-.13.028-.266.032-.408l-.396-.397v-.662H17.95v.662l-.394.397c-.004.138.004.272.02.402l.094.458c.226.76.789 1.372 1.597 1.666v.138c.138-.002.2.083.225.213.049.097.114.16.195.188l.014.284.023.939c-.748-.347-1.501-.464-2.24-.459-.973.007-2.745.2-3.813.375-.344.056-.641.099-.942.117.402 0 .808-.031 1.2-.078.66-.079 2.102-.09 2.767-.15.876-.077 1.749.075 2.606.49.289-.102.597-.162.918-.174l.012-1.364h.386l.014 1.372c.287.027.561.094.82.193.876-.437 1.77-.596 2.664-.517.665.06 2.126.09 2.786.168.387.046.79.077 1.19.077v.003l.002.112.434 5.78-.286.013c-.453.021-.976-.035-1.557-.12-1.014-.148-2.052-.341-3.074-.35-.109 0-.216.001-.324.005-.306.01-.608.044-.906.098-.466.405-1.053.674-1.7.744l-.001.074-.006 3.348c0 .134-.11.242-.243.242-.134 0-.243-.108-.244-.242l-.004-2.044.005.003-.005-.003-.003-1.304v-.063c-.731-.037-1.394-.325-1.907-.78-.247-.038-.496-.065-.748-.073-.108-.004-.215-.005-.323-.004-1.022.008-2.061.2-3.075.35-.58.084-1.104.14-1.556.12l-.287-.014.434-5.78.003-.112v-.008l-.02-.002v.019l-.371.358-.038.037-.434 5.838c.83.072 1.537.054 2.364-.063.667-.095 1.332-.224 1.997-.292 1.663-.169 2.398-.131 3.631.662l.003.427c-1.238-.833-1.823-.901-3.596-.72-.66.067-1.32.196-1.982.29-1.066.15-1.762.124-2.816.032l.43-5.772-.4.396-.428 5.712 1.102.096c1.408.124 2.746-.245 4.132-.386 1.875-.192 2.327-.062 3.562.804l.003.451c-1.27-.924-1.545-1.09-3.527-.888-.65.066-1.301.194-1.953.286-1.445.205-2.268.1-3.718-.026l.42-5.645-.402.4-.416 5.581c1.633.143 2.561.284 4.168.057.647-.092 1.293-.219 1.939-.285 1.503-.153 1.988-.083 2.94.602l.552.387.004.61v.787c0 .31.253.563.563.563h.009c.31 0 .564-.253.564-.563v-.58l.006-.877.493-.327c.951-.685 1.436-.755 2.94-.602.646.066 1.29.193 1.938.285 1.607.227 2.535.086 4.168-.057l-.415-5.581zM46.418 13.994L44.883 13.994 44.883 12.908 49.277 12.908 49.277 13.994 47.716 13.994 47.716 18.626 46.418 18.626zM49.164 17.939c0-.459.314-.79.763-.79.45 0 .755.323.755.79 0 .45-.305.78-.763.78-.441 0-.755-.33-.755-.78M55.953 18.464c-.237.12-.772.247-1.467.247-1.977 0-2.994-1.23-2.994-2.86 0-1.95 1.39-3.036 3.121-3.036.67 0 1.18.136 1.408.254l-.263 1.027c-.263-.11-.627-.212-1.085-.212-1.027 0-1.824.619-1.824 1.891 0 1.146.678 1.867 1.832 1.867.39 0 .823-.085 1.077-.187l.195 1.01zM56.634 17.939c0-.459.314-.79.763-.79.45 0 .755.323.755.79 0 .45-.305.78-.763.78-.441 0-.755-.33-.755-.78M65.62 16.439c-.025-.687-.05-1.517-.05-2.348h-.026c-.178.729-.415 1.543-.636 2.212l-.695 2.23h-1.008l-.61-2.213c-.187-.67-.382-1.483-.518-2.229h-.016c-.034.771-.06 1.653-.102 2.365l-.102 2.17h-1.195l.365-5.713h1.72l.56 1.907c.177.661.355 1.373.482 2.043h.026c.16-.661.356-1.416.542-2.052l.61-1.898h1.687l.314 5.713h-1.263l-.085-2.187zM68.262 12.006c0-.33.262-.585.593-.585.322 0 .568.255.568.585 0 .305-.246.576-.568.576-.34 0-.593-.27-.593-.576zm-.068 6.62h1.297v-5.713h-1.297v5.713zM70.821 12.913L72.118 12.913 72.118 17.541 74.39 17.541 74.39 18.626 70.821 18.626zM75.264 12.913L76.561 12.913 76.561 17.541 78.832 17.541 78.832 18.626 75.264 18.626z"/>
                    <mask id="icqf22g0bd" fill="#fff">
                        <use xlink:href="#3kxeocfi8c"/>
                    </mask>
                    <path fill="#DB0E16" d="M79.707 18.626h1.297v-5.713h-1.297v5.713zm1.127-7.06l.856 1.042h-.907l-.423-.526h-.017l-.424.526h-.899l.848-1.043h.966zM87.677 16.21L85.575 16.21 85.575 17.566 87.922 17.566 87.922 18.626 84.278 18.626 84.278 12.913 87.803 12.913 87.803 13.972 85.575 13.972 85.575 15.159 87.677 15.159zM91.1 11.497c.025.187.152.39.5.39.355 0 .49-.186.533-.39h.661c-.017.62-.38 1.068-1.186 1.068-.84 0-1.179-.449-1.187-1.068h.678zm2.618 6.866c-.398.135-1.153.322-1.907.322-1.042 0-1.797-.263-2.322-.771-.526-.492-.814-1.238-.806-2.077.009-1.899 1.39-2.983 3.264-2.983.737 0 1.305.144 1.585.28l-.271 1.033c-.314-.135-.704-.246-1.331-.246-1.077 0-1.89.61-1.89 1.848 0 1.178.737 1.874 1.797 1.874.296 0 .534-.034.635-.085v-1.195h-.881v-1.009h2.127v3.009zM94.978 12.006c0-.33.263-.585.594-.585.322 0 .568.255.568.585 0 .305-.246.576-.568.576-.34 0-.594-.27-.594-.576zm-.067 6.62h1.297v-5.713H94.91v5.713zM98.568 13.998L97.034 13.998 97.034 12.913 101.425 12.913 101.425 13.998 99.865 13.998 99.865 18.626 98.568 18.626zM102.329 12.006c0-.33.263-.585.593-.585.322 0 .568.255.568.585 0 .305-.246.576-.568.576-.339 0-.593-.27-.593-.576zm-.068 6.62h1.297v-5.713h-1.297v5.713zM109.711 16.439c-.025-.687-.05-1.517-.05-2.348h-.026c-.178.729-.415 1.543-.636 2.212l-.695 2.23h-1.008l-.61-2.213c-.187-.67-.382-1.483-.518-2.229h-.016c-.034.771-.06 1.653-.102 2.365l-.102 2.17h-1.195l.365-5.713h1.72l.56 1.907c.177.661.356 1.373.482 2.043h.026c.161-.661.356-1.416.542-2.052l.61-1.898h1.687l.314 5.713h-1.263l-.085-2.187zM46.595 27.067c.126.016.28.016.5.016.585 0 1.102-.22 1.102-.821 0-.577-.517-.806-1.162-.806h-.44v1.61zm0-2.534h.423c.679 0 1.043-.28 1.043-.704 0-.432-.33-.661-.915-.661-.28 0-.441.017-.551.034v1.33zm-1.28-2.187c.339-.068 1.025-.119 1.67-.119.787 0 1.271.076 1.686.322.398.212.687.602.687 1.119 0 .509-.297.983-.941 1.22v.017c.652.178 1.135.67 1.135 1.407 0 .517-.237.924-.593 1.212-.415.33-1.11.518-2.246.518-.635 0-1.11-.043-1.398-.085v-5.611zM53.282 25.55l-.356-1.213c-.101-.338-.203-.762-.288-1.101h-.017c-.085.339-.17.77-.262 1.101l-.34 1.213h1.263zm-1.45.966l-.406 1.466h-1.34l1.747-5.713h1.695l1.771 5.713h-1.39l-.44-1.466h-1.636zM56.178 22.27h1.28v2.525h.025c.127-.22.263-.424.39-.627l1.297-1.899h1.585l-1.89 2.433 1.991 3.28h-1.508l-1.398-2.466-.492.601v1.865h-1.28V22.27zM64.608 25.55l-.356-1.213c-.102-.338-.203-.762-.288-1.101h-.017c-.085.339-.17.77-.263 1.101l-.339 1.213h1.263zm-1.45.966l-.406 1.466h-1.34l1.747-5.713h1.695l1.771 5.713h-1.39l-.44-1.466h-1.636zM67.504 27.982V22.27h1.508l1.187 2.094c.339.602.678 1.314.932 1.958h.026c-.085-.755-.11-1.526-.11-2.382v-1.67h1.186v5.713h-1.356l-1.22-2.204c-.34-.61-.713-1.347-.992-2.017l-.025.009c.034.754.05 1.56.05 2.491v1.721h-1.186zM73.578 22.269L74.875 22.269 74.875 26.897 77.146 26.897 77.146 27.982 73.578 27.982zM78.02 27.982L79.317 27.982 79.317 22.269 78.02 22.269zM82.778 20.854c.025.187.152.39.5.39.356 0 .491-.187.534-.39h.66c-.016.619-.38 1.068-1.186 1.068-.839 0-1.178-.45-1.187-1.068h.679zm2.619 6.865c-.399.136-1.153.323-1.907.323-1.043 0-1.797-.263-2.323-.772-.525-.492-.814-1.237-.805-2.076.008-1.9 1.39-2.984 3.263-2.984.737 0 1.305.144 1.585.28l-.271 1.034c-.313-.136-.704-.246-1.331-.246-1.076 0-1.89.61-1.89 1.848 0 1.178.738 1.873 1.797 1.873.297 0 .534-.034.635-.085V25.72h-.88V24.71h2.127v3.01zM86.661 27.982L87.958 27.982 87.958 22.269 86.661 22.269z" mask="url(#icqf22g0bd)"/>
                </g>
            </g>
        </g>
    </g>
</svg>
