<svg xmlns="http://www.w3.org/2000/svg" xmlns:xlink="http://www.w3.org/1999/xlink" width="409" height="184" viewBox="0 0 409 184">
    <defs>
        <path id="wdyt1zfsma" d="M0.532 0.932L17.114 0.932 17.114 10.513 0.532 10.513z"/>
    </defs>
    <g fill="none" fill-rule="evenodd">
        <g>
            <g>
                <g>
                    <path fill="#47C0BB" d="M228.827 74.212c-7.75-8.572-18.864-14.24-29.69-17.88-45.77-15.386-103.983-13.335-138.403 24.494-33.755 37.096 14.28 65.465 48.546 71.906 18.726 3.522 38.065 2.362 56.705-1.094 9.701-1.8 19.13-4.819 28.815-6.618 12.938-2.4 24.924.062 37.484 3.393 3.855 1.022 7.388-2.74 4.858-6.372-5.642-8.109-2.762-17.832-.491-26.553 2.56-9.843 3.664-18.958-.065-28.765-1.798-4.734-4.478-8.882-7.759-12.51" transform="translate(-688) translate(128) translate(560) rotate(12 144.118 101.106)"/>
                    <path fill="#EAF1FC" d="M270.822 82.57c-13.64-.826-27.525-.194-40.894 2.762-7.162 1.584-16.106 3.065-21.434 8.601-7.12 7.4-2.346 18.363 6.286 21.994 10.521 4.424 23.341 1.272 34.185-.114 11.479-1.466 26.993-3.173 40.45-.224 5.115 1.12 1.251-3.452.312-4.612-1.371-1.695.567-3.864 1.482-4.285 3.842-1.772 4.937-4.335 5.639-9.107 1.87-12.759-17.376-14.492-26.026-15.015" transform="translate(-688) translate(128) translate(560)"/>
                    <path fill="#E77B44" d="M78.816 123.294c-3.4-3.76-8.279-6.247-13.03-7.844-20.087-6.749-45.636-5.85-60.742 10.746-14.815 16.273 6.267 28.717 21.305 31.543 8.219 1.545 16.706 1.036 24.887-.48 4.258-.79 8.396-2.114 12.646-2.903 5.679-1.053 10.94.027 16.451 1.488 1.693.449 3.243-1.202 2.133-2.795-2.477-3.557-1.213-7.823-.216-11.648 1.124-4.318 1.608-8.317-.028-12.619-.79-2.076-1.965-3.896-3.406-5.488" transform="translate(-688) translate(128) translate(560)"/>
                    <path fill="#E77B44" d="M396.849 122.627c-4.686-5.18-11.403-8.603-17.946-10.802-27.663-9.295-62.851-8.056-83.655 14.798-20.403 22.411 8.631 39.55 29.343 43.442 11.318 2.127 23.007 1.427 34.274-.662 5.864-1.087 11.562-2.912 17.416-3.997 7.82-1.45 15.065.037 22.655 2.049 2.331.618 4.467-1.655 2.94-3.849-3.412-4.899-1.672-10.774-.3-16.042 1.548-5.947 2.216-11.454-.037-17.378-1.088-2.861-2.708-5.367-4.69-7.559" transform="translate(-688) translate(128) translate(560) rotate(13 345.647 138.875)"/>
                    <path fill="#E77B44" d="M263.087 50.367c-6.305-1.38-13.16-1.157-16.889.563-4.9 2.257-8.722 8.216-4.753 12.994 3.179 3.825 9.493 5.387 14.201 5.958 4.17.506 8.389.342 12.585.178.696-.027 1.395-.078 2.078-.175 1.152-.16 2.324.07 3.288.722l3.859 2.614c.45.304 1.223-.048.965-.662-.56-1.338-1.57-7.786-1.194-8.726.003-.005-.066.38-.064.375 3.386-8.507-5.255-11.91-14.076-13.841" transform="translate(-688) translate(128) translate(560)"/>
                    <g transform="translate(-688) translate(128) translate(560) translate(19.769 .46)"/>
                    <path fill="#332ABB" d="M127.666 148.894c-3.125.013-6.316-.01-9.448.32-2.836.298-5.623.886-8.265 2.053-5.002 2.21-6.405 6.94-2.486 11.134 6.12 6.55 32.067 6.13 34.938 5.154.457-.155.478-.771.132-1.051-.708-.572-2.651-1.007-2.906-1.841-.379-1.247 1.514-3.208 1.796-4.487.44-2.005.111-4.116-.795-5.945-2.507-5.055-7.977-5.358-12.966-5.337" transform="translate(-688) translate(128) translate(560)"/>
                    <path fill="#47C0BB" d="M379.248 98.544c-3.124.013-6.316-.01-9.447.32-2.835.299-5.622.887-8.265 2.053-5.001 2.21-6.405 6.94-2.486 11.135 6.121 6.55 32.067 6.131 34.938 5.155.458-.156.478-.773.132-1.053-.709-.572-2.65-1.006-2.907-1.84-.377-1.247 1.515-3.209 1.797-4.488.44-2.004.112-4.116-.795-5.944-2.507-5.055-7.976-5.359-12.967-5.338" transform="translate(-688) translate(128) translate(560)"/>
                    <path fill="#FFDA01" d="M359.24 68.943c-7.795-.66-15.633-.742-23.44-.246-3.903.248-10.299-.24-12.893 3.326-.266.178-2.102 13.061-1.087 17.684.683 3.108 1.317 3.636 4.158 3.468 8.415-.5 16.827-.981 25.246-1.372 3.838-.177 7.678-.346 11.51-.63 1.314-.098 4.46.178 5.56-.75 3.725-3.134.886-13.074 1.046-15.947.243-4.354-5.591-5.152-10.1-5.533" transform="translate(-688) translate(128) translate(560)"/>
                    <path fill="#FFDA01" d="M28.549 71.813c-3.903.248-10.3-.24-12.894 3.326-.265.177-2.102 13.061-1.087 17.684.683 3.108 1.318 3.636 4.158 3.468 8.415-.5 16.828-.982 25.247-1.372 3.837-.177 7.678-.346 11.51-.63 1.314-.098 4.46.177 5.56-.75 3.724-3.134.886-13.075 1.046-15.948.242-4.353-5.592-5.15-10.101-5.532-7.795-.66-15.633-.742-23.44-.246z" transform="translate(-688) translate(128) translate(560) rotate(5 38.62 83.906)"/>
                    <path fill="#FFDA01" d="M307.895 81.086c-4.619-.01-14.315 1.756-18.885 2.71-.683.142-1.217.689-1.328 1.378-.335 2.102-.504 4.231-.505 6.36 0 2.552-.108 4.102 2.9 3.766 5.144-.575 10.293-1.15 15.38-2.107 1.52-.285 3.145-.668 4.16-1.833.56-.64.67-5.17.687-7.858.008-1.338-1.072-2.412-2.409-2.416" transform="translate(-688) translate(128) translate(560)"/>
                    <path fill="#FFDA01" d="M180.818 55.444c-.683.143-1.218.69-1.328 1.379-.335 2.102-.504 4.23-.505 6.359 0 2.552-.108 4.103 2.9 3.767 5.144-.575 10.293-1.151 15.38-2.107 1.519-.286 3.144-.668 4.16-1.833.559-.64.67-5.17.686-7.858.008-1.338-1.071-2.413-2.408-2.416-4.619-.011-14.315 1.756-18.885 2.71z" transform="translate(-688) translate(128) translate(560) rotate(5 190.548 59.865)"/>
                    <path fill="#1B2942" d="M367.146 74.024c-.034.025-.07.047-.11.064-.793.341-19.477 8.354-22.885 8.644-3.625.31-19.72-8.534-19.87-8.624-.24-.144-.315-.452-.174-.692.147-.239.455-.319.695-.175.977.579 16.198 8.745 19.263 8.483 3.246-.277 22.38-8.483 22.573-8.565.256-.111.554.008.663.264.095.218.024.464-.155.601" transform="translate(-688) translate(128) translate(560)"/>
                    <path fill="#1B2942" d="M61.373 77.567c-.794.34-19.477 8.354-22.886 8.644-3.625.309-19.72-8.534-19.87-8.624-.24-.144-.315-.453-.174-.692.147-.24.455-.32.695-.175.977.578 16.198 8.744 19.263 8.483 3.247-.277 22.38-8.483 22.573-8.565.256-.112.554.008.664.264.094.217.023.463-.156.6-.034.026-.069.047-.11.065z" transform="translate(-688) translate(128) translate(560) rotate(5 40.026 81.407)"/>
                    <path fill="#FFDA01" d="M109.846 34.3c-10.287-2.999-20.79-5.232-31.406-6.682-5.308-.724-13.764-3.114-18.215.973-.404.166-6.36 16.967-6.251 23.45.075 4.359.784 5.24 4.643 5.784 11.437 1.609 22.862 3.241 34.271 4.999 5.202.8 10.404 1.615 15.626 2.272 1.792.225 5.941 1.446 7.67.5 5.85-3.2 4.732-17.316 5.726-21.13 1.504-5.781-6.113-8.432-12.064-10.166M298.446 127.45c-10.287-2.999-20.79-5.232-31.406-6.682-5.308-.724-13.764-3.114-18.215.973-.404.166-6.36 16.967-6.251 23.45.075 4.359.784 5.24 4.643 5.784 11.437 1.609 22.862 3.241 34.271 4.999 5.202.8 10.404 1.615 15.626 2.272 1.792.225 5.941 1.446 7.67.5 5.85-3.2 4.732-17.316 5.726-21.13 1.504-5.781-6.113-8.432-12.064-10.166" transform="translate(-688) translate(128) translate(560)"/>
                    <path fill="#1B2942" d="M119.087 43.044c-.059.044-.127.078-.204.093-1.157.243-28.386 5.933-33.012 5.404-4.882-.56-24.062-16.755-24.238-16.915-.208-.189-.222-.509-.034-.715.186-.207.507-.222.715-.033 1.1 1.002 19.426 16.17 23.672 16.657 4.464.511 32.408-5.329 32.69-5.388.272-.057.541.118.6.39.04.198-.04.393-.19.507M307.687 136.194c-.059.044-.127.078-.204.093-1.157.243-28.386 5.933-33.012 5.404-4.882-.56-24.062-16.755-24.238-16.915-.208-.189-.222-.509-.034-.715.186-.207.507-.222.715-.033 1.1 1.002 19.426 16.17 23.672 16.657 4.464.511 32.408-5.329 32.69-5.388.272-.057.541.118.6.39.04.198-.04.393-.19.507M308.055 83.768c-.018.014-.035.027-.056.038-.337.194-8.295 4.753-10.11 5.413-1.915.696-7.76-2.481-8.911-3.125-.244-.137-.332-.444-.195-.688.134-.246.445-.332.689-.195 2.697 1.507 6.985 3.452 8.073 3.058 1.732-.63 9.869-5.294 9.95-5.34.243-.14.552-.056.69.187.128.221.069.5-.13.652" transform="translate(-688) translate(128) translate(560)"/>
                    <path fill="#1B2942" d="M201.005 55.659c-.337.194-8.294 4.753-10.108 5.413-1.916.696-7.76-2.481-8.912-3.125-.244-.137-.332-.444-.195-.688.134-.246.445-.332.689-.196 2.697 1.508 6.985 3.453 8.073 3.059 1.732-.63 9.869-5.294 9.95-5.34.243-.14.552-.056.69.187.128.221.069.5-.13.652-.018.014-.035.027-.057.038z" transform="translate(-688) translate(128) translate(560) rotate(5 191.493 57.943)"/>
                    <path fill="#180F64" d="M232.03 96.92c-.065-.458-.256-.83-.605-1.066-1.255-.85-3.398 1.551-4.136 2.422-1.217 1.435-2.84 6.031.408 5.712 1.754-.174 4.669-4.735 4.334-7.068M251.511 94.22c-.066-.457-.257-.83-.606-1.066-1.256-.85-3.398 1.553-4.136 2.422-1.217 1.435-2.84 6.032.408 5.713 1.753-.174 4.669-4.735 4.334-7.069M269.92 93.617c-.065-.458-.256-.83-.607-1.066-1.254-.85-3.397 1.552-4.135 2.422-1.216 1.435-2.84 6.031.408 5.712 1.754-.174 4.67-4.735 4.334-7.068" transform="translate(-688) translate(128) translate(560)"/>
                </g>
            </g>
        </g>
    </g>
</svg>
