<svg xmlns="http://www.w3.org/2000/svg" xmlns:xlink="http://www.w3.org/1999/xlink" width="356" height="350" viewBox="0 0 356 350">
    <defs>
        <path id="6o1uiqdila" d="M0.405 0.762L122.071 0.762 122.071 141.991 0.405 141.991z"/>
        <path id="bsqsxfsxfc" d="M0 0.876L261.71 0.876 261.71 116.025 0 116.025z"/>
    </defs>
    <g fill="none" fill-rule="evenodd">
        <g>
            <g>
                <path fill="#F09D7A" d="M125.71 106.662c7.532 1.03 15.664 1.073 21.655.876 1.896-.059 3.58-.143 4.96-.228.134-.011.277-.017.426-.027 3.696-.223 11.366-.637 16.926-.935 3.718-.191 6.491-.34 6.491-.34l-1.114-5.948-1.382-7.346s-9.018 1.674-21.595 3.496c-1.695.244-3.453.488-5.264.732-.856.122-1.721.234-2.598.35-16.513 2.168-31.193 1.892-32.255 2.954-1.062 1.062 2.538 4.88 13.75 6.416" transform="translate(-192 -66) translate(192 66)"/>
                <path fill="#F09D7A" d="M171.627 93.794s-50.4 19.593-64.917 24.197c-14.518 4.603-18.767 5.783-19.24 6.845-.472 1.063 3.694 6 21.128 4.131 17.434-1.867 25.849-6.02 38.242-9.56 12.393-3.541 33.992-9.56 33.992-9.56l-9.205-16.053z" transform="translate(-192 -66) translate(192 66)"/>
                <path fill="#AD5039" d="M158.25 100.097l-20.193 8.717c-1.244.537-2.327-1.295-1.073-1.835l20.192-8.719c1.244-.535 2.327 1.295 1.073 1.837" transform="translate(-192 -66) translate(192 66)"/>
                <path fill="#F09D7A" d="M174.577 93.794s-34.347 22.19-45.206 30.689c-10.858 8.497-42.963 33.755-43.671 35.054-.708 1.298 8.97 7.2 28.092-5.075 19.12-12.275 18.176-12.393 38.713-24.551 20.537-12.157 33.757-16.406 33.757-16.406l-11.685-19.711z" transform="translate(-192 -66) translate(192 66)"/>
                <path fill="#AD5039" d="M160.242 105.778c-4.92 2.849-9.557 6.332-14.276 9.496-4.51 3.02-9.017 6.046-13.52 9.073-1.14.765-2.205-1.075-1.074-1.835 4.505-3.029 9.012-6.054 13.52-9.075 4.72-3.163 9.356-6.646 14.276-9.496 1.187-.686 2.26 1.15 1.074 1.837" transform="translate(-192 -66) translate(192 66)"/>
                <path fill="#F09D7A" d="M112.103 192c2.024-4.101 4.397-8.058 6.64-12.04 2.719-4.84 5.465-9.658 8.252-14.459.452-.785.909-1.578 1.37-2.363 3.326-5.7 6.704-11.366 10.156-16.992 1.249-2.028 2.55-4.03 3.904-6.017 2.63-3.867 5.45-7.654 8.376-11.377 6.045-7.696 12.556-15.116 18.877-22.404.663-.762 1.32-1.523 1.977-2.283l-6.52-9.798s19.327-8.38 41.045-23.489c21.717-15.108 34.612-33.994 34.612-33.994s15.934-.235 37.061 7.438c21.128 7.672 22.013 14.635 21.836 17.173-.178 2.538-1.7 8.075-1.7 8.075l-8.543 13.544c-2.993 26.789-7.18 33.014-13.316 50.846-2.013 5.842-4.81 14.788-7.762 24.424-.788 2.567-1.581 5.182-2.38 7.798-5.775 18.96-11.437 37.918-12.63 40.011-1.93 3.387-9.085.504-9.859-16.377-.454-9.897.744-18.6 2.036-28.243.346-2.594.7-5.26 1.039-8.035.156-1.307.306-2.642.45-4.002.644-6.132-.516-12.75-3.453-18.164-3.536-6.519-11.239-10.227-18.315-11.537-18.476-3.42-38.101 7.398-51.398 19.645-.605.557-1.2 1.115-1.79 1.683-3.182 3.05-6.097 6.21-8.875 9.444-6.284 7.309-11.876 14.994-18.324 22.706-.568.685-1.153 1.376-1.742 2.061-2.189 2.56-4.495 5.12-6.959 7.664-14.456 14.92-25.6 12.174-24.065 9.061" transform="translate(-192 -66) translate(192 66)"/>
                <path fill="#AD5039" d="M167.923 112.208c-6.026 7.046-11.807 14.316-18.14 21.094-.937 1-2.437-.505-1.504-1.504 6.334-6.777 12.115-14.047 18.14-21.093.89-1.043 2.389.468 1.504 1.503" transform="translate(-192 -66) translate(192 66)"/>
                <g transform="translate(-192 -66) translate(192 66) translate(232.96 .148)">
                    <mask id="5xck7sz42b" fill="#fff">
                        <use xlink:href="#6o1uiqdila"/>
                    </mask>
                    <path fill="#FFD3CF" d="M.414 44.78c1.547 4.782 4.685 8.096 9.123 10.391 2.321 1.202 4.975 1.96 6.976 3.707 6.573 5.74 8.2 16.179 12.967 23.282 9.104 13.568 26.646 16.784 37.932 27.875 5.997 5.894 9.974 13.506 16.066 19.311 2.083 1.985 20.062 15.722 22.098 12.012.178-.323.194-.706.212-1.074.312-6.77 1.82-13.405 3.466-19.956 2.271-9.038 4.957-18.122 5.213-27.504.226-8.261-.842-16.598-1.06-24.862-.377-14.424 2.311-28 5.991-41.898.703-2.656 2.726-10.207 2.673-10.538-.054-.334-3.842-1.953-4.865-2.418-2.784-1.266-13.261-6.073-36.254-9.932C56.697-.896 41.104 1.273 33.67 1.912c-2.271.195-9.248 1.968-9.451 2.3-.412.088-3.986 8.054-5.966 11.423-1.963 3.337-3.858 6.715-5.97 9.96-2.037 3.13-8.02 11.65-8.761 12.935-.608 1.052-3.29 5.687-3.108 6.25" mask="url(#5xck7sz42b)"/>
                </g>
                <path fill="#D18280" d="M322.056 19.082c-.38 15.076-2 30.13-1.901 45.22.099 14.992 2.247 29.86 4.026 44.718.163 1.355-1.965 1.345-2.126 0-1.78-14.857-3.928-29.726-4.027-44.719-.098-15.088 1.521-30.143 1.902-45.22.034-1.365 2.161-1.37 2.126 0M294.437 49.533c-1.078 8.975-1.504 18.082-.53 27.089.146 1.358-1.981 1.347-2.127 0-.973-9.007-.547-18.114.53-27.09.163-1.341 2.291-1.357 2.127 0" transform="translate(-192 -66) translate(192 66)"/>
                <path fill="#D67B67" d="M199.246 306.877c4.82-2.727 8.17-5.128 9.61-6.375 6.04-5.232 26.586-25.513 25.993-27.344-.592-1.83-7.373-1.78-13.29.819-5.919 2.597-17.774 7.789-28.928 16.427-.905.7-1.83 1.412-2.767 2.126-11.887 1.144-31.825-.223-31.825-.223l-5.423 17.262s41.811.035 46.63-2.692" transform="translate(-192 -66) translate(192 66)"/>
                <path fill="#D67B67" d="M150.405 307.337c2.706-3.081 7.714-5.868 7.714-5.868s24.754 3.482 34.427 2.561c9.673-.92 36.68-6.09 47.266-7.028 10.585-.937 26.872 1.861 24.585 5.116-2.288 3.253-49.09 19.177-66.409 20.266-6.681.42-48.23-1.04-51.379-2.575-3.147-1.535 1.092-9.39 3.796-12.472" transform="translate(-192 -66) translate(192 66)"/>
                <g transform="translate(-192 -66) translate(192 66) translate(0 226.738)">
                    <mask id="b9on1701jd" fill="#fff">
                        <use xlink:href="#bsqsxfsxfc"/>
                    </mask>
                    <path fill="#D67B67" d="M2.041 56.782c1.131 1.49 54.86 20.107 58.426 21.932 3.566 1.822 55.417 34.324 63.645 35.88 8.23 1.557 15.692 1.423 15.692 1.423 5.507.08 51.624-.414 62.242-2.645 10.617-2.231 56.095-22.534 58.965-23.728 2.87-1.193-2.87-8.371-21.315-6.125-18.445 2.247-35.878 9.326-53.319 10.536-10.44.725-29.608-4.247-29.608-4.247l1.891-24.147-40.74-31.51s-7.133.16-14.175.389c-4.046.13-7.805-.999-13.236-3.125C72.793 24.478 15.219.972 13.134.875 11.048.783 7.427 7.727 2.607 26.193c-4.82 18.465-1.697 29.1-.566 30.59" mask="url(#b9on1701jd)"/>
                </g>
                <path fill="#913933" d="M245.441 308.458c-4.305.186-8.677.47-12.955.99-3.745.456-7.405 1.504-11.069 2.366-8.337 1.963-16.56 4.626-24.94 6.355-14.45 2.983-29.116.591-43.078-3.626-1.312-.396-1.873 1.656-.565 2.051 13.55 4.093 27.774 6.466 41.852 4.069 8.399-1.429 16.612-4.235 24.897-6.227 4.102-.987 8.235-2.185 12.415-2.793 4.409-.642 8.992-.866 13.443-1.058 1.364-.06 1.37-2.185 0-2.127M197.651 302.044c-6.326 1.199-12.735 1.959-19.183 1.873-6.464-.087-12.895-.995-19.25-2.124-1.337-.237-1.912 1.812-.565 2.051 6.538 1.16 13.164 2.11 19.815 2.199 6.634.088 13.24-.715 19.748-1.947 1.344-.255.775-2.305-.565-2.052" transform="translate(-192 -66) translate(192 66)"/>
                <path fill="#D67B67" d="M206.75 291.63s-18.967-29.713-20.48-29.634c-1.512.078-2.906 7.113-.772 13.988 2.135 6.874 8.951 20.828 8.951 20.828s11.582 5.808 12.3-5.183" transform="translate(-192 -66) translate(192 66)"/>
                <path fill="#CC4333" d="M59.689 305.105s2.712-16.558 4.538-29.186c1.825-12.628 16.124-22.306 16.465-23.404.341-1.098-3.594-2.305-3.594-2.305s.552-2.643-2.999-4.227c-3.55-1.583-5.02-1.307-8.353-3.433s-4.532-3.817-8.688-4.815c-4.155-1-14.333-1.917-15.767-1.54-1.434.375-2.198 1.165-2.198 1.165S18.34 251.064 12.41 271.014c-4.693 15.794-4.758 15.41-4.233 16.017.525.61 11.886 4.884 11.886 4.884s-.103 1.715 1.44 2.713c1.545 1 6.66 3.257 18.331 6.947 11.106 3.51 17.12 4.969 18.304 5.035 1.183.067 1.55-1.505 1.55-1.505" transform="translate(-192 -66) translate(192 66)"/>
                <path fill="#A3322E" d="M59.176 305.027c-1.285-1.886-2.663-3.556-3.721-5.609-1.283-2.487-2.404-5.07-3.365-7.699-.869-2.378-1.42-4.895-2.436-7.218-.847-1.935-2.372-3.182-3.934-4.532-1.03-.892-2.541.607-1.503 1.503 2.077 1.795 3.355 3.283 4.237 5.946.776 2.346 1.483 4.695 2.409 6.987.833 2.066 1.734 4.107 2.756 6.087 1.073 2.08 2.42 3.7 3.72 5.609.767 1.123 2.61.06 1.837-1.074" transform="translate(-192 -66) translate(192 66)"/>
                <path fill="#A3322E" d="M75.206 249.779c-3.023 1.393-5.742 3.954-8.1 6.254-2.526 2.463-4.883 5.102-7.021 7.906-2.188 2.869-4.256 5.874-6.98 8.274-1.585 1.396-3.387 2.676-5.208 3.749-1.474.87-3.126 2.076-4.768 2.567-1.309.39-.75 2.442.565 2.05 1.437-.43 2.624-1.325 3.925-2.043 1.81-1 3.504-2.118 5.164-3.354 2.803-2.09 5.012-4.707 7.114-7.479 2.34-3.09 4.712-6.066 7.412-8.856 2.583-2.669 5.559-5.66 8.97-7.23 1.242-.573.162-2.407-1.073-1.838M20.965 291.024c.467-2.847.067-5.665.12-8.528.06-3.206.313-6.468.959-9.61 1.26-6.127 4.252-11.734 7.216-17.182.655-1.202-1.182-2.277-1.835-1.073-2.928 5.382-5.887 10.935-7.271 16.95-.673 2.923-.955 5.933-1.11 8.922-.17 3.296.405 6.698-.13 9.956-.22 1.339 1.829 1.914 2.05.565M60.99 244.583c-3.23 2.332-5.874 5.29-8.26 8.46-.824 1.092 1.021 2.153 1.835 1.073 2.152-2.857 4.586-5.594 7.498-7.697 1.1-.793.04-2.64-1.073-1.836" transform="translate(-192 -66) translate(192 66)"/>
                <path fill="#CC4333" d="M26.817 314.243c.605 4.608 1.899 9.126 3.882 13.392 1.94 4.18 4.478 8.04 6.693 12.073.878 1.597 4.182 11.535 6.579 9.641 1.458-1.151 2.077-3.341 2.777-4.991 1.013-2.386 1.952-4.8 2.774-7.257 1.64-4.905 2.846-9.963 3.46-15.102.962-8.048 1.036-15.429-3.082-23.314-1.563-2.992-3.13-6.174-4.98-9.005-1.011-1.544-4.303-8.062-6.546-7.478-7.702 2.005-9.75 9.897-11.114 17.049-.947 4.966-1.094 10.032-.443 14.992M10.85 221.337c.07 1.205.663 2.663.903 3.752.378 1.722.757 3.442 1.134 5.164.982 4.471 1.986 8.935 2.977 13.404 1.194 5.39 2.399 10.815 4.526 15.93 1.711 4.115 4.031 8.02 7.165 11.188 2.524 2.552 12.43 10.243 14.87 4.764 1.01-2.261 1.987-4.586 2.528-7.028 2.428-10.953-2.587-22.963-9.08-31.707-3.036-4.09-6.686-7.721-10.774-10.758-2.044-1.518-4.2-2.888-6.443-4.094-1.588-.853-7.421-4.873-7.798-1.16-.018.175-.02.357-.008.545" transform="translate(-192 -66) translate(192 66)"/>
                <path fill="#CC4333" d="M30.65 279.619c.286 2.05 1.87 3.017 3.647 3.685 2.59.974 5.146 2.172 7.95 2.355.979.064 1.852-.282 2.496-1.024 1.329-1.535 1.49-3.992 1.45-5.924-.038-1.912.502-4.29-.95-5.784-1.8-1.858-4.823-2.206-7.26-2.048-4.89.318-8.023 3.788-7.333 8.74" transform="translate(-192 -66) translate(192 66)"/>
                <path fill="#A3322E" d="M44.364 285.102c3.182-2.99 5.05-9.251 2.013-13.004-1.395-1.725-3.729-1.666-5.765-1.74-2.655-.096-5.654.296-8.103 1.356-2.122.92-3.144 2.209-3.474 4.514-.29 2.038-.49 5.013 1.378 6.428 1.835 1.39 4.767 1.47 6.893 2.218 2.207.777 4.617 1.54 6.843.394 1.218-.627.143-2.461-1.073-1.836-1.637.843-3.629-.055-5.205-.609-1.524-.537-3.105-.883-4.66-1.313-2.287-.633-2.395-2.254-2.152-4.5.258-2.39 1.467-3.293 3.707-3.798 1.658-.375 3.397-.77 5.093-.748 1.645.023 4.087-.258 5.09 1.308 1.939 3.03.287 7.594-2.088 9.827-1 .939.506 2.44 1.503 1.503" transform="translate(-192 -66) translate(192 66)"/>
                <path fill="#A3322E" d="M43.825 271.072c1.627-4.513 2.674-8.9 2.164-13.728-.496-4.677-1.958-9.156-3.76-13.479-.519-1.246-2.577-.699-2.051.565 1.721 4.129 3.202 8.445 3.684 12.914.5 4.64-.526 8.828-2.087 13.162-.465 1.29 1.589 1.845 2.05.566M33.975 271.81c-2.323-2.294-5.325-3.736-7.707-5.954-2.694-2.507-4.073-6.184-4.9-9.683-.313-1.33-2.364-.767-2.049.566.834 3.536 2.232 7.09 4.675 9.845 2.41 2.714 5.908 4.191 8.477 6.73.975.963 2.48-.54 1.504-1.504M38.371 259.353c-.275-5.197-1.986-10.34-4.604-14.825-2.725-4.669-6.804-8.783-10.443-12.747-.928-1.01-2.429.496-1.503 1.505 3.361 3.66 7.136 7.48 9.753 11.72 2.641 4.277 4.405 9.312 4.67 14.347.072 1.36 2.199 1.37 2.127 0M52.387 303.396c-1.425-3.692-3.226-7.213-4.986-10.752-.81-1.63-1.547-3.322-2.568-4.834-.453-.674-.957-1.328-1.54-1.893-.396-.383-1.332-.877-1.448-1.449-.273-1.339-2.323-.772-2.05.565.22 1.091 1.254 1.661 1.994 2.387 1.43 1.4 2.28 3.267 3.153 5.037 1.87 3.8 3.867 7.548 5.395 11.504.487 1.264 2.544.715 2.05-.565M33.932 282.28c-1.625 1.995-2.655 4.273-3.745 6.586-1.02 2.16-2.133 4.293-2.8 6.592-.384 1.318 1.668 1.88 2.05.566.616-2.123 1.644-4.091 2.585-6.085 1.003-2.125 1.917-4.318 3.413-6.156.858-1.052-.638-2.565-1.503-1.504M42.444 275.281c-3.368-.444-6.816-.535-9.73 1.46-1.124.77-.06 2.613 1.072 1.837 2.617-1.793 5.658-1.566 8.658-1.17 1.352.178 1.34-1.95 0-2.127M39.569 323.15c-2.332-6.963-3.655-14.393-.689-21.39.528-1.246-1.302-2.33-1.835-1.074-3.208 7.564-2.067 15.447.474 23.03.433 1.29 2.487.737 2.05-.566" transform="translate(-192 -66) translate(192 66)"/>
                <path fill="#D67B67" d="M117.382 313.344s4.572-2.418 16.781-8.241c12.707-6.06 19.81-11.74 36.24-11.198 16.43.54 26.558 4.164 40.057 3.242 13.498-.922 17.577-8.265 14.833-9.75-2.744-1.486-48.781-11.79-63.81-16.588-14.446-4.613-25.395-9.751-44.163-9.923-23.882-.218-30.202 17.835-33.236 20.138-4.297 3.262 3.652-4.78 12.795 13.082 9.143 17.86 20.503 19.238 20.503 19.238" transform="translate(-192 -66) translate(192 66)"/>
                <path fill="#913933" d="M193.356 295.257c-3.578-.524-7.115-1.306-10.7-1.791-6.072-.822-12.265-.834-18.348-.094-11.98 1.456-23.436 5.79-33.398 12.6-1.122.769-.06 2.613 1.074 1.837 9.85-6.734 21.207-11.065 33.079-12.399 5.769-.647 11.692-.647 17.446.163 3.442.485 6.843 1.23 10.282 1.735 1.339.195 1.916-1.853.565-2.051M222.75 286.104c-11.854-3.505-23.672-6.6-35.768-9.157-1.335-.282-1.905 1.767-.566 2.05 12.097 2.556 23.915 5.652 35.77 9.158 1.314.388 1.875-1.663.565-2.05" transform="translate(-192 -66) translate(192 66)"/>
                <path fill="#F8DA4A" d="M238.19 234.017c0 14.654-11.878 26.532-26.531 26.532-14.654 0-26.533-11.878-26.533-26.532s11.879-26.532 26.533-26.532c14.653 0 26.532 11.878 26.532 26.532" transform="translate(-192 -66) translate(192 66)"/>
                <path fill="#DDA528" d="M212.095 197.465c0 14.655-11.88 26.533-26.532 26.533-14.655 0-26.533-11.878-26.533-26.533 0-14.653 11.878-26.532 26.533-26.532 14.653 0 26.532 11.879 26.532 26.532" transform="translate(-192 -66) translate(192 66)"/>
                <path fill="#F8DA4A" d="M238.241 158.402c0 14.654-11.879 26.532-26.532 26.532s-26.532-11.878-26.532-26.532 11.879-26.532 26.532-26.532 26.532 11.878 26.532 26.532" transform="translate(-192 -66) translate(192 66)"/>
                <g fill="#DDA528" opacity=".4">
                    <path d="M24.49 8.044H3.989C1.987 8.044.365 6.423.365 4.423.365 2.42 1.987.799 3.989.799H24.49c2.001 0 3.623 1.622 3.623 3.624 0 2-1.622 3.621-3.623 3.621M24.49 20.869H3.989c-2.002 0-3.624-1.622-3.624-3.623 0-2.001 1.622-3.623 3.624-3.623H24.49c2.001 0 3.623 1.622 3.623 3.623 0 2.001-1.622 3.623-3.623 3.623" transform="translate(-192 -66) translate(192 66) translate(197.47 147.568)"/>
                </g>
                <g fill="#DDA528" opacity=".4">
                    <path d="M24.49 8.129H3.989C1.987 8.129.365 6.507.365 4.507.365 2.506 1.987.884 3.989.884H24.49c2.001 0 3.623 1.622 3.623 3.623 0 2-1.622 3.622-3.623 3.622M24.49 20.953H3.989c-2.002 0-3.624-1.622-3.624-3.622 0-2 1.622-3.622 3.624-3.622H24.49c2.001 0 3.623 1.621 3.623 3.622 0 2-1.622 3.622-3.623 3.622" transform="translate(-192 -66) translate(192 66) translate(197.47 223.098)"/>
                </g>
                <g fill="#F8DA4A" opacity=".4">
                    <path d="M24.734 7.978H4.23c-2 0-3.622-1.622-3.622-3.622C.609 2.355 2.23.733 4.23.733h20.503c2 0 3.621 1.622 3.621 3.623 0 2-1.621 3.622-3.621 3.622M24.734 20.802H4.23c-2 0-3.622-1.622-3.622-3.622 0-2 1.621-3.622 3.622-3.622h20.503c2 0 3.621 1.621 3.621 3.622 0 2-1.621 3.622-3.621 3.622" transform="translate(-192 -66) translate(192 66) translate(171.08 186.698)"/>
                </g>
            </g>
        </g>
    </g>
</svg>
