<svg xmlns="http://www.w3.org/2000/svg" xmlns:xlink="http://www.w3.org/1999/xlink" width="175" height="137" viewBox="0 0 175 137">
    <defs>
        <path id="ujxewp65za" d="M0.161 0.048L21.034 0.048 21.034 16.847 0.161 16.847z"/>
        <path id="vxf3g139nc" d="M0.066 0.188L18.816 0.188 18.816 15.01 0.066 15.01z"/>
    </defs>
    <g fill="none" fill-rule="evenodd">
        <g>
            <g>
                <g>
                    <path fill="#F0CEC2" d="M132.879 113.41l10.19 5.852c5.374 8.796-4.318 8.54-4.318 8.54l-10.844-5.367 4.972-9.026z" transform="translate(-1056 -2987) translate(183 2986) translate(873 1)"/>
                    <path fill="#614B63" d="M138.75 127.802s-.107 4.797-.105 5.348c0 .552.467 2.16 3.403 3.662l7.707-13.731-7.204-4.119s-.82.689-.411 2.062c.409 1.373 1.317 3.73.383 4.217-.934.487-3.45.407-3.772 2.561" transform="translate(-1056 -2987) translate(183 2986) translate(873 1)"/>
                    <path fill="#331B36" d="M140.326 135.722c.182.147.383.294.608.443l7.766-13.687-.65-.371-7.724 13.615" transform="translate(-1056 -2987) translate(183 2986) translate(873 1)"/>
                    <path fill="#F5C4AE" d="M138.677 131.31c.448.193.899.382 1.347.57.439.188.817-.457.377-.644-.568-.24-1.139-.48-1.707-.723l-.017.797M138.714 129.56c.578.246 1.158.49 1.737.734.438.187.819-.458.378-.645l-2.097-.887c-.008.24-.013.509-.018.797" transform="translate(-1056 -2987) translate(183 2986) translate(873 1)"/>
                    <path fill="#6F4E87" d="M141.74 117.3l-6.552 12.953-24.45-14.716s-2.988-1.84-2.988-8.584c0-6.745.306-37.785.306-37.785l19.238 4.139-2.146 30.58L141.74 117.3z" transform="translate(-1056 -2987) translate(183 2986) translate(873 1)"/>
                    <path fill="#F0CEC2" d="M129.731 99.024l10.934-4.306c10.226 1.294 3.975 8.705 3.975 8.705l-10.76 5.185-4.149-9.584z" transform="translate(-1056 -2987) translate(183 2986) translate(873 1)"/>
                    <path fill="#614B63" d="M144.64 103.423s3.68 3.079 4.112 3.422c.431.344 1.98.984 4.985-.372l-5.914-14.593-7.715 3.055s.025 1.072 1.353 1.61c1.328.537 3.736 1.299 3.534 2.333-.202 1.033-1.836 2.948-.354 4.545" transform="translate(-1056 -2987) translate(183 2986) translate(873 1)"/>
                    <path fill="#331B36" d="M146 92.602c1.938 4.844 3.873 9.69 5.811 14.534.227-.05.469-.114.723-.194l-5.844-14.614-.69.274z" transform="translate(-1056 -2987) translate(183 2986) translate(873 1)"/>
                    <path fill="#F5C4AE" d="M146.72 105.158c.21.177.419.352.618.516l1.337-.725c.424-.229.048-.874-.376-.645-.528.287-1.054.57-1.579.854M145.375 104.035c.184.157.393.331.618.516.568-.307 1.14-.618 1.71-.924.424-.23.046-.875-.378-.648-.647.354-1.3.705-1.95 1.056" transform="translate(-1056 -2987) translate(183 2986) translate(873 1)"/>
                    <path fill="#6F4E87" d="M106.217 69.858s-1.846 29.252-.819 39.356c.359 3.528 3.304 9.927 13.629 7.971 5.258-.996 24.16-8.546 24.16-8.546L136.95 93.31l-14.09 4.105 7.269-21.606-23.913-5.951z" transform="translate(-1056 -2987) translate(183 2986) translate(873 1)"/>
                    <path fill="#2F2031" d="M115.006 71.826c-.965 10.038-2.005 20.075-2.564 30.146-.027.478-.774.481-.747 0 .56-10.071 1.598-20.108 2.563-30.146.046-.474.794-.48.748 0M126.324 87.122l.237-.708c-1.51-.456-3-1.108-3.537-2.732-.319-.954-.23-1.85-.045-2.805.327-1.669.763-3.315 1.159-4.97.112-.467-.608-.664-.72-.198-.481 2.002-1.181 4.067-1.348 6.127-.237 2.927 1.726 4.496 4.254 5.286" transform="translate(-1056 -2987) translate(183 2986) translate(873 1)"/>
                    <path fill="#2F2031" d="M111.412 65.62c-.168 2.416-.344 4.83-.503 7.246-.14 2.124-.208 6.311 2.765 6.657.472.054.477.802 0 .747-2.301-.268-3.362-2.713-3.545-4.764-.14-1.567.07-3.169.178-4.733l.357-5.152c.034-.477.781-.481.748 0" transform="translate(-1056 -2987) translate(183 2986) translate(873 1)"/>
                    <path fill="#6E2E24" d="M147.089 18.58c.733-1.894 3.477-4.231 7.386-2.305 3.828 1.887 3.333 7.02 1.255 8.744-2.217 1.84-4.44 1.63-7.078.566-3.131-1.265-1.563-7.006-1.563-7.006M135.199 17.92s-2.237 2.68-3.803 3.162c-2.227.686-5.147 1.608-7.089 4.816 0 0 .932 5.77 5.417 9.346 4.749 3.787 8.916-13.071 8.093-15.074-.823-2.002-2.618-2.25-2.618-2.25" transform="translate(-1056 -2987) translate(183 2986) translate(873 1)"/>
                    <path fill="#FFA575" d="M128.937 33.824L131.203 29.691 141.175 35.363 137.921 40.169z" transform="translate(-1056 -2987) translate(183 2986) translate(873 1)"/>
                    <g transform="translate(-1056 -2987) translate(183 2986) translate(873 1) translate(152.942 67.814)">
                        <mask id="p3izfwdgnb" fill="#fff">
                            <use xlink:href="#ujxewp65za"/>
                        </mask>
                        <path fill="#FFA575" d="M.161 4.058l5.733 5.051s2.697 5.383 3.56 5.845c.492.264.964.08 1.155-.724.145-.606-.075-1.56-.093-2.759 0 0 4.031 5.165 4.987 5.353 1 .197 1.729-.906 1.238-1.942-.326-.685-3.204-4.184-3.204-4.184s4.11 4.54 5.059 4.692c.83.132 1.406-.678.976-1.64-.186-.415-3.24-3.736-3.337-3.874 0 0 3.123 3.004 3.626 3.178.243.084.59.041.839-.204.248-.246.501-.63.19-1.176-.256-.452-2.308-2.338-3.465-3.376 0 0 2.141.946 2.784 1.15.377.12.887-.535.79-.977-.214-.98-7.637-5.768-7.637-5.768L10.516.048.16 4.058z" mask="url(#p3izfwdgnb)"/>
                    </g>
                    <path fill="#F5C4AE" d="M165.718 69.975s-21.046-24.394-23.683-26.687c-4.425-3.846-19.876-12.442-19.876-12.442l-5.289-8.43 9.505-7.345-6.247-7.295-2.581 1.355c-.659-.66-1.674-.8-2.487-.345-3.518 1.973-12.631 7.16-13.557 8.456-1.15 1.61-2.95 5.058-.805 8.967 2.146 3.909 11.497 20.77 11.497 20.77l-11.65 23.032 31.117 9.887 2.836-15.98 2.108-2.645 15.442 13.875c1.06.951 2.69.865 3.642-.194l2.836 2.376 7.192-7.355z" transform="translate(-1056 -2987) translate(183 2986) translate(873 1)"/>
                    <path fill="#F5C4AE" d="M138.534 40.175l-.956 1.49-10.755-6.848 1.135-1.626c.32-.46.95-.58 1.418-.272 0 0 .938 1.353 3.783 3.227 2.776 1.829 5.073 2.605 5.073 2.605.473.312.608.947.302 1.424" transform="translate(-1056 -2987) translate(183 2986) translate(873 1)"/>
                    <path fill="#BF7756" d="M154.093 63.496c-1.058 1.34-2.376 1.482-3.627 1.048-1.252-.435-2.201-1.603-3.686-2.446-1.484-.844-4.093-.933-4.834-2.415-.49-.983-.392-3.777 3.627-3.24 2.511.334 2.9 1.944 5.288 3.24.755.41 2.057.186 2.9 1.028.843.844.797 2.197.332 2.785M146.688 70.33l.002.006 5.358 4.812c1.059.951 2.69.864 3.642-.194l2.376-2.478s-1.437-2.35-2.894-3.423c-1.455-1.074-2.663-.287-3.889-.287-1.225 0-1.11-.959-2.645-.787-1.532.175-1.95 2.352-1.95 2.352M124.79 45.613c.388.601 2.938 2.095 2.912 4.496-.025 2.402-3.27 3.04-4.828 2.657-1.558-.383-3.96-2.708-4.037-4.164-.076-1.456.92-1.84.971-2.427.051-.588-1.456-4.727.383-5.442 1.84-.715 3.68.613 4.063 1.712.383 1.098.025 2.376.536 3.168M104.365 62.464c.523 1.056 1.123 2.06 1.674 2.59 1.404 1.356 4.852 1.585 7.408.92 2.555-.663 2.58-3.218 1.43-5.39-1.149-2.173-.332-2.99-1.022-6.387-.384-1.893-1.791-3.547-2.962-4.643l-6.528 12.91zM121.552 76.685l10.11 3.213.623-3.517c-.625-1.35-1.434-2.917-2.194-3.86-1.418-1.762-2.242-2.203-3.774-2.606-1.534-.401-2.78-1.744-4.466-1.169-1.353.464-1.176 5.042-.299 7.939M138.662 47.708c1.648.832 3.066.996 3.68 2.99.483 1.572 3.223 2.33 5.74 1.66.513-.136 1.162-.443 1.49-.876-3.607-4.07-6.638-7.413-7.537-8.195-.733-.635-.937-.823-2.155-1.66-.908.534-4.063 4.644-1.218 6.08M115.95 25.634c.844 1.036-.997 3.258 2.147 3.948 1.402.309 2.461.157 3.203-.105l-4.431-7.062s-1.678-.352-1.966.563c-.294.932.205 1.622 1.047 2.656M100.698 26.21c.83 1.509 2.73 4.944 4.753 8.598.662-.563 1.198-1.188 1.303-1.796.306-1.784-.536-1.744-.519-3.161.02-1.42.997-3.107.232-4.274-.648-.987-3.801-4.382-6.461-5.274-.471 1.662-.511 3.711.692 5.906M108.79 12.385c.295 2.154 2.83 2.102 3.942 1.7 1.277-.458 2.299.205 3.96 0 1.659-.203 3.302-2.036 3.302-2.036l-2.448-2.918c-.4-.4-.934-.61-1.472-.61-.346 0-.695.085-1.013.264-1.458.817-3.871 2.185-6.27 3.6" transform="translate(-1056 -2987) translate(183 2986) translate(873 1)"/>
                    <g transform="translate(-1056 -2987) translate(183 2986) translate(873 1) translate(120.062 .06)">
                        <mask id="pppg42gudd" fill="#fff">
                            <use xlink:href="#vxf3g139nc"/>
                        </mask>
                        <path fill="#FFA575" d="M6.313 15.01s5.109-2.938 5.696-3.692c.588-.754 1.048-1.533.907-2.184 0 0 4.573-2.082 5.25-2.35.677-.27 1.073-1.79-.09-2.019-1.162-.23-5.511.83-5.511.83s2.548-3.206 2.893-3.793c.345-.588-.443-2.413-1.992-1.214C11.716 1.942 9.48 4.19 9.48 4.19s.223-1.22-.69-1.788c-.913-.569-1.836.155-1.836.155s-.482-.736-1.198-.717c-.715.019-1.399.616-1.399 1.916L.066 7.716l6.247 7.294z" mask="url(#pppg42gudd)"/>
                    </g>
                    <path fill="#FFA575" d="M150.28 25.844c-.512 1.52-4.863 10.05-10.903 10.715-5.856.644-11.193-4.995-9.258-10.192 1.782-4.782 2.783-7.977 7.236-11.77 2.355-2.008 5.919-2.263 9.98.708 4.06 2.971 4.29 6.542 2.945 10.539" transform="translate(-1056 -2987) translate(183 2986) translate(873 1)"/>
                    <path fill="#6E2E24" d="M138.155 23.155c-.013-1.744.924-3.973.924-3.973-.342 4.748 3.24 4.97 3.24 4.97.012-1.328-.166-2.198-.166-2.198 2.374.92 3.54 8.114.713 10.297-6.052 4.675-5.418 7.702-5.225 7.918 1.438 1.616 4.065 2.43 6.004 3.245 2.228-2.097 2.974-4.51 2.974-4.51.126 2.607-.733 3.999-1.44 5.098 1.25.401 2.89.851 2.89.851 4.389-3.594 2.613-9.046 1.872-11.9-.74-2.853 1.884-3.553 2.103-8.108.22-4.552-2.215-7.944-3.927-9.394-1.872-1.583-4.012-2.241-6.09-2.592-2.079-.35-6.287.409-7.243 3.828-1.144 4.09 3.371 6.468 3.371 6.468" transform="translate(-1056 -2987) translate(183 2986) translate(873 1)"/>
                    <path fill="#2D1230" d="M139.657 26.66c-.21.25-.482.658-.582 1.037-.174.66.71 1.217 1.246.635.22-.238.472-.638.586-.983.261-.781-.712-1.327-1.25-.688" transform="translate(-1056 -2987) translate(183 2986) translate(873 1)"/>
                    <path fill="#BA6B47" d="M136.98 25.556c.22-.397.876-.118.654.284-.12.216-.223.472-.443.609-.214.132-.45.103-.69.131-.558.065-.726.628-.214.906.4.216.12.872-.284.653-.505-.274-.884-.77-.72-1.37.09-.32.304-.603.603-.752.147-.074.306-.113.469-.138.298-.044.457-.02.625-.323" transform="translate(-1056 -2987) translate(183 2986) translate(873 1)"/>
                    <path fill="#6E2E24" d="M141.251 26.273c.013.095-.033-.113-.039-.133-.006-.018-.066-.16-.028-.08-.025-.052-.052-.103-.083-.152-.02-.033-.042-.064-.064-.096.027.039.02.032-.023-.02-.194-.219-.231-.58 0-.792.213-.196.585-.234.793 0 .33.37.5.785.565 1.273.038.292-.285.573-.56.56-.337-.015-.52-.247-.56-.56M135.495 23.033c-.048-.048-.096-.096-.15-.137.091.07-.076-.044-.094-.055-.022-.012-.205-.09-.095-.051-.064-.023-.128-.042-.194-.059-.284-.071-.483-.406-.391-.69.095-.294.384-.467.69-.39.389.097.745.303 1.026.59.206.208.225.586 0 .792-.222.204-.572.223-.792 0" transform="translate(-1056 -2987) translate(183 2986) translate(873 1)"/>
                    <path fill="#331511" d="M125.68 30.008c.159.326.33.665.52 1.003.558-1.868 1.402-3.584 2.54-5.175.302-.424-.395-.823-.692-.407-1.014 1.418-1.803 2.947-2.369 4.579M147.31 30.057c.9 1.665 2.187 3.09 3.104 4.726-.162-.68-.336-1.298-.473-1.829-.048-.179-.08-.348-.1-.51-.423-.6-.854-1.198-1.255-1.82-1.632-2.517-1.749-5.17-1.632-8.086.02-.519-.782-.514-.802 0-.104 2.595-.107 5.176 1.158 7.52M147.952 18.845c.623 1.32.987 2.702 1.094 4.157.038.515-.765.513-.802 0-.097-1.31-.424-2.564-.985-3.752-.219-.464.473-.872.693-.405" transform="translate(-1056 -2987) translate(183 2986) translate(873 1)"/>
                    <path fill="#6E2E24" d="M134.962 18.64s-1.32.805-2.705 2.394c0 0 1.133-7.754 7.65-8.175 6.517-.422-4.945 5.78-4.945 5.78" transform="translate(-1056 -2987) translate(183 2986) translate(873 1)"/>
                    <path fill="#FFF" d="M133.313 28.358c1.194.75 2.27 1.442 3.489 2.209 0 0-1.025 1.235-2.637.18-1.694-1.11-.852-2.39-.852-2.39" transform="translate(-1056 -2987) translate(183 2986) translate(873 1)"/>
                    <path fill="#BA6B47" d="M129.887 32.092c.092.14.186.277.288.411 1.241 1.64 2.99 2.858 4.925 3.533.456.157.65-.566.197-.723-1.841-.64-3.552-1.855-4.678-3.462-.117-.167-.224-.339-.319-.51l-.413.751z" transform="translate(-1056 -2987) translate(183 2986) translate(873 1)"/>
                    <path fill="#734B38" d="M132.878 54.381c.374 4.113.747 8.228 1.123 12.338l.494-2.783v-.002l-.87-9.553c-.044-.475-.792-.478-.747 0M130.485 52.967c.263 2.48.614 4.947 1.055 7.402.084.47-.636.672-.72.199-.453-2.52-.813-5.054-1.082-7.6-.05-.478.697-.475.747 0M111.755 46.186c.252.456.406.732.436.785 1.056-2.03 2.097-4.065 3.126-6.108.217-.428-.428-.807-.645-.376-.96 1.906-1.93 3.806-2.917 5.7M118.224 8.775l6.334 7.697-.587.456c-2.14-2.598-4.28-5.201-6.42-7.799l.673-.354zM109.419 20.67c2.692.916 5.388 1.835 8.083 2.754l-.628-1.001-7.256-2.474c-.456-.157-.65.566-.2.72M114.346 23.601h-4.752c-.481 0-.482-.747 0-.747h4.752c.48 0 .481.747 0 .747M136.612 61.278l.553.499c.368-.463.735-.93 1.089-1.403.286-.386-.362-.76-.646-.378-.324.433-.657.86-.996 1.282M126.446 33.286c1.911 5.52 7.663 7.841 13.145 8.137-.394-.276-.81-.56-1.243-.851-4.481-.509-8.967-2.471-10.863-6.686-.356-.207-.705-.408-1.039-.6M155.69 74.954l.57.478c2.357-2.72 4.783-5.38 7.276-7.981l-.49-.565c-2.524 2.628-4.977 5.318-7.356 8.068" transform="translate(-1056 -2987) translate(183 2986) translate(873 1)"/>
                    <path fill="#2F2031" d="M133.331 94.365c2.187 5.189 4.377 10.38 6.562 15.568l.692-.269c-2.18-5.168-4.357-10.34-6.536-15.508l-.718.21z" transform="translate(-1056 -2987) translate(183 2986) translate(873 1)"/>
                    <path fill="#2F2031" d="M137.228 103.048c-4.334 1.342-8.774 2.427-13.253 3.157-1.937.315-3.9.578-5.865.608-1.3.02-2.757-.005-3.932-.636-.424-.228-.047-.873.377-.645 1.197.643 2.775.57 4.09.52 2.06-.08 4.112-.38 6.142-.74 4.134-.732 8.232-1.742 12.242-2.985.46-.142.657.579.199.72M115.546 104.92l-4.312-.93c-.47-.101-.271-.822.199-.72l4.312.93c.47.101.27.821-.199.72M123.877 97.003c-1.646.66-3.305 1.284-4.953 1.937-.447.177-.641-.545-.199-.72 1.649-.653 3.308-1.278 4.953-1.938.447-.179.64.543.199.72M131.633 128.112l.64.386c2.346-4.411 4.633-8.852 6.807-13.349l-.595-.48c-2.187 4.528-4.489 9.002-6.852 13.443" transform="translate(-1056 -2987) translate(183 2986) translate(873 1)"/>
                    <path fill="#2F2031" d="M134.884 122.566c-3.65-2.119-7.428-4-11.2-5.892-.43-.216-.051-.86.378-.645 3.771 1.892 7.549 3.773 11.2 5.892.415.241.04.887-.378.645" transform="translate(-1056 -2987) translate(183 2986) translate(873 1)"/>
                    <path fill="#2F2031" d="M113.96 117.476l1.36.82h.092c1.17 0 2.434-.128 3.754-.377 3.081-.585 10.606-3.318 16.48-5.547l-.678-.548c-5.784 2.192-13 4.803-15.942 5.36-1.323.252-2.523.364-3.614.364-.508 0-.991-.025-1.452-.072zm12.364-30.36l-3.464 10.298 2.8-.814.057-.795-1.692.493 2.093-6.217.206-2.964z" transform="translate(-1056 -2987) translate(183 2986) translate(873 1)"/>
                    <path fill="#331511" d="M152.045 24.845c-.027.57-.092 1.081-.187 1.542.26.015.513.01.765-.015.082-.45.14-.946.167-1.492.184-3.784-1.387-6.952-3.109-8.925-.241.105-.468.227-.68.364 1.555 1.726 3.228 4.72 3.044 8.526M144.727 33.754c.598 2.357 1.445 4.63.96 7.112.597-.992.869-1.766.921-1.928-.082-1.826-.645-3.577-1.106-5.393-.127-.501-.902-.292-.775.209M133.937 19.399c.296-.246.55-.433.73-.56-.14-1.246-.02-2.482.363-3.675-.446.476-.822.99-1.14 1.51-.113.897-.098 1.806.047 2.725" transform="translate(-1056 -2987) translate(183 2986) translate(873 1)"/>
                    <path fill="#BA6B47" d="M129.909 6.404c.017-.027.03-.06.037-.095.23-.941.366-1.888.411-2.854-.453.433-.76.742-.807.79l-.002.002c-.063.607-.165 1.21-.307 1.81-.01.055-.025.11-.037.165-.107.43.52.535.705.182" transform="translate(-1056 -2987) translate(183 2986) translate(873 1)"/>
                    <path fill="#BA6B47" d="M129.181 6.8c-.676-.07-1.31.012-1.172.872.102.632.572 1.088 1.054 1.466.378.296-.154.822-.528.529-.774-.606-1.46-1.516-1.266-2.56.18-.962 1.061-1.143 1.912-1.054.474.05.479.797 0 .747" transform="translate(-1056 -2987) translate(183 2986) translate(873 1)"/>
                    <path fill="#BA6B47" d="M129.01 6.755c1.011.57 2.87 1.642 3.975 2.434.05-.02.344-.155.773-.35-.952-.724-2.661-1.75-3.85-2.435l-.52-.297c-.05-.027-.1-.044-.146-.05-.352-.037-.6.489-.232.698M127.014 2.613c.314 1.243.374 2.516.406 3.8.013.482.76.482.748 0-.035-1.394-.102-2.772-.461-4.117-.406.1-.69.322-.69.322s0-.003-.003-.005" transform="translate(-1056 -2987) translate(183 2986) translate(873 1)"/>
                    <path fill="#BA6B47" d="M128.054 6.44c-.388.73-1.248.929-1.982.615-.809-.345-1.33-1.14-1.562-1.96-.132-.464.59-.662.72-.2.198.7 1.502 2.44 2.18 1.167.225-.425.87-.047.644.378" transform="translate(-1056 -2987) translate(183 2986) translate(873 1)"/>
                    <path fill="#2D1230" d="M134.63 24.728l-.68-1.074c-.26-.407.387-.782.644-.377l.682 1.073c.258.408-.388.783-.646.378" transform="translate(-1056 -2987) translate(183 2986) translate(873 1)"/>
                    <path fill="#2D1230" d="M134.854 24.9l-1.367-.308c-.469-.105-.27-.826.199-.72l1.366.307c.47.105.27.826-.198.72" transform="translate(-1056 -2987) translate(183 2986) translate(873 1)"/>
                    <path fill="#F5C4AE" d="M49.02 52.65c.191-2.476 2.09-4.35 4.567-4.512.478-.031.481-.779 0-.747-2.908.19-5.09 2.352-5.313 5.258-.037.48.71.478.747 0" transform="translate(-1056 -2987) translate(183 2986) translate(873 1)"/>
                    <path fill="#6E2E24" d="M65.029 35.892s2.421 2.633 2.389 4.076c-.033 1.442-3.052.714-3.052.714l.663-4.79z" transform="translate(-1056 -2987) translate(183 2986) translate(873 1)"/>
                    <path fill="#F5C4AE" d="M42.962 65.527s5.237 20.234 5.927 22.329c.69 2.095 2.759 2.07 4.956 1.558 2.197-.51 25.726-5.722 25.726-5.722s-7.58-32.85-8.216-34.532c-.636-1.683-1.709-2.564-5.963-1.49-4.253 1.072-16.655 3.29-18.88 4.167-3.94 1.552-5.211 8.504-3.55 13.69" transform="translate(-1056 -2987) translate(183 2986) translate(873 1)"/>
                    <path fill="#ED996B" d="M1.76 61.947c.673-.031 4.032.451 4.032.451-1.444-.575-5.043-1.97-5.44-2.305-.48-.405-.376-.853-.228-1.17.148-.315.46-.476.717-.48.532-.011 4.547 1.646 4.547 1.646-.138-.096-4.198-2.075-4.516-2.4-.737-.754-.475-1.713.35-1.876.941-.185 6.532 2.394 6.532 2.394S3.65 55.87 3.065 55.386c-.908-.751-.448-1.852.563-1.987.791-.106 6.631 3.069 6.631 3.069-.573-1.094-1.07-1.708-1.143-2.326-.098-.82.281-1.156.834-1.079.8.112 4.353 3.292 5.574 4.403l18.447 1.916 2.856 12.013s-2.951.905-6.323.136c-5.304-1.21-12.38-3.104-16.4-4.113-5.101-1.28-12-3.613-12.748-4.282-.456-.408.01-1.171.404-1.19M117.416 40.226c-.638.216-3.592 1.886-3.592 1.886 1.137-1.06 3.983-3.668 4.231-4.125.3-.551.04-.93-.213-1.171-.253-.24-.6-.277-.842-.188-.5.183-3.639 3.187-3.639 3.187.095-.14 3.158-3.46 3.336-3.878.412-.97-.18-1.768-1.008-1.62-.945.169-5.215 4.604-5.215 4.604s2.973-3.67 3.342-4.333c.573-1.03-.255-1.888-1.246-1.646-.776.189-5.063 5.27-5.063 5.27.137-1.228.376-1.98.22-2.583-.207-.8-.682-.975-1.169-.702-.704.395-2.859 4.649-3.592 6.127l-16.49 8.49 1.705 12.23s3.079-.23 5.94-2.172c4.502-3.055 10.406-7.391 13.784-9.792 4.287-3.047 9.867-7.727 10.32-8.622.277-.546-.434-1.088-.809-.962" transform="translate(-1056 -2987) translate(183 2986) translate(873 1)"/>
                    <path fill="#F0CEC2" d="M39.147 112.304c-1.477 3.21.197 5.597.197 5.597l7.816 2.557-1.915-10.398-.656-.286s-3.968-.678-5.442 2.53" transform="translate(-1056 -2987) translate(183 2986) translate(873 1)"/>
                    <path fill="#96421B" d="M39.345 117.902s-4 2.647-4.468 2.94c-.467.293-2.077.757-4.912-.928l7.51-13.84 7.114 3.7s.065 1.262-1.315 1.648c-1.38.386-3.858.873-3.772 1.923.085 1.05 1.494 3.135-.157 4.557" transform="translate(-1056 -2987) translate(183 2986) translate(873 1)"/>
                    <path fill="#6E2E24" d="M40.652 112.21c-.309.13-.58.274-.782.438-1.552-.807-3.102-1.611-4.653-2.414l.358-.66c1.692.88 3.386 1.759 5.077 2.636" transform="translate(-1056 -2987) translate(183 2986) translate(873 1)"/>
                    <path fill="#6E2E24" d="M39.217 106.981l-7.413 13.81c-.22-.077-.453-.17-.697-.28 2.483-4.625 4.964-9.25 7.445-13.876l.665.346z" transform="translate(-1056 -2987) translate(183 2986) translate(873 1)"/>
                    <path fill="#331511" d="M36.816 119.573c-.214.142-.429.281-.628.416-.17-.354-.341-.705-.51-1.059-.21-.43.435-.81.645-.376.164.339.326.68.493 1.019M38.188 118.666c-.197.13-.41.272-.632.416-.227-.556-.456-1.11-.685-1.664-.182-.446.54-.637.722-.2.197.484.396.967.595 1.448" transform="translate(-1056 -2987) translate(183 2986) translate(873 1)"/>
                    <path fill="#614B63" d="M85.064 87.396s2.402 33.62 2.044 37.76c-.357 4.138-4.497 7.562-11.088 7.613-5.276.04-25.712-5.55-33.656-7.782-1.713-.482-2.644-2.329-2.015-3.993l4.247-11.218 17.475 3.525 14.767-25.905h8.226z" transform="translate(-1056 -2987) translate(183 2986) translate(873 1)"/>
                    <path fill="#F0CEC2" d="M35.976 115.987c-1.477 3.21.197 5.596.197 5.596l7.816 2.558-1.915-10.398-.656-.286s-3.968-.679-5.442 2.53" transform="translate(-1056 -2987) translate(183 2986) translate(873 1)"/>
                    <path fill="#96421B" d="M36.174 121.584s-4 2.648-4.468 2.941c-.467.293-2.077.756-4.912-.928l7.51-13.84 7.114 3.7s.065 1.262-1.315 1.647c-1.38.386-3.857.874-3.772 1.924.085 1.05 1.495 3.135-.157 4.556" transform="translate(-1056 -2987) translate(183 2986) translate(873 1)"/>
                    <path fill="#6E2E24" d="M36.044 110.663c-2.469 4.605-4.94 9.209-7.41 13.812-.22-.077-.454-.17-.698-.279 2.48-4.626 4.964-9.251 7.448-13.877l.66.344zM33.645 123.257l-.628.413c-.172-.35-.341-.705-.51-1.056-.21-.43.436-.81.645-.376l.493 1.019M35.017 122.35l-.63.419-.687-1.67c-.182-.443.54-.634.722-.196l.595 1.447" transform="translate(-1056 -2987) translate(183 2986) translate(873 1)"/>
                    <path fill="#614B63" d="M54.816 94.058s0 7.083 1.89 13.265l-.945 9.862-14.383-3.73-3.319 8.995c-.312.845.12 1.784.965 2.096l2.2.814c-.64 2.2.686 4.49 2.913 5.029 6.174 1.495 17.35 4.182 19.11 4.475 2.452.409 11.343-1.124 11.7-10.833.358-9.708 1.89-36.635 1.89-36.635l-22.021 6.662z" transform="translate(-1056 -2987) translate(183 2986) translate(873 1)"/>
                    <path fill="#331B36" d="M55.321 116.556L43.22 113.418 43.041 113.886 55.762 117.184 56.245 112.125 55.754 112.025zM76.34 100.67c-.131-.004-.243.093-.25.224-.443 8.2-.955 18.042-1.143 23.138-.145 3.918-1.68 6.503-3.62 8.17.212.04.421.075.623.11 1.689-1.57 3.343-4.148 3.495-8.263.187-5.065.699-14.917 1.143-23.128.008-.136-.1-.247-.236-.25l-.012-.001" transform="translate(-1056 -2987) translate(183 2986) translate(873 1)"/>
                    <path fill="#CF513E" d="M31.65 59.14s15.706-3.321 17.34-3.679c1.636-.357 23.045-4.752 26.213-5.16 3.168-.41 15.686-2.964 15.686-2.964l4.834 15.11-14.159 5.15s3.435 8.552 5.26 20.661c0 0-9.986 2.408-33.388 7.237l-2.382-23.392-15.607 2.328L31.65 59.14z" transform="translate(-1056 -2987) translate(183 2986) translate(873 1)"/>
                    <path fill="#7D2518" d="M69.703 51.287c-1.592 3.741-2.989 7.558-4.19 11.443-.047.152-.156.232-.276.252-.023.007-.045.01-.067.01h-.008c-.124 0-.249-.055-.321-.15 0-.002-.002-.002-.002-.002-.058-.077-.083-.184-.045-.309.052-.172.107-.341.161-.513 1.124-3.582 2.417-7.102 3.87-10.562h.001l.877-.169" transform="translate(-1056 -2987) translate(183 2986) translate(873 1)"/>
                    <path fill="#7D2518" d="M65.237 62.982c-.022.007-.045.01-.067.01h-.008c-.062 0-.124-.02-.191-.065-.045-.03-.088-.06-.133-.087-4.399-2.967-9.7-4.352-13.786-7.809l.936-.194c3.89 3.098 8.82 4.47 12.968 7.181.132.087.264.174.393.264.301.207.152.635-.112.7" transform="translate(-1056 -2987) translate(183 2986) translate(873 1)"/>
                    <path fill="#F5C4AE" d="M52.34 54.765s-1.855-1.271-3.866-.811c-2.013.46-2.604 2.174-2.604 2.174s4.27 5.95 4.577 13.768c.306 7.817-1.043 13.655 2.084 16.714 0 0 3.281-6.023 2.744-16.638-.536-10.615-2.934-15.207-2.934-15.207M70.374 49.662s.486-1.029 2.836-.875c2.35.153 6.17 5.252 7.92 10.64 3.563 10.973 2.777 15.405 2.777 15.405s-5.102-11.95-7.133-15.935c-2.03-3.985-6.4-9.235-6.4-9.235" transform="translate(-1056 -2987) translate(183 2986) translate(873 1)"/>
                    <path fill="#ED996B" d="M65.741 49.087L65.91 52.026 64.147 59.127 53.964 54.432 53 51.108z" transform="translate(-1056 -2987) translate(183 2986) translate(873 1)"/>
                    <path fill="#ED996B" d="M63.528 33.907c.998 1.257 5.789 9.548 3.06 14.978-2.646 5.264-10.28 6.674-13.588 2.223-3.043-4.096-4.159-6.189-4.92-11.99-.403-3.068.302-6.681 5.004-8.472 4.701-1.791 7.823-.041 10.444 3.26" transform="translate(-1056 -2987) translate(183 2986) translate(873 1)"/>
                    <path fill="#6E2E24" d="M57.882 35.317s3.24 1.35 5.68 1.478c4.741.25 2.327-1.268 1.78-1.67 0 0-4.318-5.85-6.19-5.659-3.225.33-3.567.277-3.567.277s-6.025 1.993-6.314 3.371c0 0-.245.39-1.162 2.484-.916 2.094.078 7.604 1.037 9.363 0 0 .706 3.014 3.897 6.25 0 0 1.16-2.367 1.088-4.441-.072-2.074.035-5.213.035-5.213s2.531.202 3.102-2.038c.347-1.361.614-4.202.614-4.202" transform="translate(-1056 -2987) translate(183 2986) translate(873 1)"/>
                    <path fill="#ED996B" d="M56.56 44.15c-.02 1.464-1.107 2.638-2.429 2.62-1.322-.017-2.378-1.22-2.359-2.684.02-1.465 1.107-2.639 2.43-2.621 1.321.017 2.377 1.219 2.358 2.684" transform="translate(-1056 -2987) translate(183 2986) translate(873 1)"/>
                    <path fill="#6E2E24" d="M58.618 34.651l-3.71 2.314-.758 4.5s.298 2.091 1.964 1.682c1.666-.408 1.294-4.27 1.294-4.27l-.002-.003c.426.266 1.004.257 1.388-.054 1.722-1.392-.176-4.169-.176-4.169" transform="translate(-1056 -2987) translate(183 2986) translate(873 1)"/>
                    <path fill="#96421B" d="M53.267 42.584c-.926.892-.772 2.296.258 3.027.393.279.767-.369.377-.645-.649-.461-.662-1.318-.106-1.854.347-.334-.182-.862-.529-.528" transform="translate(-1056 -2987) translate(183 2986) translate(873 1)"/>
                    <path fill="#2D1230" d="M65.505 39.537c.166.28.366.729.402 1.119.062.68-.903 1.081-1.334.419-.177-.271-.36-.708-.415-1.067-.128-.813.922-1.19 1.347-.47" transform="translate(-1056 -2987) translate(183 2986) translate(873 1)"/>
                    <path fill="#96421B" d="M62.49 40.932c-.15-.429-.843-.262-.69.17.082.234.14.504.335.675.19.166.426.176.658.244.54.157.613.74.062.928-.43.147-.263.84.171.692.544-.187 1-.613.937-1.231-.034-.332-.199-.646-.47-.843-.132-.097-.282-.163-.439-.213-.287-.094-.448-.095-.563-.422" transform="translate(-1056 -2987) translate(183 2986) translate(873 1)"/>
                    <path fill="#6E2E24" d="M63.788 38.728c.213-.074.416-.095.598-.058.287.06.62-.083.69-.391.064-.28-.085-.626-.392-.69-.4-.082-.805-.076-1.194.058-.276.096-.488.389-.391.69.088.273.393.494.69.391" transform="translate(-1056 -2987) translate(183 2986) translate(873 1)"/>
                    <path fill="#2D1230" d="M58.529 41.973c.052.322.185.794.408 1.117.387.562 1.385.253 1.293-.533-.038-.32-.178-.773-.364-1.085-.423-.706-1.471-.323-1.337.501" transform="translate(-1056 -2987) translate(183 2986) translate(873 1)"/>
                    <path fill="#6E2E24" d="M58.431 39.483c-.348.194-.642.487-.837.835-.144.256-.07.624.2.767.265.14.615.072.768-.201.015-.027.11-.142.105-.168-.044.056-.053.068-.027.036l.038-.046c.022-.024.045-.048.069-.071.023-.024.047-.046.072-.068.015-.014.106-.072.035-.03-.073.042.026-.016.04-.025.034-.022.069-.041.103-.06.257-.143.363-.517.201-.767-.167-.26-.492-.353-.767-.202" transform="translate(-1056 -2987) translate(183 2986) translate(873 1)"/>
                    <path fill="#FFF" d="M65.642 44.303c-1.302.542-2.477 1.046-3.806 1.599 0 0 .805 1.389 2.57.615 1.854-.814 1.236-2.214 1.236-2.214" transform="translate(-1056 -2987) translate(183 2986) translate(873 1)"/>
                    <path fill="#CF513E" d="M49.285 45.419s5.99-10.013 16.056-10.294c0 0-2.372-4.115-5.262-5.692-2.891-1.577-9.985-.192-12.23 5.218-2.205 5.317 1.436 10.768 1.436 10.768" transform="translate(-1056 -2987) translate(183 2986) translate(873 1)"/>
                    <path fill="#7D2518" d="M53.3 40.599c-.184.176-.363.348-.532.52-1.28-1.3-2.235-2.87-2.556-4.733-.28-1.599-.254-3.4.115-5.071.303-.257.62-.49.948-.702-.597 1.898-.672 4.152-.261 6.003.349 1.569 1.196 2.877 2.287 3.983" transform="translate(-1056 -2987) translate(183 2986) translate(873 1)"/>
                    <path fill="#F5C4AE" d="M53.418 40.49s1.215-7.848 4.764-11.028c3.417-3.061 8.88-2.906 9.077-.567.197 2.342-1.918 6.23-1.918 6.23s-5.717.35-11.923 5.364" transform="translate(-1056 -2987) translate(183 2986) translate(873 1)"/>
                    <path fill="#96421B" d="M71.285 48.98c-.082.045-.162.095-.237.15-.69.506-.655 1.24-.513 1.997l-.732.14c-.155-.852-.204-1.706.418-2.399.21-.234.454-.41.72-.548.132.2.244.421.344.66M53.194 54.59c-.294.06-.576.117-.845.174-1.878-1.91-5.759-1.355-6.504 1.37-.254.053-.52.11-.797.167.695-3.736 5.956-4.51 8.146-1.711" transform="translate(-1056 -2987) translate(183 2986) translate(873 1)"/>
                    <path fill="#7D2518" d="M92.4 63.654l-.707.26c-1.425-5.304-2.967-10.572-4.625-15.808.253-.052.5-.1.737-.147 1.644 5.199 3.178 10.43 4.596 15.695M39.987 73.752l-.742.113c-1.316-5.167-2.628-10.33-3.944-15.496.237-.05.478-.103.73-.155 1.32 5.179 2.635 10.357 3.956 15.538" transform="translate(-1056 -2987) translate(183 2986) translate(873 1)"/>
                    <path fill="#331B36" d="M45.113 114.424c-1.43 3.597-2.743 7.236-3.94 10.915l-.703-.259c1.19-3.654 2.499-7.27 3.916-10.845l.727.19zM48.7 110.603c-.54 1.303-1.079 2.608-1.62 3.91-.181.44-.903.245-.719-.198.533-1.289 1.066-2.574 1.6-3.861l.739.15z" transform="translate(-1056 -2987) translate(183 2986) translate(873 1)"/>
                    <path fill="#96421B" d="M52.62 87.495c-.418-.242-.799-.5-1.098-.72-1.138-.827-1.666-1.92-1.699-3.328-.042-1.995.334-3.958.227-5.975-.09-1.727-.267-3.445-.339-5.169l.743-.11c.1 2.733.458 5.47.32 8.2-.077 1.555-.65 3.49.277 4.9.257.39.82.894 1.48 1.33l.09.872zM10.255 59.492c.122 1.624.654 3.201 2.081 4.119.405.26.774-.39.37-.65-1.191-.766-1.603-2.139-1.704-3.484-.036-.477-.783-.467-.747.015" transform="translate(-1056 -2987) translate(183 2986) translate(873 1)"/>
                    <path fill="#96421B" d="M9.576 61.65c.435-.068.878-.07 1.317-.03.202.018.367-.195.366-.381-.002-.22-.18-.349-.38-.367-.51-.046-1.005-.019-1.51.06-.2.03-.304.284-.256.462.06.214.264.287.463.256M108.594 41.023c-.08 1.353-.458 2.718-1.637 3.513-.397.268-.023.916.377.646 1.412-.952 1.91-2.523 2.008-4.159.028-.48-.72-.478-.748 0" transform="translate(-1056 -2987) translate(183 2986) translate(873 1)"/>
                    <path fill="#96421B" d="M110.256 42.448c-.506-.069-1.003-.088-1.512-.032-.473.051-.479.799 0 .747.436-.048.878-.054 1.314.005.201.028.398-.048.46-.26.05-.175-.062-.433-.262-.46" transform="translate(-1056 -2987) translate(183 2986) translate(873 1)"/>
                    <path fill="#7D2518" d="M59.963 89.453c2.642-5.261 6.134-10.2 7.35-16.054.098-.47-.622-.67-.72-.198-1.203 5.79-4.662 10.67-7.275 15.874-.216.429.429.808.645.378M70.488 75.433l.77-3.678c.097-.47-.623-.67-.722-.199l-.769 3.678c-.098.47.622.67.72.2M57.989 85.338c-1.557 2.383-3.182 4.723-4.873 7.014l-.115-1.103c1.505-2.058 2.95-4.155 4.342-6.288.262-.403.907-.027.646.377" transform="translate(-1056 -2987) translate(183 2986) translate(873 1)"/>
                    <path fill="#96421B" d="M65.85 50.98c-1.682.882-3.555 1.044-5.445 1.027-.484-.005-.484-.752 0-.75 1.816.02 3.629-.107 5.248-1.016.052-.028.1-.057.15-.087l.047.827z" transform="translate(-1056 -2987) translate(183 2986) translate(873 1)"/>
                </g>
            </g>
        </g>
    </g>
</svg>
