<svg xmlns="http://www.w3.org/2000/svg" xmlns:xlink="http://www.w3.org/1999/xlink" width="630" height="449" viewBox="0 0 630 449">
    <defs>
        <path id="mvmekruvsa" d="M14.605 15.568S3.834 18.134 1.115 26.294c-1.88 5.64.111 9.509 3.097 11.831 5.466 4.253 16.363 5.97 31.455 3.814 15.093-2.156 42.129.911 53.572 2.53 11.444 1.617 18.428-.079 22.704-4.576 3.021-3.177 3.981-13.858-9.14-22.114S67.567 2.853 47.997.973C46.242.804 44.555.725 42.938.724c-16.412 0-25.716 8.2-28.333 14.844"/>
        <path id="t5rjs5i54c" d="M14.605 15.568S3.834 18.134 1.115 26.294c-1.88 5.64.111 9.509 3.097 11.831 5.466 4.253 16.363 5.97 31.455 3.814 15.093-2.156 42.129.911 53.572 2.53 11.444 1.617 18.428-.079 22.704-4.576 3.021-3.177 3.981-13.858-9.14-22.114S67.567 2.853 47.997.973C46.242.804 44.555.725 42.938.724c-16.412 0-25.716 8.2-28.333 14.844"/>
        <path id="x3kp0itqce" d="M0.701 0.023L240.917 0.023 240.917 93.906 0.701 93.906z"/>
        <path id="fukuxrtscg" d="M30.812 31.449s-22.8 5.431-28.56 22.708c-3.98 11.938.236 20.132 6.555 25.048 11.577 9.004 34.646 12.641 66.6 8.076 31.954-4.564 89.19 1.93 113.42 5.354 24.228 3.425 39.016-.164 48.067-9.684 6.395-6.726 8.428-29.341-19.352-46.819C189.763 18.652 142.944 4.528 101.508.548 97.793.192 94.221.023 90.799.023 56.051.022 36.352 17.384 30.812 31.449"/>
        <path id="u4re0sffoi" d="M30.812 31.449s-22.8 5.431-28.56 22.708c-3.98 11.938.236 20.132 6.555 25.048 11.577 9.004 34.646 12.641 66.6 8.076 31.954-4.564 89.19 1.93 113.42 5.354 24.228 3.425 39.016-.164 48.067-9.684 6.395-6.726 8.428-29.341-19.352-46.819C189.763 18.652 142.944 4.528 101.508.548 97.793.192 94.221.023 90.799.023 56.051.022 36.352 17.384 30.812 31.449"/>
        <path id="a143qgj9ek" d="M86.044 15.762C62.932 30.011 34.717 47.541 30.267 50.448c-7.79 5.086-11.945 10.668-12.862 16.715-.363 2.394-13.618 7.385-16.581 17.56-2.961 10.176 1.717 14.304 19.654 14.614 17.936.31 52.967-12.482 66.271-18.064 13.304-5.582 47.103-17.831 58.492-22.716 11.389-4.883 25.497-14.497 24.052-22.483-1.447-7.985-11.114-7.287-11.114-7.287s2.364-19.421-13.12-26.36C141.48.823 137.125.025 132.194.024c-12.69 0-29.2 5.287-46.15 15.738"/>
        <path id="wvah1ktb1m" d="M86.044 15.762C62.932 30.011 34.717 47.541 30.267 50.448c-7.79 5.086-11.945 10.668-12.862 16.715-.363 2.394-13.618 7.385-16.581 17.56-2.961 10.176 1.717 14.304 19.654 14.614 17.936.31 52.967-12.482 66.271-18.064 13.304-5.582 47.103-17.831 58.492-22.716 11.389-4.883 25.497-14.497 24.052-22.483-1.447-7.985-11.114-7.287-11.114-7.287s2.364-19.421-13.12-26.36C141.48.823 137.125.025 132.194.024c-12.69 0-29.2 5.287-46.15 15.738"/>
        <path id="y1zwrcbj9o" d="M86.044 15.762C62.932 30.011 34.717 47.541 30.267 50.448c-7.79 5.086-11.945 10.668-12.862 16.715-.363 2.394-13.618 7.385-16.581 17.56-2.961 10.176 1.717 14.304 19.654 14.614 17.936.31 52.967-12.482 66.271-18.064 13.304-5.582 47.103-17.831 58.492-22.716 11.389-4.883 25.497-14.497 24.052-22.483-1.447-7.985-11.114-7.287-11.114-7.287s2.364-19.421-13.12-26.36C141.48.823 137.125.025 132.194.024c-12.69 0-29.2 5.287-46.15 15.738"/>
        <path id="qkk3fonfuq" d="M0.787 0.627L278.625 0.627 278.625 125.001 0.787 125.001z"/>
    </defs>
    <g fill="none" fill-rule="evenodd">
        <g>
            <g>
                <g>
                    <path fill="#F8DA4A" d="M240.242 69.95c0 16.104-13.054 29.157-29.156 29.157-16.103 0-29.157-13.053-29.157-29.156 0-16.103 13.054-29.156 29.157-29.156 16.102 0 29.156 13.053 29.156 29.156" transform="translate(-596 -4310) translate(596 4310) translate(28 113.373)"/>
                    <path fill="#DDA528" d="M211.565 29.785c0 16.103-13.055 29.156-29.157 29.156-16.103 0-29.156-13.053-29.156-29.156 0-16.103 13.053-29.156 29.156-29.156 16.102 0 29.157 13.053 29.157 29.156" transform="translate(-596 -4310) translate(596 4310) translate(28 113.373)"/>
                    <g fill="#DDA528">
                        <path d="M27.406 8.886H4.876c-2.199 0-3.98-1.782-3.98-3.98 0-2.2 1.781-3.982 3.98-3.982h22.53c2.198 0 3.98 1.781 3.98 3.982 0 2.198-1.782 3.98-3.98 3.98" opacity=".4" transform="translate(-596 -4310) translate(596 4310) translate(28 113.373) translate(195 58)"/>
                        <path d="M27.406 22.978H4.876c-2.199 0-3.98-1.782-3.98-3.98 0-2.2 1.781-3.982 3.98-3.982h22.53c2.198 0 3.98 1.782 3.98 3.981 0 2.2-1.782 3.981-3.98 3.981" transform="translate(-596 -4310) translate(596 4310) translate(28 113.373) translate(195 58)"/>
                    </g>
                    <g fill="#F8DA4A" opacity=".4">
                        <path d="M26.674 8.72H4.144c-2.2 0-3.981-1.783-3.981-3.98 0-2.2 1.782-3.983 3.98-3.983h22.53c2.199 0 3.98 1.782 3.98 3.982 0 2.199-1.781 3.98-3.98 3.98M26.674 22.812H4.144c-2.2 0-3.981-1.782-3.981-3.98 0-2.2 1.782-3.982 3.98-3.982h22.53c2.199 0 3.98 1.782 3.98 3.981 0 2.2-1.781 3.981-3.98 3.981" transform="translate(-596 -4310) translate(596 4310) translate(28 113.373) translate(167 18)"/>
                    </g>
                    <path fill="#6B472F" d="M25.902 260.852c3.738 7.265 9.38 16.021 18.344 16.848.92.085.914-1.354 0-1.438-3.936-.363-7.097-2.632-9.812-5.354-3.095-3.105-5.299-6.91-7.29-10.782-.425-.822-1.665-.096-1.242.726" transform="translate(-596 -4310) translate(596 4310) translate(28 113.373)"/>
                    <path fill="#6B472F" d="M14.703 263.659c4.997 4.334 10.971 7.085 17.673 6.94.693-.015.695-1.093 0-1.078-6.412.138-12.127-2.475-16.91-6.624-.522-.453-1.287.307-.763.762" transform="translate(-596 -4310) translate(596 4310) translate(28 113.373)"/>
                    <path fill="#6B472F" d="M5.9 261.365c1.853 2.909 4.292 5.553 7.43 7.084 3.297 1.609 7.121 2.508 10.472.567.6-.347.058-1.28-.545-.93-3.137 1.817-6.88.796-9.888-.827-2.744-1.482-4.879-3.834-6.539-6.438-.372-.583-1.306-.043-.93.544M34.322 240.233c-.127 5.487 1.971 10.95 5.791 14.902 3.451 3.572 8.89 5.737 10.855 10.57.343.845 1.735.475 1.386-.382-1.924-4.732-6.619-6.993-10.226-10.243-4.172-3.758-6.498-9.243-6.369-14.847.022-.926-1.416-.925-1.437 0M44.012 241.144c.377 4.285 1.062 8.832 3.548 12.46 1.306 1.904 3.039 3.468 4.329 5.394.846 1.265 1.69 2.716 1.719 4.28.015.924 1.453.927 1.437 0-.065-3.736-3.272-6.825-5.522-9.456-2.955-3.456-3.69-8.303-4.074-12.678-.08-.914-1.518-.923-1.437 0" transform="translate(-596 -4310) translate(596 4310) translate(28 113.373)"/>
                    <path fill="#6B472F" d="M48.192 252.35c.982-4.143 3.212-8.103 2.493-12.478-.112-.682-1.15-.393-1.039.287.676 4.115-1.569 8.006-2.493 11.904-.16.675.88.963 1.04.287M70.338 240.84c-.347-.096-.755.032-.878.48-1.89 6.862-7.071 12.087-11.987 16.956-2.547 2.522-5.138 5.012-7.465 7.743-2.542 2.983-5.34 7.12-7.143 10.597-3.758 7.248-6.235 13.736-7.473 18.175-.19.676 3.579.481 3.717-.019 2.104-7.58 7.504-20.909 12.529-27.043 4.467-5.452 9.824-10.12 14.027-15.796 2.294-3.097 4.156-6.501 5.182-10.232.123-.446-.163-.764-.51-.86" transform="translate(-596 -4310) translate(596 4310) translate(28 113.373)"/>
                    <path fill="#6B472F" d="M60.068 239.013c-.374 2.465-.538 4.975-.01 7.43.521 2.428 1.75 4.568 3.377 6.424.458.522 1.218-.243.762-.763-1.508-1.72-2.617-3.699-3.1-5.947-.484-2.254-.333-4.595.01-6.857.104-.679-.935-.972-1.039-.287M48.65 271.56c7.765-.586 15.367-2.503 22.358-5.964 6.187-3.063 11.756-7.267 16.646-12.123 2.626-2.607 5.06-5.4 7.35-8.306.566-.718-.445-1.742-1.017-1.016-8.404 10.654-18.982 19.542-32.143 23.545-4.294 1.306-8.72 2.09-13.194 2.427-.917.07-.925 1.507 0 1.437" transform="translate(-596 -4310) translate(596 4310) translate(28 113.373)"/>
                    <path fill="#6B472F" d="M75.811 262.098c-1.69-6.962 1.39-13.818 5.832-19.065.445-.527-.313-1.293-.763-.763-4.7 5.553-7.896 12.756-6.109 20.114.164.674 1.204.39 1.04-.286M84.956 255.705c4.043-.66 7.89-1.823 11.667-3.4 3.525-1.473 7.084-3.095 9.44-6.23.417-.555-.518-1.093-.931-.544-2.343 3.117-6.155 4.668-9.656 6.088-3.5 1.419-7.08 2.438-10.806 3.046-.684.11-.394 1.15.286 1.04" transform="translate(-596 -4310) translate(596 4310) translate(28 113.373)"/>
                    <path fill="#285377" d="M18.206 263.534c7.386-.252 16.144-1.18 15.775-6.118-.37-4.94-6.855-9.288-14.08-9.878-7.223-.59-15.627 2.654-18.354 6.635-2.728 3.98-.073 8.108 3.833 8.845 3.907.737 6.34.737 12.826.516M17.212 241.125c5.467 4.253 16.363 5.97 31.456 3.814 15.093-2.156 42.128.912 53.57 2.53 11.446 1.617 18.43-.078 22.705-4.575 3.02-3.177 3.98-13.86-9.14-22.115-13.121-8.256-35.236-14.926-54.806-16.806-19.571-1.88-30.517 7.298-33.392 14.595 0 0-10.77 2.566-13.49 10.726-1.88 5.64.112 9.509 3.097 11.83" transform="translate(-596 -4310) translate(596 4310) translate(28 113.373)"/>
                </g>
                <g>
                    <g transform="translate(-596 -4310) translate(596 4310) translate(41 316.373)">
                        <mask id="vm81nubcbb" fill="#fff">
                            <use xlink:href="#mvmekruvsa"/>
                        </mask>
                        <path fill="#557BA6" d="M8.85 16.93c11.96-3.51 24.936-3.099 36.685 1.041 3.395 1.196 6.668 2.711 9.785 4.511.401.231.763-.39.363-.62-10.984-6.34-23.959-9.038-36.565-7.699-3.542.376-7.04 1.071-10.459 2.074-.443.13-.254.824.191.693" mask="url(#vm81nubcbb)"/>
                    </g>
                    <g transform="translate(-596 -4310) translate(596 4310) translate(41 316.373)">
                        <mask id="dyrprtvv4d" fill="#fff">
                            <use xlink:href="#t5rjs5i54c"/>
                        </mask>
                        <path fill="#557BA6" d="M54.749 19.007c2.122 1.99 4.834 3.135 7.739 3.27.462.022.46-.697 0-.718-2.711-.127-5.252-1.203-7.23-3.06-.338-.316-.847.19-.51.508" mask="url(#dyrprtvv4d)"/>
                    </g>
                </g>
                <g>
                    <path fill="#6BBDBA" d="M239.271 92.799c-1.867-3.431-5.128-5.708-8.916-6.554-4.052-.904-8.32-.375-12.313.575-4.125.98-8.175 2.375-12.106 3.953-7.964 3.195-15.494 7.402-22.545 12.28-7.163 4.959-13.835 10.602-20.098 16.65-3.72 3.596-7.297 7.339-10.759 11.186.267-2.461.54-4.922.825-7.381.018-.16-.23-.174-.249-.016-.297 2.569-.582 5.139-.86 7.71-2.292 2.555-4.534 5.155-6.729 7.79-1.359 1.633-2.7 3.28-4.028 4.938-.1.125.107.263.207.139 3.393-4.24 6.884-8.401 10.505-12.448-1.1 10.204-2.045 20.424-2.83 30.657-.986 12.858-1.722 25.736-2.21 38.623-.278 7.325-.473 14.652-.589 21.98-.002.098.128.187.206.102 7.061-7.707 14.123-15.415 21.14-23.163 6.933-7.658 13.823-15.355 20.624-23.13 6.88-7.865 13.668-15.808 20.317-23.868 6.618-8.023 13.098-16.162 19.388-24.447 5.493-7.235 11.746-15.075 12.857-24.41.45-3.77-.002-7.795-1.837-11.166" transform="translate(-596 -4310) translate(596 4310) translate(229 147.373)"/>
                    <path fill="#6BBDBA" d="M182.36 146.212c-.407.78-1.25 1.419-2.102 1.006.62-1.153 1.24-2.304 1.862-3.454.527.727.685 1.596.24 2.448m55.266-116.885c-.063-.094-.125-.186-.19-.278-1.492-2.127-3.623-3.678-6.569-4.13-2.31-.353-4.674.056-6.909.655-2.11.565-4.189 1.279-6.23 2.056-2.314.882-4.583 1.88-6.799 2.979-.104.052-.21.105-.31.158-1.423.71-2.823 1.465-4.202 2.257-5.802 3.34-11.194 7.352-16.218 11.774-.092.078-.184.157-.276.242-1.218 1.075-2.415 2.177-3.59 3.297-6.308 6.012-12.04 12.6-17.454 19.413-.109.135-.213.27-.319.403-5.555 7.018-10.783 14.28-15.994 21.554-4.942 6.9-9.836 13.838-14.68 20.806-2.439-4.773-3.474-10.324-1.069-15.336 2.728-5.683 9.656-10.642 15.952-7.358.187.095.351-.187.164-.285-4.929-2.57-10.485-.183-13.913 3.73-1.776 2.025-3.098 4.497-3.65 7.14-.617 2.945-.175 6.069.78 8.894.408 1.223.923 2.398 1.517 3.536-1.269 1.822-2.535 3.648-3.796 5.477-1.458 2.114-2.91 4.234-4.36 6.355-11.622-8.64-24.34-15.775-37.78-21.17-1.478-.593-2.966-1.16-4.46-1.711 1.468-.524 2.693-1.468 3.745-2.838 1.938-2.527 3.482-5.415 5.16-8.115 7.286-11.724 14.575-23.444 21.861-35.17.357-.572.711-1.142 1.072-1.713 3.051-4.874 6.168-9.727 8.961-14.752 2.887-5.205 5.401-10.721 6.49-16.607.877-4.766.881-9.88-1.322-14.311-.943-1.897-2.32-3.611-4.15-4.72-2.373-1.438-5.152-1.527-7.842-1.287-11.046.983-21.82 4.487-31.668 9.508-9.984 5.087-19.115 11.77-27.302 19.397-6.814 6.346-12.96 13.376-18.623 20.764-1.672 2.175-3.3 4.384-4.89 6.617-7.224 10.137-13.694 20.786-20 31.51-1.295 2.2-2.58 4.405-3.865 6.61-.475.26-.967.493-1.475.689v-5.735c0-.21-.328-.21-.328 0v5.86c-.592.209-1.179.393-1.586.907-.13.167.102.4.23.233.328-.416.84-.636 1.356-.82v2.256c-3.135-.586-6.24-1.63-8.685-3.628-1.609-1.315-2.77-3.026-3.365-5.018-.06-.2-.377-.115-.316.088 1.67 5.569 6.841 7.896 12.366 8.899v2.284c0 .21.328.21.328 0v-2.228c3.304.566 6.71.675 9.555.724l41.454.757c3.425.062 6.854.128 10.281.19 3.347.059 6.756.314 10.1.132.694-.04 1.34-.15 1.95-.32 11.421 4.184 22.385 9.598 32.644 16.14 3.438 2.192 6.791 4.517 10.058 6.952.076.056.181.006.227-.06 2.7-3.952 5.418-7.892 8.147-11.825 2.433 4.523 6.136 8.377 9.978 11.704 5.54 4.795 11.62 8.998 18.007 12.577 3.611 2.022 7.338 3.844 11.153 5.45 1.633.688 3.65 1.216 4.887 2.566.014.01.023.024.033.036-.672 1.236-1.338 2.475-1.999 3.714-.043.082-.02.177.06.226.847.53 1.768.167 2.365-.57.685-.84.84-1.947.314-2.901-.1-.183-.219-.348-.346-.508.406-.747.812-1.495 1.221-2.238 3.855-7.044 7.837-14.016 11.951-20.908 5.333-8.945 10.878-17.761 16.633-26.441 2.85-4.296 5.75-8.56 8.7-12.79.212-.306.428-.615.645-.92.072-.104.144-.21.22-.31 2.55-3.625 5.158-7.211 7.64-10.882 2.736-4.048 5.398-8.306 7.44-12.81.052-.11.101-.222.15-.334 1.656-3.716 2.878-7.596 3.373-11.658.55-4.568.088-10.697-2.638-14.831" transform="translate(-596 -4310) translate(596 4310) translate(229 147.373)"/>
                    <path fill="#557BA6" d="M231.982 56c1.64-.056 3.274-.141 4.91-.24-.05.112-.098.223-.15.335-3.206.19-6.412.32-9.62.318-3.023 0-6.232.089-9.159-.786-1.245-.374-2.353-.961-3.238-1.773-5.677 6.486-11.199 13.11-16.56 19.858.474.655 1.077 1.229 1.864 1.704 1.648 1.007 3.566 1.619 5.408 2.163 1.934.57 3.906 1 5.897 1.318 3.405.544 6.86.803 10.327.888-.075.102-.148.207-.22.312-4.84-.105-9.669-.561-14.343-1.724-1.878-.47-3.742-1.056-5.522-1.812-1.373-.587-2.73-1.351-3.655-2.544l-.783.976c-9.59 12.144-18.656 24.7-27.177 37.617-.116.177-.397.013-.283-.164 4.795-7.27 9.761-14.427 14.901-21.458 4.263-5.834 8.645-11.58 13.14-17.24-1.017-1.484-1.322-3.386-1.758-5.093-.534-2.101-1.072-4.202-1.606-6.303l-4.43-17.368c.091-.085.183-.164.275-.243l5.034 19.732c.527 2.068 1.032 4.139 1.583 6.2.271 1.03.63 1.95 1.15 2.758 4.976-6.258 10.082-12.407 15.327-18.437.396-.46.798-.911 1.2-1.367-.775-.783-1.362-1.757-1.69-2.93-.438-1.577-.513-3.248-.677-4.864-.188-1.885-.374-3.77-.565-5.65l-.943-9.473.311-.157 1.17 11.727c.18 1.813.358 3.625.544 5.435.171 1.65.387 3.382 1.311 4.805.214.33.46.626.724.894 7.335-8.367 14.926-16.516 22.757-24.421.066.092.127.184.19.278-3.543 3.57-7.034 7.192-10.475 10.863-4.156 4.43-8.233 8.937-12.238 13.507 1.733 1.576 4.312 2.084 6.59 2.277 3.471.295 7.001.203 10.48.082" transform="translate(-596 -4310) translate(596 4310) translate(229 147.373)"/>
                    <path fill="#6BBDBA" d="M213.23 209.924l-.158-.288c-.56-.987-1.285-1.918-2.206-2.776-1.158-1.082-2.494-1.77-3.908-2.108-.104-.026-.212-.05-.32-.07-.964-.195-1.96-.23-2.957-.113l.02-.085c.033-.122.062-.24.091-.361.39-1.551.757-3.111 1.088-4.68.925-4.382 1.781-9.201.09-13.514-1.472-3.76-4.848-6.36-8.637-7.531-8.85-2.738-18.167 2.473-24.9 7.836-7.142 5.69-12.799 13.08-17.246 21.009-5.1 9.085-8.702 18.902-12.107 28.715-.329.937-.653 1.878-.974 2.819h67.872c.652-.981.895-2.334 1.216-3.37l.62-2.015c.038-.132.078-.26.12-.387.427-1.391.853-2.776 1.282-4.163.885-2.868 1.865-6.096 2.284-9.312l.05-.39c.373-3.232.157-6.43-1.32-9.216" transform="translate(-596 -4310) translate(596 4310) translate(229 147.373)"/>
                    <path fill="#557BA6" d="M203.793 204.123c-.03.12-.06.239-.092.36-1.747.429-3.448 1.095-5.054 1.94-.59.31-1.157.642-1.71.997-.095.056-.187.114-.283.177-3.628 2.363-6.496 5.555-8.836 9.147-.062.089-.121.18-.176.273-2.017 3.132-3.64 6.554-5.032 9.993-.18.442-.357.884-.531 1.33-.043.105-.085.214-.128.322-1.307 3.346-2.511 6.735-3.726 10.114h-.344c.7-1.933 1.402-3.867 2.11-5.798 2.839-7.774 5.943-15.925 11.88-21.917 1.398-1.406 2.968-2.687 4.659-3.772.046-.033.095-.062.144-.096h.004c2.202-1.4 4.61-2.47 7.115-3.07" transform="translate(-596 -4310) translate(596 4310) translate(229 147.373)"/>
                    <path fill="#557BA6" d="M199.653 225.944l-4.05 11.754h.002c.83.01 1.715-.295 2.508-.509 3.152-.85 6.253-1.953 9.344-2.995 1.16-.39 2.321-.787 3.477-1.189-.042.126-.082.254-.12.386-.934.327-1.872.646-2.809.963-2.583.875-5.169 1.737-7.772 2.554-1.468.46-3.152 1.177-4.72 1.052l-.28.816h-.346c.1-.285.198-.573.295-.858-.432-.07-.855-.207-1.258-.447-4.257-2.523-8.253-5.548-11.973-8.809-.046-.04-.095-.079-.14-.122-.158-.138.074-.37.232-.233.013.01.023.02.036.033 2.366 2.078 4.834 4.035 7.414 5.84 1.301.915 2.628 1.79 3.978 2.63.571.354 1.131.746 1.796.855 1.358-3.933 2.711-7.863 4.07-11.796-.627-.18-1.188-.53-1.733-.954-1.1-.852-2.182-1.727-3.273-2.592l-6.69-5.307c-.059-.046-.115-.092-.174-.137-.164-.13.07-.36.233-.23l.118.095c2.376 1.882 4.75 3.766 7.125 5.647 1.078.856 2.134 1.777 3.258 2.567.413.288.83.471 1.25.573l3.781-10.97c-2.262-2.258-4.454-4.582-6.578-6.965-.036-.039-.068-.078-.105-.118-.055-.06-.052-.134-.019-.189.03-.056.085-.096.144-.096h.003c.037 0 .073.017.105.053.053.058.101.114.154.174 1.63 1.832 3.3 3.628 5.011 5.381.433.443.87.885 1.305 1.325.036.032.07.065.098.094 1.095-3.178 2.19-6.358 3.287-9.538.11.021.217.043.322.07-.944 2.743-1.89 5.49-2.838 8.233-.164.481-.33.963-.498 1.445.104.042.222.042.41-.013.291-.08.586-.308.854-.452 1.144-.603 2.285-1.209 3.43-1.813l4.755-2.517.157.288c-3.153 1.668-6.306 3.337-9.463 5.005-.062.034-.143.027-.196-.026-.026-.026-.056-.053-.082-.082-1.235 3.593-2.475 7.182-3.71 10.77.78.105 1.58-.059 2.405-.396 2.534-1.029 4.973-2.387 7.424-3.599 1.65-.813 3.297-1.632 4.942-2.455l-.048.39c-2.344 1.174-4.698 2.337-7.054 3.494-1.308.643-2.618 1.285-3.933 1.921-.993.481-2.042 1.003-3.166 1.05-.243.01-.472-.01-.695-.05" transform="translate(-596 -4310) translate(596 4310) translate(229 147.373)"/>
                    <path fill="#6B472F" d="M186.207 193.971c7.915 15.381 19.857 33.917 38.837 35.668 1.949.18 1.936-2.864 0-3.043-8.332-.769-15.025-5.57-20.773-11.337-6.552-6.572-11.218-14.628-15.436-22.824-.897-1.742-3.523-.204-2.628 1.536" transform="translate(-596 -4310) translate(596 4310) translate(229 147.373)"/>
                    <path fill="#6B472F" d="M162.498 199.914c10.578 9.175 23.227 14.999 37.416 14.692 1.467-.031 1.472-2.314 0-2.282-13.577.293-25.675-5.24-35.803-14.024-1.104-.958-2.725.649-1.613 1.614" transform="translate(-596 -4310) translate(596 4310) translate(229 147.373)"/>
                    <path fill="#6B472F" d="M143.857 195.056c3.928 6.16 9.09 11.755 15.732 14.998 6.982 3.408 15.078 5.31 22.172 1.201 1.271-.736.122-2.71-1.152-1.97-6.645 3.847-14.57 1.685-20.938-1.75-5.808-3.137-10.329-8.119-13.843-13.63-.787-1.236-2.764-.092-1.97 1.151M204.035 150.317c-.27 11.618 4.171 23.181 12.26 31.551 7.307 7.56 18.82 12.145 22.981 22.378.728 1.79 3.673 1.007 2.935-.81-4.073-10.016-14.014-14.806-21.652-21.686-8.832-7.956-13.756-19.567-13.481-31.433.046-1.959-2.997-1.959-3.043 0M224.549 152.246c.797 9.072 2.248 18.698 7.512 26.378 2.764 4.033 6.433 7.344 9.164 11.424 1.792 2.677 3.58 5.748 3.638 9.058.036 1.957 3.079 1.963 3.044 0-.138-7.907-6.926-14.448-11.691-20.02-6.256-7.316-7.81-17.576-8.624-26.84-.17-1.936-3.215-1.954-3.043 0" transform="translate(-596 -4310) translate(596 4310) translate(229 147.373)"/>
                    <path fill="#6B472F" d="M233.4 175.97c2.08-8.77 6.8-17.153 5.278-26.416-.237-1.446-2.437-.833-2.2.606 1.431 8.713-3.322 16.952-5.279 25.203-.339 1.428 1.861 2.038 2.201.607M280.285 151.604c-.734-.203-1.598.067-1.857 1.013-4 14.527-14.972 25.591-25.38 35.898-5.392 5.34-10.877 10.613-15.805 16.395-5.382 6.315-11.304 15.072-15.122 22.437-7.957 15.344-13.202 29.077-15.822 38.476-.4 1.433 7.576 1.021 7.87-.038 4.454-16.048 15.887-44.267 26.526-57.254 9.455-11.542 20.799-21.429 29.697-33.445 4.856-6.556 8.8-13.764 10.97-21.66.26-.946-.344-1.62-1.077-1.822" transform="translate(-596 -4310) translate(596 4310) translate(229 147.373)"/>
                    <path fill="#6B472F" d="M258.543 147.735c-.792 5.218-1.138 10.531-.021 15.73 1.103 5.142 3.705 9.671 7.149 13.6.97 1.106 2.58-.514 1.614-1.614-3.193-3.642-5.541-7.832-6.563-12.592-1.025-4.77-.705-9.728.02-14.517.22-1.437-1.98-2.056-2.2-.607M234.368 216.642c16.44-1.24 32.537-5.3 47.337-12.627 13.099-6.485 24.89-15.387 35.243-25.666 5.56-5.52 10.708-11.436 15.559-17.585 1.2-1.52-.94-3.688-2.152-2.15-17.794 22.555-40.186 41.372-68.051 49.847-9.091 2.765-18.466 4.423-27.936 5.138-1.94.147-1.956 3.19 0 3.043" transform="translate(-596 -4310) translate(596 4310) translate(229 147.373)"/>
                    <path fill="#6B472F" d="M291.873 196.61c-3.58-14.739 2.94-29.256 12.349-40.365.944-1.115-.663-2.737-1.615-1.614-9.954 11.755-16.72 27.005-12.934 42.585.346 1.427 2.548.823 2.2-.607M311.235 183.073c8.56-1.397 16.705-3.859 24.7-7.199 7.464-3.118 14.997-6.552 19.987-13.189.883-1.174-1.098-2.313-1.97-1.152-4.962 6.601-13.03 9.885-20.446 12.891-7.407 3.003-14.989 5.161-22.877 6.448-1.447.236-.833 2.436.606 2.201" transform="translate(-596 -4310) translate(596 4310) translate(229 147.373)"/>
                    <path fill="#285377" d="M169.914 199.648c15.636-.533 34.178-2.497 33.397-12.953-.78-10.456-14.513-19.664-29.807-20.912-15.295-1.249-33.086 5.618-38.861 14.045-5.774 8.427-.156 17.167 8.116 18.728 8.27 1.561 13.422 1.561 27.155 1.092" transform="translate(-596 -4310) translate(596 4310) translate(229 147.373)"/>
                    <g transform="translate(-596 -4310) translate(596 4310) translate(229 147.373) translate(159 73)">
                        <mask id="3z3dvp3ycf" fill="#fff">
                            <use xlink:href="#x3kp0itqce"/>
                        </mask>
                        <path fill="#285377" d="M8.807 79.205c11.576 9.005 34.646 12.642 66.6 8.076 31.954-4.564 89.19 1.93 113.42 5.355 24.228 3.424 39.015-.165 48.067-9.685 6.394-6.725 8.428-29.341-19.352-46.82C189.763 18.652 142.944 4.529 101.508.55c-41.434-3.98-64.61 15.45-70.696 30.9 0 0-22.8 5.43-28.56 22.708-3.98 11.939.236 20.132 6.555 25.048" mask="url(#3z3dvp3ycf)"/>
                    </g>
                </g>
                <g>
                    <g transform="translate(-596 -4310) translate(596 4310) translate(388 220.373)">
                        <mask id="d6nkgd8ash" fill="#fff">
                            <use xlink:href="#fukuxrtscg"/>
                        </mask>
                        <path fill="#557BA6" d="M18.63 34.333c25.318-7.433 52.794-6.56 77.669 2.205 7.188 2.532 14.115 5.739 20.716 9.549.849.49 1.617-.824.768-1.315C94.528 31.35 67.059 25.64 40.369 28.476c-7.5.796-14.908 2.265-22.144 4.389-.938.276-.538 1.744.405 1.468" mask="url(#d6nkgd8ash)"/>
                    </g>
                    <g transform="translate(-596 -4310) translate(596 4310) translate(388 220.373)">
                        <mask id="zlcu35ybjj" fill="#fff">
                            <use xlink:href="#u4re0sffoi"/>
                        </mask>
                        <path fill="#557BA6" d="M115.805 38.73c4.491 4.212 10.234 6.636 16.385 6.923.978.046.977-1.476 0-1.522-5.74-.268-11.118-2.548-15.31-6.478-.713-.669-1.791.404-1.075 1.076" mask="url(#zlcu35ybjj)"/>
                    </g>
                </g>
                <g>
                    <path fill="#2F30B4" d="M316.36 229.23c-5.149-.715-10.302-1.409-15.458-2.07M392.337 243.1c4.205-31.51 9.98-76.74 14.058-108.93 2.89-22.795 4.929-39.055 4.959-39.274 0-.014-1.286-5.67-3.212-14.15l-.08-.344c-.858-3.776-1.841-8.096-2.893-12.713l-.08-.345c-.838-3.7-1.723-7.588-2.624-11.537l-.08-.344c-.96-4.218-1.933-8.506-2.893-12.714-.023-.114-.05-.229-.08-.343l-2.795-12.298c-.026-.114-.051-.23-.078-.344-1.068-4.68-2.052-9.007-2.897-12.714l-.08-.344c-1.701-7.469-2.808-12.336-2.815-12.346-.026-.046-.02-.033-.032-.02-.024.03-220.911-3.86-227.31-3.967-.051-.002-.104-.002-.15-.002h-.033c-.07 0-.134 0-.2-.003h-.19c-.065 0-.125 0-.186-.004-.007-.02-.017-.039-.024-.059-.026-.043-.016-.033-.032-.014-.021.031-.043.057-.07.09-.14.17-.327.376-.442.547-20.128 29.895-63.375 98.618-63.385 98.684l-.002.023c-.004.006 0 .01 0 .017-1.174 7.77-3.334 22.53-5.933 40.303-4.284 29.322-9.751 66.846-13.917 94.745l313.496 8.4z" transform="translate(-596 -4310) translate(596 4310) translate(0 184.373)"/>
                    <path fill="#F8DA4A" d="M271.048 135.597h-.006l-8.261-.09-2.468-.029-9.488-.105s-.006.003-.013.003c-.007 0-.01 0-.017.004l-.014.003c-.007.003-.011.01-.018.013-.004.003-.011.006-.016.013l-.004.002c-.016.022-.025.051-.026.076-1.727 7.006-3.557 14.004-5.487 20.993-.554 2.002-1.114 4.001-1.684 6-.011.044.007.075.037.092.006.003.015.005.028.008h.003c.003 0 .006.003.013.003l9.565.108 2.463.025 8.188.092c.007 0 .014-.004.024-.007h.013l.004-.003c.03-.01.058-.028.067-.066 1.99-6.995 3.882-14.004 5.672-21.019.512-2.005 1.014-4.01 1.509-6.014.015-.064-.034-.102-.084-.102M357.212 135.844h-.003l-8.424-.091-2.467-.028-9.33-.102h-.012c-.007 0-.011.004-.018.004-.007.002-.01.002-.014.005l-.018.01-.015.013c-.001.002-.004.002-.005.006-.016.023-.028.05-.026.077-1.73 7.004-3.557 14.002-5.486 20.99-.554 2.001-1.115 4-1.685 6.001-.01.041.008.072.037.09.006.005.016.008.026.008l.002.002s.009.004.016.004l9.362.102 2.467.028 8.388.091c.007 0 .014-.004.02-.004l.017-.002h.003c.03-.01.059-.031.067-.066 1.992-6.999 3.882-14.005 5.672-21.02.512-2.004 1.014-4.01 1.51-6.014.015-.067-.035-.1-.084-.105" transform="translate(-596 -4310) translate(596 4310) translate(0 184.373)"/>
                    <path fill="#6BBDBA" d="M382.88 235.306c1.239-2.692 2.254-5.488 3.055-8.342.094-.95.213-1.895.415-2.809.019-.44.036-.882.047-1.324.004-.115.006-.233.006-.347.034-1.51.013-3.023-.055-4.53-.171-3.704-.554-7.706-2.711-10.849-.256-.373-.534-.724-.832-1.052-.075-.082-.152-.164-.227-.242-2.081-2.14-5.044-3.275-8.033-3.445h-.026c-.115-.006-.226-.013-.337-.013-2.144-.069-4.248.348-6.264 1.055-.105.04-.213.076-.321.115-1.718.636-3.363 1.478-4.91 2.41-3.57 2.155-6.732 4.886-9.505 7.977-.078.084-.151.167-.223.25-2.34 2.637-4.405 5.525-6.208 8.534-1.416 2.36-2.674 4.795-3.818 7.285-.05.105-.095.214-.144.318-2.652 5.824-4.69 11.934-6.647 18.027h39.319c2.62-4.257 5.326-8.464 7.42-13.018" transform="translate(-596 -4310) translate(596 4310) translate(0 184.373)"/>
                    <path fill="#2F30B4" d="M260.312 135.478c-2.313 9.076-4.686 18.146-7.12 27.213l2.463.025c2.438-9.067 4.811-18.136 7.126-27.21l-2.469-.028zM346.318 135.724c-2.324 9.073-4.715 18.146-7.166 27.21l2.467.028c2.451-9.066 4.841-18.136 7.166-27.21l-2.467-.028z" transform="translate(-596 -4310) translate(596 4310) translate(0 184.373)"/>
                    <path fill="#006EB7" d="M188.453 95.187c-2.052 10.616-4.035 21.242-5.95 31.891-3.428 19.062-6.636 38.18-9.632 57.351-1.301 8.324-3.49 23.484-5.76 39.518-.146-.007-.291-.01-.434-.014.9-6.467 1.645-11.76 2.06-14.592 2.797-19.174 5.812-38.295 9.044-57.363 3.225-19.03 6.666-38.004 10.32-56.922.043-.22.394-.085.352.131" transform="translate(-596 -4310) translate(596 4310) translate(0 184.373)"/>
                    <path stroke="#006EB7" d="M188.453 95.187c-2.052 10.616-4.035 21.242-5.95 31.891-3.428 19.062-6.636 38.18-9.632 57.351-1.301 8.324-3.49 23.484-5.76 39.518-.146-.007-.291-.01-.434-.014.9-6.467 1.645-11.76 2.06-14.592 2.797-19.174 5.812-38.295 9.044-57.363 3.225-19.03 6.666-38.004 10.32-56.922.043-.22.394-.085.352.131z" transform="translate(-596 -4310) translate(596 4310) translate(0 184.373)"/>
                    <path fill="#006EB7" d="M188.545 95.397c-.122.036-.24.08-.361.118-4.77-17.168-10.777-38.882-12.618-45.758-4.413-16.433-8.654-32.897-12.724-49.389h.18c.066.003.13.003.2.003 2.049 8.298 4.139 16.588 6.273 24.87 3.553 13.782 12.49 46.472 19.05 70.156" transform="translate(-596 -4310) translate(596 4310) translate(0 184.373)"/>
                    <path stroke="#006EB7" d="M188.545 95.397c-.122.036-.24.08-.361.118-4.77-17.168-10.777-38.882-12.618-45.758-4.413-16.433-8.654-32.897-12.724-49.389h.18c.066.003.13.003.2.003 2.049 8.298 4.139 16.588 6.273 24.87 3.553 13.782 12.49 46.472 19.05 70.156z" transform="translate(-596 -4310) translate(596 4310) translate(0 184.373)"/>
                    <path fill="#006EB7" d="M411.289 95.46c-.014.112-.026.228-.04.345-6.342.052-17.005.015-23.347.058-13.808.098-27.613.167-41.415.216-8.827.027-17.653.046-26.476.06-4.491.003-8.988.006-13.478.006-8.187 0-16.371-.006-24.555-.03-13.9-.026-27.797-.078-41.691-.157-11.8-.065-23.6-.147-35.394-.25-5.555-.048-11.111-.103-16.664-.163.024-.111.024-.232-.005-.338 9.845.099 19.69.184 29.537.26 7.226.056 14.454.104 21.68.143 14.193.08 28.39.135 42.589.162 9.06.022 18.122.029 27.185.029 3.398 0 6.8-.003 10.199-.007 9.105-.01 18.207-.032 27.309-.062 13.743-.05 27.486-.118 41.235-.213 6.332-.042 16.995-.002 23.33-.058" transform="translate(-596 -4310) translate(596 4310) translate(0 184.373)"/>
                    <path stroke="#006EB7" d="M411.289 95.46c-.014.112-.026.228-.04.345-6.342.052-17.005.015-23.347.058-13.808.098-27.613.167-41.415.216-8.827.027-17.653.046-26.476.06-4.491.003-8.988.006-13.478.006-8.187 0-16.371-.006-24.555-.03-13.9-.026-27.797-.078-41.691-.157-11.8-.065-23.6-.147-35.394-.25-5.555-.048-11.111-.103-16.664-.163.024-.111.024-.232-.005-.338 9.845.099 19.69.184 29.537.26 7.226.056 14.454.104 21.68.143 14.193.08 28.39.135 42.589.162 9.06.022 18.122.029 27.185.029 3.398 0 6.8-.003 10.199-.007 9.105-.01 18.207-.032 27.309-.062 13.743-.05 27.486-.118 41.235-.213 6.332-.042 16.995-.002 23.33-.058z" transform="translate(-596 -4310) translate(596 4310) translate(0 184.373)"/>
                    <path fill="#006EB7" d="M393.641 17.05c-6.522-.026-15.326-.114-20.898-.12-14.218-.014-28.436-.053-42.648-.116-9.085-.041-18.174-.095-27.26-.15-4.624-.034-9.252-.066-13.877-.102-8.429-.066-16.856-.138-25.283-.227-14.309-.137-28.616-.297-42.919-.488-12.147-.16-24.294-.338-36.437-.53-5.719-.095-11.439-.194-17.155-.299.027-.112.03-.232.003-.338 10.135.178 20.27.341 30.407.495 7.44.115 14.88.22 22.32.318 14.608.19 29.226.361 43.844.498 9.328.096 18.66.175 27.99.247 3.497.03 7.001.052 10.502.076 9.373.061 18.747.113 28.118.157 14.15.058 28.302.098 42.461.113 5.525.008 14.25.1 20.753.122l.08.345" transform="translate(-596 -4310) translate(596 4310) translate(0 184.373)"/>
                    <path stroke="#006EB7" d="M393.641 17.05c-6.522-.026-15.326-.114-20.898-.12-14.218-.014-28.436-.053-42.648-.116-9.085-.041-18.174-.095-27.26-.15-4.624-.034-9.252-.066-13.877-.102-8.429-.066-16.856-.138-25.283-.227-14.309-.137-28.616-.297-42.919-.488-12.147-.16-24.294-.338-36.437-.53-5.719-.095-11.439-.194-17.155-.299.027-.112.03-.232.003-.338 10.135.178 20.27.341 30.407.495 7.44.115 14.88.22 22.32.318 14.608.19 29.226.361 43.844.498 9.328.096 18.66.175 27.99.247 3.497.03 7.001.052 10.502.076 9.373.061 18.747.113 28.118.157 14.15.058 28.302.098 42.461.113 5.525.008 14.25.1 20.753.122l.08.345z" transform="translate(-596 -4310) translate(596 4310) translate(0 184.373)"/>
                    <path fill="#006EB7" d="M396.617 30.108c-6.482-.026-15.054-.11-20.518-.12-14.217-.01-28.435-.054-42.647-.112-9.089-.046-18.174-.096-27.26-.155-4.624-.033-9.252-.065-13.877-.1-8.429-.064-16.856-.136-25.283-.224-14.31-.138-28.616-.302-42.92-.492-12.146-.157-24.293-.334-36.436-.53-5.72-.092-11.439-.194-17.155-.295.027-.113.03-.234.003-.338 10.134.177 20.269.341 30.406.495 7.44.111 14.88.22 22.321.314 14.607.194 29.225.361 43.844.501 9.328.096 18.659.174 27.99.246 3.497.027 7.001.053 10.501.076 9.374.062 18.748.111 28.118.154 14.149.062 28.302.101 42.461.115 5.418.01 13.914.095 20.374.121l.078.344" transform="translate(-596 -4310) translate(596 4310) translate(0 184.373)"/>
                    <path stroke="#006EB7" d="M396.617 30.108c-6.482-.026-15.054-.11-20.518-.12-14.217-.01-28.435-.054-42.647-.112-9.089-.046-18.174-.096-27.26-.155-4.624-.033-9.252-.065-13.877-.1-8.429-.064-16.856-.136-25.283-.224-14.31-.138-28.616-.302-42.92-.492-12.146-.157-24.293-.334-36.436-.53-5.72-.092-11.439-.194-17.155-.295.027-.113.03-.234.003-.338 10.134.177 20.269.341 30.406.495 7.44.111 14.88.22 22.321.314 14.607.194 29.225.361 43.844.501 9.328.096 18.659.174 27.99.246 3.497.027 7.001.053 10.501.076 9.374.062 18.748.111 28.118.154 14.149.062 28.302.101 42.461.115 5.418.01 13.914.095 20.374.121l.078.344z" transform="translate(-596 -4310) translate(596 4310) translate(0 184.373)"/>
                    <path fill="#006EB7" d="M399.492 42.75c-6.418-.03-14.703-.111-20.029-.118-14.219-.013-28.437-.052-42.648-.114-9.086-.043-18.175-.096-27.26-.152-4.625-.032-9.252-.065-13.876-.101-8.431-.066-16.858-.138-25.284-.226-14.31-.138-28.617-.3-42.92-.488-12.146-.161-24.294-.338-36.436-.531-5.72-.095-11.44-.194-17.155-.298.026-.113.029-.234.003-.338 10.134.177 20.268.34 30.406.495 7.44.114 14.881.22 22.32.317 14.608.19 29.227.36 43.844.498 9.328.096 18.659.174 27.991.246 3.497.03 7 .053 10.501.076 9.374.062 18.747.115 28.118.157 14.15.059 28.302.1 42.461.115 5.283.007 13.49.088 19.885.118.029.115.056.23.079.344" transform="translate(-596 -4310) translate(596 4310) translate(0 184.373)"/>
                    <path stroke="#006EB7" d="M399.492 42.75c-6.418-.03-14.703-.111-20.029-.118-14.219-.013-28.437-.052-42.648-.114-9.086-.043-18.175-.096-27.26-.152-4.625-.032-9.252-.065-13.876-.101-8.431-.066-16.858-.138-25.284-.226-14.31-.138-28.617-.3-42.92-.488-12.146-.161-24.294-.338-36.436-.531-5.72-.095-11.44-.194-17.155-.298.026-.113.029-.234.003-.338 10.134.177 20.268.34 30.406.495 7.44.114 14.881.22 22.32.317 14.608.19 29.227.36 43.844.498 9.328.096 18.659.174 27.991.246 3.497.03 7 .053 10.501.076 9.374.062 18.747.115 28.118.157 14.15.059 28.302.1 42.461.115 5.283.007 13.49.088 19.885.118.029.115.056.23.079.344z" transform="translate(-596 -4310) translate(596 4310) translate(0 184.373)"/>
                    <path fill="#006EB7" d="M402.465 55.807c-6.362-.029-14.425-.11-19.646-.118-14.218-.01-28.436-.052-42.648-.11-9.088-.047-18.174-.096-27.26-.155l-13.877-.098c-8.43-.066-16.856-.138-25.283-.227-14.31-.138-28.616-.3-42.92-.49-12.146-.158-24.293-.335-36.436-.532-5.72-.092-11.44-.194-17.155-.295.027-.112.03-.233.003-.338 10.135.177 20.269.341 30.407.495 7.44.111 14.879.22 22.32.314 14.608.194 29.225.362 43.844.502 9.328.095 18.659.174 27.99.246 3.497.026 7 .052 10.502.076 9.373.062 18.747.111 28.118.154 14.149.061 28.302.101 42.46.117 5.176.007 13.167.086 19.502.115l.079.344" transform="translate(-596 -4310) translate(596 4310) translate(0 184.373)"/>
                    <path stroke="#006EB7" d="M402.465 55.807c-6.362-.029-14.425-.11-19.646-.118-14.218-.01-28.436-.052-42.648-.11-9.088-.047-18.174-.096-27.26-.155l-13.877-.098c-8.43-.066-16.856-.138-25.283-.227-14.31-.138-28.616-.3-42.92-.49-12.146-.158-24.293-.335-36.436-.532-5.72-.092-11.44-.194-17.155-.295.027-.112.03-.233.003-.338 10.135.177 20.269.341 30.407.495 7.44.111 14.879.22 22.32.314 14.608.194 29.225.362 43.844.502 9.328.095 18.659.174 27.99.246 3.497.026 7 .052 10.502.076 9.373.062 18.747.111 28.118.154 14.149.061 28.302.101 42.46.117 5.176.007 13.167.086 19.502.115l.079.344z" transform="translate(-596 -4310) translate(596 4310) translate(0 184.373)"/>
                    <path fill="#006EB7" d="M405.169 67.69c-6.254-.034-13.953-.106-19-.113-14.22-.013-28.437-.056-42.648-.115-9.088-.045-18.177-.094-27.26-.15-4.624-.033-9.255-.065-13.877-.102-8.43-.066-16.857-.137-25.283-.226-14.31-.138-28.617-.302-42.92-.488-12.147-.16-24.296-.338-36.436-.532-5.72-.094-11.44-.193-17.155-.297.026-.112.029-.234 0-.338 10.138.176 20.27.34 30.409.495 7.437.111 14.877.22 22.317.317 14.612.191 29.229.361 43.847.5 9.328.094 18.659.172 27.987.244 3.5.031 7.004.053 10.505.075 9.374.063 18.744.113 28.118.155 14.15.062 28.302.101 42.46.118 5.002.007 12.633.08 18.857.111l.079.345" transform="translate(-596 -4310) translate(596 4310) translate(0 184.373)"/>
                    <path stroke="#006EB7" d="M405.169 67.69c-6.254-.034-13.953-.106-19-.113-14.22-.013-28.437-.056-42.648-.115-9.088-.045-18.177-.094-27.26-.15-4.624-.033-9.255-.065-13.877-.102-8.43-.066-16.857-.137-25.283-.226-14.31-.138-28.617-.302-42.92-.488-12.147-.16-24.296-.338-36.436-.532-5.72-.094-11.44-.193-17.155-.297.026-.112.029-.234 0-.338 10.138.176 20.27.34 30.409.495 7.437.111 14.877.22 22.317.317 14.612.191 29.229.361 43.847.5 9.328.094 18.659.172 27.987.244 3.5.031 7.004.053 10.505.075 9.374.063 18.744.113 28.118.155 14.15.062 28.302.101 42.46.118 5.002.007 12.633.08 18.857.111l.079.345z" transform="translate(-596 -4310) translate(596 4310) translate(0 184.373)"/>
                    <path fill="#006EB7" d="M408.141 80.747c-6.182-.033-13.674-.105-18.617-.111-14.22-.01-28.436-.053-42.648-.116-9.089-.042-18.176-.091-27.259-.15-4.624-.033-9.256-.065-13.877-.102-8.43-.065-16.857-.134-25.284-.222-14.309-.138-28.616-.302-42.919-.492-12.15-.158-24.296-.334-36.437-.532-5.719-.091-11.438-.193-17.154-.295.026-.111.03-.232 0-.336 10.136.176 20.271.336 30.41.49 7.435.116 14.876.223 22.315.319 14.612.193 29.23.36 43.848.5 9.328.097 18.66.175 27.987.247 3.5.027 7.004.049 10.504.075 9.374.063 18.745.112 28.12.155 14.148.058 28.301.1 42.46.114 4.9.007 12.321.079 18.472.11.026.117.053.23.08.346" transform="translate(-596 -4310) translate(596 4310) translate(0 184.373)"/>
                    <path stroke="#006EB7" d="M408.141 80.747c-6.182-.033-13.674-.105-18.617-.111-14.22-.01-28.436-.053-42.648-.116-9.089-.042-18.176-.091-27.259-.15-4.624-.033-9.256-.065-13.877-.102-8.43-.065-16.857-.134-25.284-.222-14.309-.138-28.616-.302-42.919-.492-12.15-.158-24.296-.334-36.437-.532-5.719-.091-11.438-.193-17.154-.295.026-.111.03-.232 0-.336 10.136.176 20.271.336 30.41.49 7.435.116 14.876.223 22.315.319 14.612.193 29.23.36 43.848.5 9.328.097 18.66.175 27.987.247 3.5.027 7.004.049 10.504.075 9.374.063 18.745.112 28.12.155 14.148.058 28.301.1 42.46.114 4.9.007 12.321.079 18.472.11.026.117.053.23.08.346z" transform="translate(-596 -4310) translate(596 4310) translate(0 184.373)"/>
                    <path fill="#557BA6" d="M365.276 228.469c-1.849 5.49-3.639 11-5.379 16.529 1.16.085 2.351-.296 3.451-.58 4.907-1.269 9.804-2.564 14.691-3.89.908-.246 1.815-.498 2.723-.745l.167-.045-.012.029c-.027.036-.056.069-.077.108-.036.082-.055.163-.06.24-.047.011-.093.025-.139.038-1.773.486-3.547.97-5.323 1.45-2.497.671-4.998 1.333-7.499 1.988-1.356.357-2.714.712-4.067 1.063-1.102.281-2.222.642-3.363.674-.204.004-.397-.006-.587-.025l-.944 3.02h-.35c.318-1.022.64-2.047.96-3.07-1.639-.31-2.855-1.537-4.06-2.707l-5.855-5.683-6.764-6.565c.05-.105.094-.214.143-.319 2.596 2.52 5.196 5.041 7.791 7.561 1.856 1.804 3.7 3.62 5.573 5.409.855.82 1.772 1.648 2.95 1.944.104.025.21.046.313.065l.918-2.904c1.455-4.578 2.953-9.148 4.487-13.7-.059-.027-.12-.05-.183-.079-1.803-.835-2.963-2.704-4.14-4.218l-4.667-6.014-3.015-3.885c.072-.081.144-.163.222-.248.974 1.258 1.95 2.513 2.927 3.773 1.324 1.707 2.648 3.415 3.973 5.119 1.22 1.573 2.382 3.49 4.008 4.68.318.232.65.41.987.548 2.2-6.523 4.473-13.018 6.827-19.486-.406-.203-.783-.484-1.117-.859-1.16-1.287-2.144-2.775-3.19-4.161l.322-.115c.078.105.16.209.24.315l1.762 2.32c.557.734 1.088 1.615 1.891 2.107.063.04.131.072.196.108.718-1.97 1.44-3.938 2.174-5.905.112 0 .223.005.337.011-.747 2.006-1.487 4.016-2.219 6.025 1.341.528 2.911.112 4.225-.33 2.035-.685 4.052-1.453 6.054-2.249.075.078.151.16.226.243-1.314.514-2.635 1.018-3.96 1.51-1.464.544-2.963 1.194-4.529 1.36-.757.082-1.468.004-2.117-.251-2.347 6.46-4.618 12.948-6.815 19.464 1.558.495 3.265.119 4.852-.376 2.052-.64 4.087-1.33 6.125-1.996l10.043-3.28c0 .113-.003.231-.007.346-2.903.948-5.807 1.899-8.712 2.846-2.359.77-4.713 1.556-7.079 2.31-1.694.542-3.593 1.055-5.329.482" transform="translate(-596 -4310) translate(596 4310) translate(0 184.373)"/>
                    <path fill="#6BBDBA" d="M132.589 258.125c6.906-.206 13.815-.096 20.72-.353 5.806-.215 11.615-.495 17.427-.364.192.005.384.01.576.017l5.287-12.66 4.404-10.544.157-.384 9.532-22.818.212-.508.158-.373c2.16-5.13 4.477-10.237 6.359-15.474.993-2.753 1.757-5.65 1.874-8.561.007-.12.014-.236.014-.351.042-1.763-.161-3.53-.7-5.267-1.264-4.071-4.31-7.387-8.62-8.148-.31-.056-.625-.1-.94-.128-.114-.013-.231-.022-.35-.03-4.251-.304-8.538 1.496-12.196 3.47-1.612.873-3.195 1.798-4.742 2.775-.092.055-.188.114-.28.174-6.793 4.316-12.958 9.592-18.485 15.44-.101.108-.206.22-.304.327-.08.082-.155.16-.226.243-6.191 6.63-11.566 13.972-16.336 21.678-.065.102-.128.203-.19.305-.475.766-.941 1.537-1.403 2.31-4.942 8.292-9.24 16.942-13.294 25.7-.052.108-.101.212-.15.32-.68 1.47-1.348 2.937-2.016 4.409-1.502 3.316-2.99 6.639-4.472 9.964 5.973-.586 11.96-.99 17.984-1.17M210.747 262.888c.915-1.704 1.826-3.41 2.73-5.122 1.836-3.465 3.655-6.942 5.46-10.426 3.593-6.932 7.163-13.888 10.584-20.908 2.619-5.375 5.044-12.025 1.357-17.528-1.53-2.285-3.95-3.658-6.712-3.727-3.34-.078-6.513 1.433-9.4 2.95-10.85 5.697-20.03 14.104-27.568 23.697-7.69 9.784-18.89 32.146-18.898 32.175l42.447-1.11z" transform="translate(-596 -4310) translate(596 4310) translate(0 184.373)"/>
                    <path fill="#557BA6" d="M148.663 232.821c1.053 1.193 2.124 2.373 3.209 3.536.908.971 1.81 1.981 2.888 2.767.423.308.868.563 1.334.76-2.821 5.985-5.6 11.991-8.31 18.028l.355-.006c.938-2.09 1.883-4.177 2.838-6.259 1.784-3.893 3.592-7.774 5.418-11.645.62.219 1.275.328 1.963.292 1.544-.078 3.078-.659 4.56-1.069l9.943-2.753 8.142-2.252.157-.383c-1.53.422-3.064.849-4.595 1.272l-9.63 2.664c-1.631.449-3.263.902-4.896 1.354-1.62.449-3.386 1.134-5.083.721-.145-.036-.285-.085-.427-.134 4.026-8.548 8.129-17.063 12.245-25.569.915.351 1.905.548 2.987.531 1.425-.016 2.828-.331 4.21-.645 1.627-.371 3.253-.747 4.878-1.124 3.252-.761 6.5-1.531 9.745-2.321.104-.026.206-.049.31-.076.053-.124.106-.249.157-.373-5.194 1.272-10.4 2.51-15.617 3.677-2.264.505-4.457.732-6.518.024 2.333-4.822 4.67-9.637 6.997-14.458l3.736-7.735c1.145.416 2.484-.04 3.583-.387 1.76-.557 3.52-1.124 5.276-1.684 3.596-1.15 7.185-2.312 10.777-3.472.007-.118.014-.235.014-.35-2.695.875-5.39 1.744-8.083 2.609-1.76.564-3.517 1.127-5.277 1.688-1.59.511-3.304 1.297-4.985 1.416-.44.029-.813-.033-1.141-.161 3.078-6.365 6.153-12.73 9.227-19.095-.116-.013-.233-.023-.351-.03l-9.174 18.984c-1.036-.583-1.541-1.901-2.143-3.025-.81-1.514-1.646-3.019-2.501-4.51-1.01-1.753-2.05-3.488-3.12-5.204-.092.055-.188.114-.28.173.932 1.492 1.839 2.999 2.724 4.52.944 1.622 1.858 3.258 2.747 4.909.613 1.145 1.144 2.796 2.35 3.462.016.01.036.016.052.025-3.576 7.402-7.148 14.806-10.72 22.213-.587-.229-1.164-.534-1.728-.937-2.212-1.583-3.772-3.907-5.34-6.087-2.955-4.11-5.915-8.224-8.875-12.337-.078.082-.154.161-.225.243 2.589 3.602 5.18 7.204 7.773 10.806 2.233 3.104 4.639 7.08 8.247 8.617-1.384 2.864-2.77 5.728-4.15 8.597-2.72 5.647-5.43 11.3-8.105 16.971-1.14-.485-2.1-1.367-2.953-2.239-1.026-1.042-2.01-2.13-2.992-3.212-2.035-2.251-4.012-4.553-5.926-6.905-2.887-3.543-5.631-7.198-8.23-10.957-.066.101-.128.203-.19.305 2.133 3.077 4.366 6.085 6.693 9.023 1.943 2.454 3.956 4.86 6.03 7.207M130.191 254.17c1.366 1.322 2.753 2.622 4.15 3.912.156-.004.31-.01.465-.012-1.062-.978-2.118-1.964-3.164-2.962-3.568-3.401-7.036-6.905-10.399-10.507-.053.108-.102.213-.15.32 2.953 3.16 5.988 6.245 9.098 9.25" transform="translate(-596 -4310) translate(596 4310) translate(0 184.373)"/>
                    <path fill="#006EB7" d="M282.999 11.15c.015-.13-.197-.17-.287-.065-3.55 4.123-7.06 8.267-10.531 12.438-7.77 9.32-15.358 18.76-22.751 28.31-10.65 13.746-20.9 27.713-30.741 41.89-.326.47-.656.938-.974 1.411-.093.131-.187.266-.277.401.447.012.893.025 1.347.04 17.575.098 35.153.164 52.735.198.02-.143.045-.29.065-.435 2.68-17.312 5.309-34.629 7.6-51.943.863-6.538 1.68-13.077 2.435-19.61.487-4.21.949-8.425 1.379-12.635M384.447 15.178c.015-.13-.195-.17-.285-.066-3.529 4.104-7.027 8.23-10.484 12.386-7.734 9.277-15.287 18.67-22.646 28.175-10.123 13.07-19.888 26.343-29.277 39.802-.103.142-.203.288-.3.436 17.38-.06 34.768.069 52.156-.056.024-.148.038-.507.058-.65 2.465-15.974 4.866-31.954 6.981-47.93.86-6.508 1.673-13.017 2.425-19.521.484-4.19.945-8.387 1.372-12.577" transform="translate(-596 -4310) translate(596 4310) translate(0 184.373)"/>
                    <path fill="#6B472F" d="M48.55 157.138c17.49-13.483 38.874-12.453 55.309-28.372 4.014-3.889 7.375-8.252 10.662-12.546 1.407-1.838-1.188-2.628-2.585-.804-3.632 4.744-7.366 9.574-12.058 13.665-5.026 4.384-10.843 7.362-16.651 9.62-12 4.664-24.766 7.688-35.936 16.3-1.884 1.451-.635 3.597 1.259 2.137" transform="translate(-596 -4310) translate(596 4310) translate(0 184.373)"/>
                    <path fill="#6B472F" d="M94.225 135.908c11.586.277 25.727-6.637 35.094-17.225 1.161-1.311-.32-2.463-1.488-1.144-8.763 9.905-21.812 16.36-32.673 16.1-1.447-.033-2.378 2.235-.933 2.269M72.852 115.589c12.822-4.595 24.794-15.472 29.93-27.36.63-1.46-1.639-1.46-2.27 0-4.656 10.783-15.668 20.982-27.363 25.173-1.555.558-1.875 2.753-.297 2.187" transform="translate(-596 -4310) translate(596 4310) translate(0 184.373)"/>
                    <path fill="#6B472F" d="M74.883 109.798c-8.248-4.192-10.874-14.392-6.664-25.174.569-1.458-1.696-1.463-2.268 0-4.641 11.889-1.612 22.765 7.43 27.36 1.11.565 2.6-1.628 1.502-2.186M35.914 207.478c3.716-10.252 7.76-20.583 10.582-30.767 2.729-9.849 3.479-19.01 2.834-27.942-.625-8.657-2.023-16.865-1.318-26.027.715-9.305 2.61-18.948 5.17-28.646.258-.977-.46-1.242-1.291-1.017-.803-.325-2.53.472-2.885 1.821-2.28 8.622-4.177 17.212-5.363 25.628-1.221 8.676-.952 16.586-.41 24.67.612 9.113.93 18.231-2.285 28.393-1.551 4.905-3.545 9.837-5.51 14.76-2.033 5.097-3.878 10.18-5.78 15.273-4.5 12.042-9.298 24.094-13.67 36.131-.634 1.747 7.59 1.757 8.227 0l11.699-32.277" transform="translate(-596 -4310) translate(596 4310) translate(0 184.373)"/>
                    <path fill="#6B472F" d="M47.369 141.215c23.416-14.973 34.005-39.436 42.058-60.493.743-1.942-2.278-1.95-3.024 0-7.752 20.269-17.713 43.917-40.293 58.355-1.998 1.278-.727 3.409 1.259 2.138M23.603 111.006c1.093 4.616 2.918 8.718 6.387 11.677 3.994 3.409 9.344 5.36 15.897 5.016 1.485-.078 2.426-2.345.933-2.267-11.787.619-18.584-6.26-20.788-15.571-.288-1.22-2.72-.084-2.429 1.145" transform="translate(-596 -4310) translate(596 4310) translate(0 184.373)"/>
                    <path fill="#285377" d="M74.688 120.742c5.464 3.02 11.881 3.488 16.77 2.879 5.126-.641 15.285-1.93 22.821-1.591 7.536.34 15.403.863 28.75-3.033s17.908-7.21 20.093-9.13c2.184-1.918 4.493-6.26 1.066-10.795-3.427-4.535-13.45-11.125-23.514-10.834-10.062.29-29.907 5.563-40.147 8.974-10.24 3.41-24.169 8.734-27.919 14.73-3.395 5.427-.426 7.414 2.08 8.8M17.405 81.163c-.362 2.395-13.618 7.385-16.58 17.56-2.963 10.176 1.716 14.304 19.652 14.615 17.937.309 52.967-12.483 66.272-18.065 13.303-5.582 47.102-17.831 58.492-22.715s25.497-14.498 24.052-22.484c-1.447-7.985-11.115-7.287-11.115-7.287s2.365-19.421-13.119-26.36c-12.79-5.732-35.478-1.177-59.015 13.336-23.112 14.249-51.326 31.779-55.777 34.685-7.79 5.086-11.945 10.668-12.862 16.715" transform="translate(-596 -4310) translate(596 4310) translate(0 184.373)"/>
                </g>
                <g>
                    <g transform="translate(-596 -4310) translate(596 4310) translate(0 198.373)">
                        <mask id="c7a0afqqrl" fill="#fff">
                            <use xlink:href="#a143qgj9ek"/>
                        </mask>
                        <path fill="#557BA6" d="M61.7 59.843c5.8 1 12.152.745 18.887-.792 1.041-.236 1.24-1.695.197-1.458-6.432 1.468-12.54 1.747-18.084.791-.889-.153-1.897 1.304-1 1.459" mask="url(#c7a0afqqrl)"/>
                    </g>
                    <g transform="translate(-596 -4310) translate(596 4310) translate(0 198.373)">
                        <mask id="frqh1bu26n" fill="#fff">
                            <use xlink:href="#wvah1ktb1m"/>
                        </mask>
                        <path fill="#557BA6" d="M77.426 54.497c13.82-1.688 28.078-8.344 42.078-14.494 14.887-6.54 31.074-12.901 44.45-10.86.896.138 1.906-1.318 1-1.456-26.88-4.105-58.444 21.822-86.907 25.298-1.002.123-1.636 1.636-.621 1.512" mask="url(#frqh1bu26n)"/>
                    </g>
                    <g transform="translate(-596 -4310) translate(596 4310) translate(0 198.373)">
                        <mask id="a2rj0n3ktp" fill="#fff">
                            <use xlink:href="#y1zwrcbj9o"/>
                        </mask>
                        <path fill="#557BA6" d="M15.317 66.686c8.364 2.528 17.854 3.128 28.036 1.825 1.014-.13 1.203-1.587.197-1.458-9.884 1.265-19.117.628-27.23-1.825-.838-.253-1.839 1.205-1.003 1.458" mask="url(#a2rj0n3ktp)"/>
                    </g>
                </g>
                <g>
                    <path fill="#F09D7A" d="M101.594 130.995c-.984-1.561.229-31.854 5.027-38.663 4.799-6.808 20.409-21.28 20.409-21.28l11.497 12.805s-18.454 13.052-21.22 20.589c-2.766 7.537-3.078 12.404-5.25 17.305-2.17 4.9-9.48 10.805-10.463 9.244" transform="translate(-596 -4310) translate(596 4310) translate(190 .373)"/>
                    <path fill="#F09D7A" d="M127.96 72.177s-18.948 18.236-20.058 21.547c-1.108 3.31-.277 21.9-1.028 29.817-.75 7.917-7.897 19.477-10.207 18.43-1.06-.48-12.403-48.287-8.898-57.728 3.505-9.442 26.61-26.574 26.61-26.574l13.582 14.508z" transform="translate(-596 -4310) translate(596 4310) translate(190 .373)"/>
                    <path fill="#AD5039" d="M123.718 78.372c-2.671 2.892-5.473 5.672-8.046 8.652-1.322 1.532-2.567 3.126-3.768 4.754-.676.917-1.351 1.837-2.025 2.755-1.09 1.483-1.023 2.739-1 4.536.067 4.888.275 9.818-.265 14.687-.522 4.723-1.017 9.902-2.592 14.409-.497 1.423-2.666.553-2.171-.865.83-2.377 1.098-4.82 1.478-7.292.42-2.73.909-5.447 1.12-8.2.229-2.93.199-5.868.164-8.802-.027-2.271-.33-4.738.033-6.99.313-1.958 1.786-3.44 2.918-4.997 1.23-1.694 2.506-3.357 3.86-4.955 2.67-3.145 5.616-6.05 8.414-9.08 1.012-1.094 2.9.284 1.88 1.388" transform="translate(-596 -4310) translate(596 4310) translate(190 .373)"/>
                    <path fill="#F09D7A" d="M107.54 44.387S75.174 66.13 69.552 78.033c-5.621 11.903 16.203 66.202 18.77 67.706 2.57 1.504 9.912-12.444 6.094-31.317-3.818-18.873-2.707-24.464-1.325-26.949.816-1.469 25.663-21.996 25.663-21.996l-11.214-21.09z" transform="translate(-596 -4310) translate(596 4310) translate(190 .373)"/>
                    <path fill="#AD5039" d="M113.767 70.971c-4.02 3.586-8.085 7.112-12.295 10.477-1.596 1.274-3.2 2.54-4.778 3.836-1.207.992-2.757 1.967-3.753 3.151-1.06 1.26-.63 3.623-.558 5.286.084 1.905.371 3.765.66 5.647 1.141 7.417 1.967 14.896 2.124 22.403.07 3.323-.039 6.635-.155 9.954-.102 2.928-.274 5.873-1.66 8.514-.694 1.32-2.87.466-2.172-.866 1.553-2.955 1.447-6.32 1.573-9.569.15-3.848.155-7.687-.036-11.533-.194-3.914-.558-7.82-1.035-11.708-.474-3.872-1.316-7.744-1.57-11.637-.119-1.832-.24-3.768-.189-5.6.024-.824.177-1.432.743-2.053 2.436-2.665 5.838-4.853 8.662-7.105 4.441-3.543 8.74-7.24 12.978-11.02 1.125-1.005 2.58.826 1.461 1.823" transform="translate(-596 -4310) translate(596 4310) translate(190 .373)"/>
                    <path fill="#F8DA4A" d="M76.892 97.898c0 16.103-13.054 29.156-29.156 29.156-16.103 0-29.157-13.053-29.157-29.156 0-16.103 13.054-29.156 29.157-29.156 16.102 0 29.156 13.053 29.156 29.156" transform="translate(-596 -4310) translate(596 4310) translate(190 .373)"/>
                    <g fill="#DDA528" opacity=".4">
                        <path d="M27 8.833H4.473C2.272 8.833.49 7.05.49 4.853.49 2.653 2.272.87 4.472.87H27c2.199 0 3.98 1.782 3.98 3.982 0 2.198-1.781 3.98-3.98 3.98M27 22.925H4.473c-2.2 0-3.982-1.782-3.982-3.98 0-2.2 1.782-3.982 3.982-3.982H27c2.199 0 3.98 1.783 3.98 3.982 0 2.198-1.781 3.98-3.98 3.98" transform="translate(-596 -4310) translate(596 4310) translate(190 .373) translate(32 86)"/>
                    </g>
                    <g transform="translate(-596 -4310) translate(596 4310) translate(190 .373)">
                        <mask id="vjaib5865r" fill="#fff">
                            <use xlink:href="#qkk3fonfuq"/>
                        </mask>
                        <path fill="#F09D7A" d="M179.47 121.72c-9.555 2.492-18.904 3.578-28.837 3.213-7.871-.29-15.67-1.498-23.436-2.744-17.118-2.747-64.39-9.191-67.616-10.355-3.225-1.163 3.411-8.877 17.928-12.093 14.517-3.216 25.552.13 43.493-1.978 6.288-.739 12.35-1.219 17.697-4.989.517-.365 1.03-.76 1.39-1.284.625-.912.47-1.841-.043-2.751-1.351-2.398-3.028-4.556-4.81-6.647-5.501-6.453-12.036-12.84-19.502-16.977-4.023-2.23-8.634-2.724-13.13-3.181-5.385-.548-10.793-.797-16.203-.83-7.44-.044-15.14.287-22.322 2.4C47.538 68.37 40.436 75.57 23.778 83.093 7.118 90.615-1.11 84.758 1.157 82.71c2.264-2.048 35.948-30.088 45.356-35.066 11.555-6.116 25.19-8.512 37.988-10.433 20.302-3.05 40.514-2.66 60.964-1.893 13.787.516 27.026 3.303 33.71-.08 6.685-3.383 45.72-34.069 47.97-34.358 2.248-.288 11.303-2.914 31.203 18.152 19.916 21.083 20.755 38.813 20.154 40.963-.6 2.152-50.094 35.637-71.184 48.35 0 0-6.619 4.371-10.817 6.438-5.268 2.59-11.288 5.439-17.03 6.936" mask="url(#vjaib5865r)"/>
                    </g>
                    <path fill="#AD5039" d="M72.858 100.022c6.918-2.842 14.333-3.505 21.747-3.54 8.435-.039 16.866.298 25.302.228 1.481-.01 1.823 2.303.32 2.316-7.786.063-15.569-.154-23.353-.218-7.835-.063-15.76.35-23.093 3.36-1.39.571-2.317-1.574-.923-2.146M86.752 59.079c4.653-.643 9.285.13 13.85 1.04 4.824.962 9.56 2.009 14.127 3.89 8.993 3.706 16.55 11.246 22.562 18.725.943 1.175-.883 2.634-1.825 1.46-5.755-7.16-12.982-14.462-21.603-18.013-4.258-1.755-8.665-2.763-13.166-3.665-4.486-.9-9.045-1.754-13.626-1.122-1.487.206-1.813-2.11-.32-2.315M87.404 114.417c7.913.762 15.741 2.229 23.635 3.107 1.494.167 1.211 2.487-.287 2.32-7.894-.878-15.72-2.346-23.634-3.108-1.497-.143-1.213-2.464.286-2.32" transform="translate(-596 -4310) translate(596 4310) translate(190 .373)"/>
                </g>
            </g>
        </g>
    </g>
</svg>
