<svg xmlns="http://www.w3.org/2000/svg" xmlns:xlink="http://www.w3.org/1999/xlink" width="172" height="137" viewBox="0 0 172 137">
    <defs>
        <path id="5k1ujuuica" d="M0.22 0.03L43.51 0.03 43.51 59.556 0.22 59.556z"/>
        <path id="fzvg1bl6bc" d="M0.162 0.015L28.122 0.015 28.122 25.53 0.162 25.53z"/>
    </defs>
    <g fill="none" fill-rule="evenodd">
        <g>
            <g>
                <g>
                    <g transform="translate(-766 -2987) translate(183 2986) rotate(-2 490.58 -16718.459) translate(121.672 37.103)">
                        <mask id="kvz1are04b" fill="#fff">
                            <use xlink:href="#5k1ujuuica"/>
                        </mask>
                        <path fill="#47C0BB" d="M42.643 3.075c-.81-1.488-2.225-2.476-3.867-2.843-1.758-.392-3.61-.162-5.342.249-1.788.425-3.545 1.03-5.25 1.715-3.455 1.385-6.72 3.21-9.78 5.327-3.106 2.15-6 4.598-8.716 7.221-1.615 1.56-3.166 3.183-4.667 4.852.115-1.068.234-2.135.357-3.201.008-.07-.1-.076-.107-.007-.13 1.114-.253 2.229-.374 3.344-.994 1.108-1.966 2.236-2.918 3.38-.59.707-1.172 1.421-1.747 2.14-.044.055.046.114.09.06 1.471-1.838 2.985-3.643 4.556-5.398C4.4 24.34 3.99 28.773 3.65 33.21c-.428 5.577-.748 11.163-.96 16.753-.12 3.177-.204 6.355-.255 9.533 0 .043.056.081.09.044 3.062-3.342 6.125-6.686 9.169-10.047 3.007-3.32 5.996-6.66 8.946-10.032 2.984-3.41 5.928-6.856 8.812-10.352 2.871-3.48 5.682-7.01 8.41-10.604 2.382-3.139 5.094-6.54 5.577-10.588.195-1.635-.001-3.381-.797-4.843" mask="url(#kvz1are04b)"/>
                    </g>
                    <path fill="#47C0BB" d="M139.63 63.346c-.177.338-.542.615-.912.436.269-.5.537-1 .807-1.498.23.315.298.692.104 1.062m23.972-50.699c-.027-.041-.054-.08-.083-.12-.646-.923-1.57-1.596-2.848-1.792-1.003-.153-2.028.024-2.997.284-.916.245-1.817.555-2.703.892-1.004.382-1.987.816-2.948 1.292l-.135.068c-.617.309-1.224.636-1.823.98-2.516 1.449-4.855 3.189-7.034 5.106-.04.034-.08.069-.12.106-.528.466-1.047.944-1.558 1.43-2.735 2.607-5.221 5.465-7.57 8.42l-.138.175c-2.41 3.044-4.677 6.194-6.938 9.349-2.143 2.992-4.266 6.002-6.367 9.024-1.058-2.07-1.507-4.478-.464-6.651 1.183-2.466 4.189-4.617 6.92-3.192.08.041.152-.081.07-.124-2.137-1.114-4.547-.08-6.034 1.618-.77.878-1.344 1.95-1.584 3.098-.267 1.277-.075 2.631.338 3.856.178.53.402 1.041.659 1.534-.55.791-1.1 1.583-1.646 2.376-.633.917-1.263 1.837-1.891 2.757-5.041-3.748-10.559-6.843-16.387-9.183-.642-.257-1.287-.503-1.935-.742.636-.227 1.168-.637 1.625-1.231.84-1.096 1.51-2.349 2.237-3.52l9.482-15.254.465-.744c1.324-2.114 2.676-4.22 3.887-6.398 1.252-2.258 2.343-4.65 2.815-7.204.381-2.067.383-4.285-.573-6.207-.41-.823-1.007-1.566-1.8-2.047-1.03-.624-2.235-.662-3.402-.559-4.79.427-9.464 1.947-13.736 4.125-4.33 2.206-8.29 5.105-11.842 8.413-2.955 2.752-5.62 5.802-8.078 9.006-.725.944-1.431 1.902-2.12 2.87-3.134 4.397-5.94 9.016-8.676 13.668-.561.954-1.118 1.91-1.676 2.867-.206.113-.419.214-.64.299v-2.488c0-.091-.141-.091-.141 0v2.542c-.258.09-.512.17-.689.394-.056.072.044.173.1.1.142-.18.364-.275.589-.355v.978c-1.361-.254-2.707-.706-3.768-1.574-.698-.57-1.201-1.312-1.46-2.176-.025-.087-.163-.05-.136.038.723 2.416 2.967 3.425 5.364 3.86v.991c0 .091.142.091.142 0v-.967c1.433.246 2.91.293 4.144.314l17.98.329 4.46.082c1.452.026 2.93.137 4.38.057.302-.017.582-.064.846-.138 4.955 1.814 9.71 4.163 14.16 7 1.491.952 2.945 1.96 4.363 3.016.033.024.078.002.098-.026 1.171-1.714 2.35-3.423 3.534-5.129 1.055 1.962 2.661 3.634 4.327 5.077 2.403 2.08 5.04 3.902 7.81 5.454 1.568.877 3.184 1.668 4.839 2.365.708.298 1.582.527 2.12 1.113l.014.015c-.292.536-.58 1.074-.868 1.61-.018.037-.008.078.026.1.368.23.768.072 1.027-.248.297-.364.364-.845.136-1.258-.044-.08-.095-.151-.15-.22.176-.325.352-.649.53-.972 1.671-3.055 3.399-6.079 5.183-9.068 2.313-3.88 4.718-7.704 7.215-11.469 1.235-1.863 2.493-3.713 3.773-5.547.092-.134.186-.267.28-.4.031-.045.062-.09.095-.134 1.106-1.573 2.238-3.128 3.314-4.72 1.187-1.756 2.341-3.603 3.227-5.556.023-.048.044-.097.065-.145.718-1.612 1.249-3.295 1.463-5.057.239-1.982.039-4.64-1.144-6.433" transform="translate(-766 -2987) translate(183 2986) rotate(-2 490.58 -16718.459)"/>
                    <path fill="#557BA6" d="M161.153 24.216c.71-.024 1.42-.06 2.13-.103l-.066.145c-1.39.082-2.78.139-4.172.138-1.31 0-2.703.038-3.973-.342-.54-.162-1.02-.416-1.404-.769-2.462 2.814-4.858 5.687-7.183 8.614.206.284.467.533.808.74.716.436 1.547.702 2.346.937.839.248 1.695.434 2.558.572 1.477.236 2.975.348 4.48.385-.033.044-.065.09-.096.135-2.1-.045-4.194-.243-6.221-.748-.815-.203-1.623-.457-2.396-.786-.595-.254-1.184-.585-1.584-1.103l-.34.424c-4.16 5.267-8.092 10.713-11.789 16.316-.05.077-.172.006-.122-.071 2.08-3.153 4.234-6.258 6.463-9.308 1.85-2.53 3.75-5.022 5.7-7.477-.442-.644-.574-1.469-.763-2.21l-.696-2.733-1.922-7.534c.04-.037.08-.07.119-.105l2.184 8.558c.228.897.447 1.796.686 2.69.118.446.273.846.5 1.196 2.157-2.714 4.372-5.381 6.647-7.997.172-.2.347-.395.52-.593-.335-.34-.59-.762-.732-1.27-.19-.685-.223-1.41-.294-2.11-.081-.818-.162-1.635-.245-2.451l-.41-4.109.136-.068.507 5.086c.079.787.155 1.573.236 2.358.074.716.168 1.467.569 2.084.092.143.2.271.314.388 3.182-3.63 6.474-7.164 9.87-10.593.029.04.056.08.083.121-1.537 1.548-3.05 3.119-4.543 4.711-1.803 1.922-3.572 3.877-5.309 5.859.752.684 1.87.904 2.859.988 1.506.128 3.037.088 4.545.035" transform="translate(-766 -2987) translate(183 2986) rotate(-2 490.58 -16718.459)"/>
                    <path fill="#47C0BB" d="M153.019 90.98l-.068-.125c-.243-.427-.558-.831-.957-1.204-.502-.469-1.082-.767-1.695-.914-.045-.011-.092-.021-.14-.03-.417-.085-.85-.1-1.281-.05l.008-.036c.015-.053.027-.104.04-.157.17-.672.328-1.349.472-2.03.4-1.9.772-3.99.038-5.861-.638-1.63-2.102-2.758-3.746-3.267-3.838-1.187-7.88 1.073-10.8 3.399-3.098 2.468-5.551 5.674-7.48 9.113-2.213 3.94-3.775 8.198-5.252 12.455-.142.406-.283.814-.422 1.222h29.439c.283-.425.388-1.012.527-1.461l.27-.874c.016-.057.033-.113.052-.168l.556-1.806c.384-1.243.808-2.644.99-4.039l.022-.169c.162-1.402.068-2.789-.573-3.997" transform="translate(-766 -2987) translate(183 2986) rotate(-2 490.58 -16718.459)"/>
                    <path fill="#557BA6" d="M148.926 88.464c-.013.053-.025.104-.04.157-.758.186-1.495.474-2.192.841-.256.135-.502.279-.742.432l-.122.077c-1.574 1.025-2.818 2.41-3.833 3.968-.027.038-.052.078-.077.118-.874 1.36-1.578 2.843-2.182 4.335-.078.191-.155.384-.23.577l-.056.14c-.567 1.45-1.089 2.92-1.616 4.386h-.15c.305-.839.609-1.677.916-2.515 1.231-3.372 2.577-6.907 5.154-9.506.605-.61 1.286-1.166 2.02-1.636.02-.015.04-.027.062-.042h.002c.955-.607 2-1.072 3.086-1.332" transform="translate(-766 -2987) translate(183 2986) rotate(-2 490.58 -16718.459)"/>
                    <path fill="#2F30B4" d="M103.023 115.403c-2.233-.31-4.468-.61-6.704-.898M135.978 121.42c1.824-13.668 4.33-33.286 6.098-47.248 1.254-9.888 2.138-16.94 2.15-17.036 0-.006-.557-2.46-1.392-6.137l-.035-.15-1.255-5.514-.034-.15c-.364-1.604-.748-3.29-1.139-5.003l-.034-.15-1.255-5.514c-.01-.05-.022-.1-.034-.15l-1.213-5.333-.034-.15c-.464-2.03-.89-3.906-1.257-5.514l-.034-.15c-.738-3.24-1.218-5.35-1.221-5.355-.012-.02-.009-.014-.015-.008-.01.013-95.82-1.675-98.594-1.72-.023-.002-.046-.002-.066-.002H36.6l-.087-.001h-.082c-.029 0-.054 0-.081-.002l-.01-.025c-.011-.019-.007-.015-.014-.006l-.03.039c-.061.073-.142.163-.192.237C27.374 29.345 8.615 59.154 8.61 59.182l-.002.01v.007c-.508 3.37-1.445 9.772-2.573 17.482C4.178 89.399 1.806 105.675 0 117.776l135.978 3.644z" transform="translate(-766 -2987) translate(183 2986) rotate(-2 490.58 -16718.459)"/>
                    <path fill="#F8DA4A" d="M83.37 74.79h-.003l-3.583-.04-1.071-.012-4.115-.045-.006.002-.007.001-.006.002c-.003 0-.005.004-.008.005l-.007.006h-.002c-.007.01-.01.023-.011.034-.75 3.038-1.543 6.074-2.38 9.105-.24.869-.483 1.736-.73 2.603-.005.019.002.033.015.04l.013.004h.001l.005.001 4.15.047 1.068.01 3.551.04.01-.003h.006l.002-.001c.014-.004.025-.012.03-.029.862-3.034 1.683-6.074 2.46-9.117.221-.87.44-1.739.654-2.609.006-.027-.015-.044-.036-.044M120.743 74.897h-.001l-3.654-.04-1.07-.012-4.047-.043h-.006l-.007.001c-.003.001-.005.001-.006.003l-.008.004-.007.005c0 .002-.001.002-.002.003-.007.01-.012.022-.011.033-.75 3.038-1.543 6.074-2.38 9.104-.24.869-.483 1.736-.73 2.604-.005.018.003.031.016.038.002.003.006.004.01.004l.002.002h.007l4.06.045 1.07.012 3.639.04.008-.002.008-.001h.001c.014-.004.025-.014.03-.029.863-3.035 1.683-6.074 2.46-9.117.221-.869.44-1.739.654-2.609.007-.028-.015-.043-.036-.045" transform="translate(-766 -2987) translate(183 2986) rotate(-2 490.58 -16718.459)"/>
                    <path fill="#47C0BB" d="M131.877 118.04c.537-1.169.977-2.382 1.324-3.62.042-.412.093-.821.18-1.218.009-.191.016-.382.02-.574.002-.05.004-.101.004-.15.014-.656.005-1.311-.025-1.966-.073-1.606-.24-3.342-1.175-4.705-.111-.162-.232-.314-.362-.456l-.097-.106c-.903-.928-2.188-1.42-3.485-1.494h-.011c-.05-.003-.098-.006-.147-.006-.93-.03-1.842.151-2.716.458l-.14.05c-.745.276-1.458.641-2.13 1.045-1.547.935-2.92 2.12-4.122 3.46l-.097.108c-1.015 1.145-1.91 2.397-2.693 3.702-.614 1.024-1.16 2.08-1.656 3.16-.02.046-.04.093-.062.138-1.15 2.527-2.034 5.177-2.883 7.82h17.054c1.137-1.847 2.31-3.672 3.219-5.647" transform="translate(-766 -2987) translate(183 2986) rotate(-2 490.58 -16718.459)"/>
                    <path fill="#557BA6" d="M147.13 97.93l-1.757 5.097h.002c.36.005.743-.127 1.087-.22 1.368-.37 2.713-.847 4.053-1.3.503-.168 1.007-.34 1.509-.515-.019.055-.036.11-.053.168-.405.142-.812.28-1.218.417-1.12.38-2.242.754-3.37 1.108-.638.199-1.369.51-2.048.456l-.122.354h-.15l.128-.372c-.187-.03-.37-.09-.546-.194-1.846-1.094-3.58-2.407-5.193-3.82l-.06-.053c-.07-.06.032-.161.1-.101.006.004.01.008.015.014 1.027.901 2.098 1.75 3.216 2.533.565.397 1.14.776 1.726 1.14.248.154.49.324.78.371l1.764-5.116c-.272-.078-.515-.23-.751-.414-.478-.37-.947-.749-1.42-1.124l-2.902-2.302-.075-.06c-.071-.057.03-.156.1-.1l.052.042 3.09 2.45c.468.37.926.77 1.414 1.113.179.125.36.204.541.248.548-1.586 1.094-3.171 1.64-4.758-.98-.98-1.931-1.987-2.852-3.02l-.046-.052c-.024-.027-.022-.058-.008-.083.012-.023.037-.04.062-.04h.002c.015 0 .03.006.045.022l.067.075c.706.795 1.432 1.574 2.174 2.335.187.192.376.384.565.574.016.014.03.029.043.042l1.426-4.138c.047.009.094.019.14.03-.41 1.19-.82 2.382-1.232 3.572l-.216.626c.046.019.097.019.178-.005.126-.036.254-.134.37-.197.497-.261.992-.524 1.488-.786l2.063-1.092.068.126-4.104 2.17c-.027.015-.063.012-.086-.01l-.035-.037c-.536 1.559-1.074 3.115-1.61 4.672.339.045.686-.026 1.044-.172 1.1-.446 2.156-1.035 3.22-1.56.715-.353 1.43-.709 2.144-1.066l-.022.17c-1.016.508-2.037 1.013-3.059 1.515-.567.279-1.136.557-1.706.833-.43.209-.885.435-1.373.455-.105.004-.205-.005-.301-.022" transform="translate(-766 -2987) translate(183 2986) rotate(-2 490.58 -16718.459)"/>
                    <path fill="#2F30B4" d="M78.713 74.739c-1.003 3.936-2.033 7.87-3.089 11.803l1.069.011c1.057-3.932 2.087-7.867 3.09-11.802l-1.07-.012zM116.018 74.845c-1.009 3.936-2.045 7.871-3.108 11.803l1.07.012c1.063-3.932 2.1-7.867 3.108-11.802l-1.07-.013z" transform="translate(-766 -2987) translate(183 2986) rotate(-2 490.58 -16718.459)"/>
                    <path fill="#006EB7" d="M47.544 57.263c-.89 4.604-1.75 9.214-2.58 13.832-1.488 8.269-2.88 16.561-4.179 24.876-.564 3.611-1.514 10.186-2.497 17.14l-.19-.005c.391-2.805.714-5.1.895-6.33 1.213-8.316 2.52-16.61 3.922-24.88 1.399-8.255 2.892-16.484 4.477-24.69.018-.095.17-.037.152.057" transform="translate(-766 -2987) translate(183 2986) rotate(-2 490.58 -16718.459)"/>
                    <path stroke="#006EB7" stroke-width=".5" d="M47.544 57.263c-.89 4.604-1.75 9.214-2.58 13.832-1.488 8.269-2.88 16.561-4.179 24.876-.564 3.611-1.514 10.186-2.497 17.14l-.19-.005c.391-2.805.714-5.1.895-6.33 1.213-8.316 2.52-16.61 3.922-24.88 1.399-8.255 2.892-16.484 4.477-24.69.018-.095.17-.037.152.057z" transform="translate(-766 -2987) translate(183 2986) rotate(-2 490.58 -16718.459)"/>
                    <path fill="#006EB7" d="M47.584 57.354c-.053.015-.104.034-.157.051-2.068-7.447-4.674-16.865-5.473-19.847-1.914-7.129-3.753-14.27-5.519-21.423h.078l.087.001c.888 3.6 1.796 7.195 2.721 10.788 1.541 5.977 5.418 20.157 8.263 30.43" transform="translate(-766 -2987) translate(183 2986) rotate(-2 490.58 -16718.459)"/>
                    <path stroke="#006EB7" stroke-width=".5" d="M47.584 57.354c-.053.015-.104.034-.157.051-2.068-7.447-4.674-16.865-5.473-19.847-1.914-7.129-3.753-14.27-5.519-21.423h.078l.087.001c.888 3.6 1.796 7.195 2.721 10.788 1.541 5.977 5.418 20.157 8.263 30.43z" transform="translate(-766 -2987) translate(183 2986) rotate(-2 490.58 -16718.459)"/>
                    <path fill="#006EB7" d="M144.199 57.381l-.017.15c-2.751.022-7.376.006-10.127.025-5.99.042-11.977.072-17.964.093-3.829.012-7.657.02-11.484.026l-5.846.003c-3.55 0-7.101-.003-10.65-.013-6.03-.011-12.057-.034-18.084-.068-5.118-.029-10.236-.064-15.352-.108-2.41-.022-4.82-.046-7.228-.071.01-.049.01-.101-.003-.147 4.27.043 8.542.08 12.812.113 3.135.024 6.27.045 9.404.062 6.156.034 12.315.058 18.473.07 3.93.01 7.86.013 11.791.013l4.424-.003c3.95-.005 7.897-.015 11.845-.027 5.961-.022 11.922-.052 17.886-.093 2.746-.018 7.372 0 10.12-.025" transform="translate(-766 -2987) translate(183 2986) rotate(-2 490.58 -16718.459)"/>
                    <path stroke="#006EB7" stroke-width=".5" d="M144.199 57.381l-.017.15c-2.751.022-7.376.006-10.127.025-5.99.042-11.977.072-17.964.093-3.829.012-7.657.02-11.484.026l-5.846.003c-3.55 0-7.101-.003-10.65-.013-6.03-.011-12.057-.034-18.084-.068-5.118-.029-10.236-.064-15.352-.108-2.41-.022-4.82-.046-7.228-.071.01-.049.01-.101-.003-.147 4.27.043 8.542.08 12.812.113 3.135.024 6.27.045 9.404.062 6.156.034 12.315.058 18.473.07 3.93.01 7.86.013 11.791.013l4.424-.003c3.95-.005 7.897-.015 11.845-.027 5.961-.022 11.922-.052 17.886-.093 2.746-.018 7.372 0 10.12-.025z" transform="translate(-766 -2987) translate(183 2986) rotate(-2 490.58 -16718.459)"/>
                    <path fill="#006EB7" d="M136.544 23.37c-2.829-.01-6.647-.049-9.064-.052-6.168-.006-12.334-.023-18.499-.05-3.94-.018-7.883-.04-11.823-.065l-6.02-.044c-3.656-.028-7.311-.06-10.966-.098-6.207-.06-12.413-.13-18.616-.212-5.269-.07-10.538-.146-15.805-.23-2.48-.041-4.961-.084-7.44-.13.01-.048.012-.1 0-.146 4.396.077 8.792.148 13.19.215 3.226.05 6.454.095 9.68.137 6.337.083 12.677.157 19.018.217 4.046.041 8.093.075 12.14.106 1.517.013 3.037.023 4.556.033 4.065.027 8.131.05 12.196.068 6.137.026 12.276.043 18.417.05 2.397.003 6.181.043 9.002.053l.034.149" transform="translate(-766 -2987) translate(183 2986) rotate(-2 490.58 -16718.459)"/>
                    <path stroke="#006EB7" stroke-width=".5" d="M136.544 23.37c-2.829-.01-6.647-.049-9.064-.052-6.168-.006-12.334-.023-18.499-.05-3.94-.018-7.883-.04-11.823-.065l-6.02-.044c-3.656-.028-7.311-.06-10.966-.098-6.207-.06-12.413-.13-18.616-.212-5.269-.07-10.538-.146-15.805-.23-2.48-.041-4.961-.084-7.44-.13.01-.048.012-.1 0-.146 4.396.077 8.792.148 13.19.215 3.226.05 6.454.095 9.68.137 6.337.083 12.677.157 19.018.217 4.046.041 8.093.075 12.14.106 1.517.013 3.037.023 4.556.033 4.065.027 8.131.05 12.196.068 6.137.026 12.276.043 18.417.05 2.397.003 6.181.043 9.002.053l.034.149z" transform="translate(-766 -2987) translate(183 2986) rotate(-2 490.58 -16718.459)"/>
                    <path fill="#006EB7" d="M137.835 29.035c-2.812-.012-6.53-.049-8.9-.053-6.167-.004-12.334-.023-18.498-.048-3.942-.02-7.883-.041-11.824-.067l-6.019-.044c-3.656-.027-7.311-.058-10.966-.097-6.207-.06-12.413-.13-18.617-.213-5.268-.068-10.537-.145-15.804-.23-2.48-.04-4.962-.084-7.44-.128.01-.049.012-.101 0-.147 4.396.077 8.792.148 13.19.215 3.226.048 6.453.095 9.68.136 6.337.084 12.677.157 19.018.218 4.046.041 8.093.075 12.14.107l4.555.032c4.066.027 8.132.049 12.197.067 6.137.027 12.275.044 18.417.05 2.35.004 6.035.041 8.837.052l.034.15" transform="translate(-766 -2987) translate(183 2986) rotate(-2 490.58 -16718.459)"/>
                    <path stroke="#006EB7" stroke-width=".5" d="M137.835 29.035c-2.812-.012-6.53-.049-8.9-.053-6.167-.004-12.334-.023-18.498-.048-3.942-.02-7.883-.041-11.824-.067l-6.019-.044c-3.656-.027-7.311-.058-10.966-.097-6.207-.06-12.413-.13-18.617-.213-5.268-.068-10.537-.145-15.804-.23-2.48-.04-4.962-.084-7.44-.128.01-.049.012-.101 0-.147 4.396.077 8.792.148 13.19.215 3.226.048 6.453.095 9.68.136 6.337.084 12.677.157 19.018.218 4.046.041 8.093.075 12.14.107l4.555.032c4.066.027 8.132.049 12.197.067 6.137.027 12.275.044 18.417.05 2.35.004 6.035.041 8.837.052l.034.15z" transform="translate(-766 -2987) translate(183 2986) rotate(-2 490.58 -16718.459)"/>
                    <path fill="#006EB7" d="M139.082 34.518c-2.784-.013-6.378-.049-8.688-.051-6.167-.006-12.334-.023-18.498-.05-3.94-.019-7.883-.041-11.824-.065l-6.02-.044c-3.656-.029-7.31-.06-10.966-.099-6.207-.06-12.412-.129-18.616-.211-5.269-.07-10.537-.147-15.804-.23-2.481-.042-4.962-.085-7.441-.13.011-.048.013-.101.001-.146 4.396.076 8.792.147 13.189.214 3.227.05 6.454.096 9.68.138 6.337.083 12.678.157 19.018.216 4.046.041 8.094.076 12.141.107 1.517.012 3.037.022 4.555.032 4.066.027 8.132.05 12.196.069 6.137.025 12.276.044 18.418.05 2.291.002 5.851.038 8.625.05.012.05.024.1.034.15" transform="translate(-766 -2987) translate(183 2986) rotate(-2 490.58 -16718.459)"/>
                    <path stroke="#006EB7" stroke-width=".5" d="M139.082 34.518c-2.784-.013-6.378-.049-8.688-.051-6.167-.006-12.334-.023-18.498-.05-3.94-.019-7.883-.041-11.824-.065l-6.02-.044c-3.656-.029-7.31-.06-10.966-.099-6.207-.06-12.412-.129-18.616-.211-5.269-.07-10.537-.147-15.804-.23-2.481-.042-4.962-.085-7.441-.13.011-.048.013-.101.001-.146 4.396.076 8.792.147 13.189.214 3.227.05 6.454.096 9.68.138 6.337.083 12.678.157 19.018.216 4.046.041 8.094.076 12.141.107 1.517.012 3.037.022 4.555.032 4.066.027 8.132.05 12.196.069 6.137.025 12.276.044 18.418.05 2.291.002 5.851.038 8.625.05.012.05.024.1.034.15z" transform="translate(-766 -2987) translate(183 2986) rotate(-2 490.58 -16718.459)"/>
                    <path fill="#006EB7" d="M140.371 40.182c-2.76-.013-6.256-.049-8.521-.051-6.167-.005-12.334-.023-18.498-.049-3.943-.02-7.883-.04-11.824-.067l-6.02-.042c-3.656-.029-7.311-.06-10.966-.098-6.207-.06-12.412-.131-18.616-.214-5.269-.068-10.537-.145-15.805-.23-2.48-.04-4.961-.084-7.44-.128.01-.048.012-.1 0-.146 4.397.077 8.792.148 13.19.215 3.227.048 6.454.095 9.68.136 6.337.084 12.677.156 19.018.218 4.046.04 8.093.075 12.14.106 1.518.011 3.037.023 4.556.033 4.066.027 8.131.048 12.196.066 6.137.028 12.276.045 18.417.052 2.245.002 5.71.037 8.46.05.01.05.022.099.033.149" transform="translate(-766 -2987) translate(183 2986) rotate(-2 490.58 -16718.459)"/>
                    <path stroke="#006EB7" stroke-width=".5" d="M140.371 40.182c-2.76-.013-6.256-.049-8.521-.051-6.167-.005-12.334-.023-18.498-.049-3.943-.02-7.883-.04-11.824-.067l-6.02-.042c-3.656-.029-7.311-.06-10.966-.098-6.207-.06-12.412-.131-18.616-.214-5.269-.068-10.537-.145-15.805-.23-2.48-.04-4.961-.084-7.44-.128.01-.048.012-.1 0-.146 4.397.077 8.792.148 13.19.215 3.227.048 6.454.095 9.68.136 6.337.084 12.677.156 19.018.218 4.046.04 8.093.075 12.14.106 1.518.011 3.037.023 4.556.033 4.066.027 8.131.048 12.196.066 6.137.028 12.276.045 18.417.052 2.245.002 5.71.037 8.46.05.01.05.022.099.033.149z" transform="translate(-766 -2987) translate(183 2986) rotate(-2 490.58 -16718.459)"/>
                    <path fill="#006EB7" d="M141.544 45.335c-2.713-.014-6.052-.045-8.241-.048-6.167-.006-12.334-.024-18.499-.05-3.942-.02-7.884-.041-11.823-.065l-6.02-.044c-3.656-.029-7.311-.06-10.966-.098-6.207-.06-12.412-.131-18.616-.212-5.269-.07-10.539-.147-15.805-.23-2.48-.042-4.961-.085-7.44-.13.01-.048.012-.101 0-.146 4.397.076 8.792.147 13.19.214 3.225.049 6.452.095 9.68.138 6.337.083 12.677.157 19.018.216 4.046.041 8.093.076 12.14.107 1.518.013 3.037.023 4.556.033 4.065.027 8.13.048 12.196.066 6.137.027 12.276.044 18.417.052 2.17.002 5.48.034 8.179.048l.034.15" transform="translate(-766 -2987) translate(183 2986) rotate(-2 490.58 -16718.459)"/>
                    <path stroke="#006EB7" stroke-width=".5" d="M141.544 45.335c-2.713-.014-6.052-.045-8.241-.048-6.167-.006-12.334-.024-18.499-.05-3.942-.02-7.884-.041-11.823-.065l-6.02-.044c-3.656-.029-7.311-.06-10.966-.098-6.207-.06-12.412-.131-18.616-.212-5.269-.07-10.539-.147-15.805-.23-2.48-.042-4.961-.085-7.44-.13.01-.048.012-.101 0-.146 4.397.076 8.792.147 13.19.214 3.225.049 6.452.095 9.68.138 6.337.083 12.677.157 19.018.216 4.046.041 8.093.076 12.14.107 1.518.013 3.037.023 4.556.033 4.065.027 8.13.048 12.196.066 6.137.027 12.276.044 18.417.052 2.17.002 5.48.034 8.179.048l.034.15z" transform="translate(-766 -2987) translate(183 2986) rotate(-2 490.58 -16718.459)"/>
                    <path fill="#006EB7" d="M142.833 50.999c-2.68-.014-5.93-.046-8.074-.048-6.169-.005-12.335-.023-18.499-.05-3.942-.019-7.884-.04-11.823-.066l-6.02-.043c-3.656-.029-7.311-.059-10.966-.097-6.207-.06-12.413-.131-18.617-.213-5.27-.069-10.538-.146-15.804-.23-2.48-.04-4.962-.085-7.441-.129.011-.048.013-.1 0-.146 4.397.077 8.793.146 13.19.213 3.226.05 6.453.097 9.68.138 6.337.084 12.678.157 19.019.217 4.046.042 8.093.076 12.139.107 1.518.011 3.038.021 4.556.033 4.066.027 8.13.048 12.197.067 6.137.025 12.275.044 18.417.05 2.125.002 5.344.033 8.012.048l.034.149" transform="translate(-766 -2987) translate(183 2986) rotate(-2 490.58 -16718.459)"/>
                    <path stroke="#006EB7" stroke-width=".5" d="M142.833 50.999c-2.68-.014-5.93-.046-8.074-.048-6.169-.005-12.335-.023-18.499-.05-3.942-.019-7.884-.04-11.823-.066l-6.02-.043c-3.656-.029-7.311-.059-10.966-.097-6.207-.06-12.413-.131-18.617-.213-5.27-.069-10.538-.146-15.804-.23-2.48-.04-4.962-.085-7.441-.129.011-.048.013-.1 0-.146 4.397.077 8.793.146 13.19.213 3.226.05 6.453.097 9.68.138 6.337.084 12.678.157 19.019.217 4.046.042 8.093.076 12.139.107 1.518.011 3.038.021 4.556.033 4.066.027 8.13.048 12.197.067 6.137.025 12.275.044 18.417.05 2.125.002 5.344.033 8.012.048l.034.149z" transform="translate(-766 -2987) translate(183 2986) rotate(-2 490.58 -16718.459)"/>
                    <path fill="#557BA6" d="M124.24 115.073c-.8 2.381-1.577 4.771-2.332 7.17.503.036 1.02-.128 1.497-.252 2.128-.55 4.252-1.112 6.371-1.688.394-.106.788-.216 1.182-.322l.073-.02-.006.013c-.012.015-.024.03-.033.047-.016.035-.024.07-.027.103l-.06.017c-.769.21-1.538.421-2.309.629-1.083.291-2.167.578-3.252.863-.589.155-1.177.308-1.764.46-.478.123-.964.279-1.46.293-.087.002-.171-.003-.253-.011l-.41 1.31h-.152l.417-1.332c-.711-.135-1.239-.666-1.762-1.174l-2.539-2.465-2.934-2.848.062-.137 3.38 3.28c.804.781 1.605 1.569 2.416 2.345.372.356.77.715 1.28.843.045.011.09.02.136.028l.398-1.26c.631-1.985 1.281-3.967 1.947-5.942-.026-.01-.053-.021-.08-.034-.782-.362-1.285-1.172-1.795-1.83l-2.025-2.608-1.308-1.685.097-.108c.422.546.846 1.09 1.27 1.637l1.722 2.22c.53.682 1.034 1.514 1.74 2.03.137.101.28.178.427.238.954-2.83 1.94-5.647 2.961-8.452-.176-.088-.34-.21-.484-.372-.504-.56-.93-1.205-1.384-1.806l.14-.05c.034.046.07.091.103.137l.765 1.006c.242.319.472.701.82.915.027.016.057.03.086.046.311-.854.624-1.708.942-2.561.049 0 .097.003.147.005-.324.87-.646 1.742-.963 2.613.582.23 1.263.049 1.833-.143.883-.297 1.757-.63 2.626-.976l.098.106c-.57.223-1.143.442-1.718.655-.635.236-1.285.517-1.964.59-.329.035-.637.001-.919-.11-1.018 2.803-2.003 5.617-2.955 8.443.675.215 1.415.052 2.104-.163.89-.277 1.772-.577 2.657-.866l4.356-1.423-.003.15-3.78 1.235c-1.023.334-2.043.675-3.07 1.002-.735.235-1.558.458-2.311.21" transform="translate(-766 -2987) translate(183 2986) rotate(-2 490.58 -16718.459)"/>
                    <path fill="#47C0BB" d="M23.313 127.936c2.995-.09 5.992-.041 8.987-.153 2.519-.093 5.038-.214 7.56-.157l.249.007 2.293-5.492 1.91-4.573.069-.166 4.134-9.898.092-.22.069-.162c.937-2.225 1.942-4.44 2.758-6.712.43-1.194.761-2.45.813-3.713.003-.051.006-.103.006-.152.018-.765-.07-1.531-.303-2.285-.55-1.765-1.87-3.204-3.74-3.534-.134-.024-.27-.043-.407-.055-.05-.006-.101-.01-.152-.013-1.844-.132-3.704.648-5.29 1.505-.7.379-1.386.78-2.057 1.203l-.121.075c-2.947 1.873-5.621 4.162-8.018 6.698l-.133.142-.098.105c-2.685 2.876-5.016 6.06-7.085 9.403l-.083.132c-.205.333-.407.667-.608 1.002-2.144 3.597-4.008 7.349-5.766 11.147l-.066.14c-.294.637-.584 1.274-.874 1.912-.651 1.438-1.297 2.88-1.94 4.321 2.591-.254 5.188-.428 7.801-.507" transform="translate(-766 -2987) translate(183 2986) rotate(-2 490.58 -16718.459)"/>
                    <g transform="translate(-766 -2987) translate(183 2986) rotate(-2 490.58 -16718.459) translate(38.64 104.954)">
                        <mask id="5p0pfykfqd" fill="#fff">
                            <use xlink:href="#fzvg1bl6bc"/>
                        </mask>
                        <path fill="#47C0BB" d="M18.573 25.048c.397-.739.792-1.48 1.185-2.221.796-1.503 1.585-3.012 2.368-4.523 1.558-3.007 3.106-6.023 4.59-9.068 1.137-2.332 2.189-5.216.59-7.603C26.64.642 25.591.046 24.393.016c-1.449-.034-2.825.621-4.078 1.28-4.705 2.47-8.687 6.117-11.957 10.278C5.024 15.818.166 25.518.162 25.531l18.411-.483z" mask="url(#5p0pfykfqd)"/>
                    </g>
                    <path fill="#557BA6" d="M30.285 116.961c.457.517.922 1.03 1.392 1.534.394.42.785.859 1.253 1.2.183.134.376.244.578.33-1.223 2.595-2.428 5.2-3.604 7.819l.154-.002c.407-.907.817-1.812 1.23-2.715.774-1.689 1.56-3.372 2.35-5.051.27.095.554.142.853.126.67-.034 1.335-.285 1.977-.463l4.313-1.194 3.531-.977.069-.166-1.993.551-4.177 1.156c-.708.195-1.416.39-2.124.587-.702.195-1.469.492-2.205.313-.063-.015-.124-.037-.185-.058 1.746-3.708 3.526-7.401 5.312-11.09.396.151.825.237 1.295.23.618-.007 1.227-.144 1.826-.28.705-.161 1.41-.324 2.116-.488 1.41-.33 2.819-.664 4.226-1.006l.135-.033.069-.162c-2.254.551-4.511 1.089-6.774 1.595-.983.219-1.934.317-2.828.01 1.012-2.091 2.026-4.18 3.035-6.27l1.62-3.356c.497.18 1.078-.017 1.555-.168.763-.242 1.527-.487 2.289-.73 1.559-.5 3.116-1.003 4.674-1.506.003-.051.006-.102.006-.152-1.169.38-2.338.756-3.506 1.131-.764.245-1.526.49-2.29.733-.689.222-1.432.563-2.161.614-.191.013-.353-.015-.495-.07 1.335-2.76 2.668-5.521 4.002-8.282-.05-.006-.101-.01-.152-.013l-3.98 8.234c-.449-.253-.668-.825-.93-1.312-.35-.657-.713-1.31-1.084-1.957-.438-.76-.888-1.512-1.353-2.257l-.121.075c.403.647.797 1.301 1.181 1.961.41.704.806 1.413 1.192 2.13.265.496.496 1.212 1.019 1.5.007.005.015.008.023.012-1.551 3.21-3.101 6.422-4.65 9.634-.255-.099-.505-.231-.75-.406-.96-.687-1.636-1.695-2.316-2.64l-3.85-5.351c-.034.035-.066.07-.097.105l3.371 4.687c.969 1.347 2.012 3.07 3.577 3.738l-1.8 3.729c-1.18 2.45-2.355 4.902-3.515 7.36-.495-.21-.911-.592-1.281-.97-.445-.452-.872-.924-1.298-1.393-.883-.977-1.74-1.975-2.57-2.996-1.253-1.536-2.443-3.122-3.57-4.752l-.083.132c.926 1.335 1.894 2.64 2.904 3.914.843 1.065 1.715 2.108 2.615 3.126M22.273 126.221c.593.573 1.194 1.137 1.8 1.697l.202-.005c-.461-.425-.919-.853-1.372-1.285-1.548-1.475-3.052-2.995-4.511-4.558-.023.047-.044.093-.065.14 1.28 1.37 2.597 2.708 3.946 4.011" transform="translate(-766 -2987) translate(183 2986) rotate(-2 490.58 -16718.459)"/>
                    <path fill="#006EB7" d="M88.553 20.812c.006-.057-.085-.074-.124-.029-1.54 1.788-3.062 3.586-4.568 5.396-3.37 4.042-6.662 8.136-9.869 12.279-4.618 5.962-9.064 12.02-13.333 18.17-.141.203-.285.407-.422.612-.041.057-.082.115-.12.173l.584.017c7.623.043 15.247.072 22.873.087l.029-.189c1.162-7.51 2.302-15.02 3.296-22.53.374-2.836.729-5.672 1.056-8.506.211-1.826.412-3.655.598-5.48M132.556 22.558c.006-.056-.085-.073-.124-.028-1.53 1.78-3.048 3.57-4.547 5.373-3.354 4.023-6.63 8.098-9.823 12.22-4.39 5.67-8.626 11.426-12.699 17.264-.044.062-.087.126-.13.19 7.539-.027 15.081.03 22.623-.025.01-.064.016-.22.025-.281 1.07-6.93 2.11-13.86 3.028-20.79.373-2.823.726-5.647 1.052-8.468.21-1.817.41-3.637.595-5.455" transform="translate(-766 -2987) translate(183 2986) rotate(-2 490.58 -16718.459)"/>
                </g>
            </g>
        </g>
    </g>
</svg>
