<svg xmlns="http://www.w3.org/2000/svg" xmlns:xlink="http://www.w3.org/1999/xlink" width="256" height="199" viewBox="0 0 256 199">
    <defs>
        <path id="xaf9pdilob" d="M0.5 0.503L1.34 0.503 1.34 1.373 0.5 1.373z"/>
        <path id="2a1d1i00pd" d="M0 0.433L0.84 0.433 0.84 1.303 0 1.303z"/>
        <path id="i8x8t6w2nf" d="M0 0.07L141.518 0.07 141.518 140 0 140z"/>
        <filter id="7mngcbv4va">
            <feColorMatrix in="SourceGraphic" values="0 0 0 0 0.200000 0 0 0 0 0.164706 0 0 0 0 0.733333 0 0 0 1.000000 0"/>
        </filter>
    </defs>
    <g fill="none" fill-rule="evenodd">
        <g>
            <g filter="url(#7mngcbv4va)">
                <g>
                    <path fill="#6BBDBA" d="M232.313 110.077c-.073-1.346-.252-2.682-.546-3.998-1.3-5.85-3.665-11.163-7.352-15.917-7.972-10.277-21.366-17.71-34.633-16.726-7.36.546-14.945 4.427-18.463 11.161-4.748 9.088 3.83 14.62 11.119 18.659 15.905 8.813 5.12 26.993 7.687 34.328 2.476 7.075 12.186 7.758 18.317 6.011 13.467-3.838 24.654-19.198 23.871-33.518" transform="translate(0 4)"/>
                    <path fill="#006EB7" d="M161.263 120.516c-1.234-.593-2.655-.787-3.986-.431-3.754 1.004-5.87 5.525-5.872 9.134 0 1.92.701 3.764 2.591 4.546 3.754 1.553 7.818-.846 9.68-4.153.962-1.709 1.302-3.81.691-5.673-.497-1.517-1.675-2.737-3.104-3.423" transform="translate(0 4)"/>
                    <path fill="#6BBDBA" d="M76.644 137.33c-.862-1.54-2.003-2.997-3.294-4.315-4.884-4.99-10.706-9.777-12.166-16.925-.882-4.318.059-8.887 1.416-13.006 1.452-4.407 3.36-8.616 5.268-12.843 1.745-3.864 2.323-7.908-.55-11.458-6.334-7.826-17.932-4.133-24.83.7-15.057 10.555-19.912 31.9-13.586 48.485 2.303 6.035 6.017 11.54 10.74 16.008 7.724 7.31 27.98 15.733 36.37 5.322 3.173-3.936 2.742-8.2.632-11.968" transform="translate(0 4)"/>
                    <path fill="#2F30B4" d="M65.574 145.664c-2.582-1.705-5.73-2.423-8.733-2.972-1.556-.284-3.122-.511-4.686-.749-1.445-.22-2.938-.384-4.34-.812-2.477-.756-4.473-2.401-5.833-4.589-2.917-4.697-3.165-10.525-4.672-15.724-.662-2.285-1.592-4.714-3.484-6.268-2.216-1.821-5.456-2.008-7.942-.644-14.461 7.934-4.106 26.874 4.358 34.885 7.724 7.31 27.98 15.733 36.371 5.322.133-.165.26-.33.38-.496 1.847-2.548 1.242-6.172-1.375-7.923l-.044-.03M111.995 49.3c1.151-1.437 1.852-3.213 1.837-5.438-.02-3.152-1.348-6.087-1.751-9.186-.313-2.408.449-5.492-2.357-6.702-1.017-.438-2.164-.511-3.275-.452-6.459.345-11.38 4.756-16.587 7.938-2.427 1.482-5.266 2.645-7.446 4.455-3.781 3.14-4.8 8.673-1.475 12.512 2.392 2.76 6.295 4.076 9.946 4.066 4.105-.01 8.185-.807 12.07-2.058 3.297-1.062 6.84-2.392 9.038-5.135" transform="translate(0 4)"/>
                    <path fill="#7286E9" d="M189.41 47.81c-1.136-.357-2.162.046-2.826.821-.873 1.02-1.1 2.786-.674 4.095 1.008 3.097 4.353 2.116 5.221-.485.546-1.636.107-3.856-1.72-4.431" transform="translate(0 4)"/>
                    <path fill="#006EB7" d="M241.32 126.616c-.84-1.176-2.441-1.85-3.74-1.038-1.21.756-1.54 2.36-1.958 3.641-1.146 3.512-3.45 5.413-6.033 7.756-1.44 1.305-3.446 4.547-.543 5.49 2.794.91 5.913.083 8.157-1.793 2.648-2.213 4.617-5.875 5.044-9.365.195-1.587.018-3.369-.926-4.691" transform="translate(0 4)"/>
                    <path fill="#D98050" d="M84.11 107.54c-1.157-.152-2.015.683-2.133 1.727-.18.818-.082 1.744.546 2.35 1.061 1.025 3.062.54 3.607-.822.495-1.238-.74-3.087-2.02-3.255" transform="translate(0 4)"/>
                    <path fill="#5D5EA3" d="M64.04 33.423c-.963-1.136-2.373-1.596-3.62-.808-1.755 1.11-2.033 4.112-1.094 6.026 1.279 2.608 3.286 2.055 4.967.32 1.527-1.575 1.006-4.051-.254-5.538" transform="translate(0 4)"/>
                    <path fill="#6BBDBA" d="M51.976 178.208c.18-2.22-2.887-4.1-4.919-5.48-2.784-1.89-5.27-3.787-7.7-5.945-.949-.843-1.914-1.676-2.953-2.452-1.69-1.264-3.815-1.818-5.39-.527-2.156 1.764-1.01 4.922.198 7.158 1.96 3.627 5.667 6.69 10.197 8.403 2.296.869 5.136 1.628 7.527 1.31 1.343-.178 2.54-.845 2.914-1.887.07-.194.11-.388.126-.58M219.205 159.676c-.961-.667-2.102-1.052-3.298-.988-2.867.155-5.016 2.858-7.52 3.983-3.73 1.675-10.168 1.376-10.042 6.962.103 4.56 5.412 7.05 9.367 7.09 4.519.046 9.818-.983 12.41-5.06 1.6-2.518 2.499-5.927 1.487-8.832-.438-1.253-1.302-2.39-2.404-3.155" transform="translate(0 4)"/>
                    <path fill="#D98050" d="M86.723 115.94c.898-.747 1.797-2.754-.027-2.631-.572.04-.836.648-.918 1.142-.322 1.916.311 2.017.945 1.49" transform="translate(0 4)"/>
                    <path fill="#F8DA4A" d="M6.094 116.849c-.17-.357-.659-.28-.847 0-.786 1.16-.651 2.719.253 3.756.086.133.178.265.283.393.229.276.755.13.82-.217.26-1.365.089-2.678-.51-3.932" transform="translate(0 4)"/>
                    <path fill="#5D5EA3" d="M203.115 60.847c-1.518-2.672-4.565.522-2.288 1.134.469.125 2.9-.054 2.288-1.134M124.356 4.678c-.675-1.502-3.55.735-2.571 2.227.95 1.446 2.908-.828 2.66-1.953-.023-.102-.053-.194-.089-.274" transform="translate(0 4)"/>
                    <path fill="#D98050" d="M157.582 73.73c-.604-.13-1.02.47-1.24.946-.094.205-.16.42-.181.632-.02.124-.016.25.014.37.038.203.132.397.3.568.077.077.16.11.245.127.013.004.027.004.04.007.027.002.052.012.078.01.099.003.2-.019.267-.069.458-.342.892-.808 1.045-1.377.128-.474-.024-1.095-.568-1.214" transform="translate(0 4)"/>
                    <path fill="#5D5EA3" d="M87.411 64.062c-.806.174-1.461.828-1.637 1.633-.02.091-.011.172.01.246-.048.356.337.708.725.499.716-.385 1.23-1.015 1.505-1.775.137-.375-.267-.676-.603-.603" transform="translate(0 4)"/>
                    <path fill="#D98050" d="M38.634 54.915c-.56-.106-1.057.265-1.349.752l-.034.024c-.193.133-.283.367-.205.586-.017.081-.028.163-.031.242-.01.248.232.512.49.49.72-.061 1.838-.52 1.843-1.393.003-.411-.334-.702-.714-.701" transform="translate(0 4)"/>
                    <path fill="#FADAC3" d="M54.382 36.17c-.162-.304-.537-.287-.77-.099-.722.58-1.004 1.54-.781 2.428.04.156.13.255.242.306.01.017.016.035.025.052.162.301.537.29.77.1.823-.675 1.007-1.865.514-2.787" transform="translate(0 4)"/>
                    <path fill="#5D5EA3" d="M185.16 143.734c-.228-.297-.804-.344-.896.118-.01.045-.011.091-.02.137-.036.051-.064.115-.08.192-.14.721.047 1.414.552 1.95.261.277.715.126.82-.217.227-.74.1-1.562-.375-2.18M166.547 117.58c.015-.193-.006-.395-.096-.569-.2-.386-.644-.55-1.047-.389-.368.146-.645.514-.652.916-.01.478.27.86.559 1.213.144.178.421.171.608.055.032.008.065.021.098.021.284 0 .47-.225.49-.49.012-.138.007-.286-.008-.433.013-.11.04-.223.048-.324" transform="translate(0 4)"/>
                    <path fill="#F8DA4A" d="M46.029 190.21c-.228-.729-.647-1.36-1.248-1.832-.482-.38-1.373-.903-2.017-.718-.876.25-.286 1.364.01 1.836.172.274.382.505.621.678.608.555 1.439.79 2.291.638.255-.045.416-.368.343-.603M110.519 137.054c-.614-1.125-2.237.274-2.744.838-.267.296-.086.683.19.807.073.065.162.117.28.128.078.008.156.006.233.005l.035.008c.853.067 2.636-.63 2.006-1.786" transform="translate(0 4)"/>
                    <path fill="#D98050" d="M241.47 93.628c-.255-.174-.653-.002-.72.293-.14.617-.124 1.237.033 1.818.012.635.246 1.3.75 1.711.499.407 1.127.25 1.453-.29.848-1.406-.422-2.79-1.515-3.532" transform="translate(0 4)"/>
                    <path fill="#5D5EA3" d="M253.645 131.267c-.449-.28-.884.044-1.067.459-.144.33-.191.685-.168 1.039-.07.401.045.774.311 1.1.162.2.527.18.694 0 .344-.373.57-.816.634-1.322.057-.44.016-1.013-.404-1.276" transform="translate(0 4)"/>
                    <path fill="#006EB7" d="M206.6 166.307c-.488-.392-1.093-.218-1.613.008-.616.268-2.232 1.147-1.778 1.994-.002.012-.007.024-.008.037-.002.052.003.098.01.143-.084.28.063.653.446.677 1.177.075 2.427-.465 3.078-1.477.294-.46.318-1.02-.134-1.382" transform="translate(0 4)"/>
                    <path fill="#F8DA4A" d="M109.662 120.73c-.348-.448-.922-1.027-1.55-.785-.753.291-.441 1.186-.173 1.712.332.654.868 1.184 1.5 1.548.177.102.353.084.488-.004.265.026.532-.123.501-.461-.07-.738-.309-1.42-.766-2.01" transform="translate(0 4)"/>
                    <path fill="#5D5EA3" d="M76.773 83.277c-.182-.478-.697-.67-1.145-.415-.484.275-.722.91-.886 1.41-.157.481-.34 1.17-.088 1.648.146.28.407.41.68.413.194.11.428.117.6-.057.725-.724 1.225-1.982.839-3" transform="translate(0 4)"/>
                    <path fill="#FADAC3" d="M91.852 25.891c-.711-.567-1.48.195-1.979.679-.375.364-.762.854-.93 1.388-.156.217-.279.447-.343.69-.177.679.357 1.453 1.109 1.247.81-.222 1.571-1.196 2.022-1.86.42-.618.851-1.56.12-2.144" transform="translate(0 4)"/>
                    <path fill="#D98050" d="M162.891 91.068c-.058-.636-.327-1.193-.751-1.665-.247-.273-.734-.13-.82.217-.014.052-.021.105-.033.158-.101.057-.181.15-.21.283-.197.046-.367.193-.374.453-.015.693.101 1.441.45 2.053.265.464.85.809 1.316.38.218-.203.306-.505.33-.817.106-.351.121-.754.092-1.062" transform="translate(0 4)"/>
                    <path fill="#F8DA4A" d="M170.852 14.119c-.357-.84-1.211-1.311-2.051-1.55-.357-.1-.77-.173-1.06.122-.08.08-.135.173-.17.271-.518.43-.678 1.189-.363 1.838.31.634.995 1.084 1.703 1.13.345.298.872.385 1.313.208.797-.321.931-1.305.628-2.02" transform="translate(0 4)"/>
                    <path fill="#5D5EA3" d="M187.973 39.68c-.058-.213-.192-.406-.374-.524-.178-.193-.521-.229-.707-.022-.22.121-.39.34-.507.56-.212.402-.289.859-.243 1.302-.007.247.016.498.072.75.044.2.177.3.327.333.15.21.434.316.658.193.12-.003.242-.03.352-.093.366-.209.423-.634.47-1.015.06-.476.08-1.015-.048-1.484" transform="translate(0 4)"/>
                    <path fill="#FADAC3" d="M239.196 78.394c-.694-1.556-2.338-2.445-4.055-2.199-.343.05-.409.47-.292.723 1.027 2.241 6.563 6.44 4.347 1.476" transform="translate(0 4)"/>
                    <path fill="#E5EAFF" d="M22.212 146.072c-1.474-2.092-3.451-.779-2.096 1.374.395.629 2.717 2.933 2.913.908.07-.733-.407-1.698-.817-2.282" transform="translate(0 4)"/>
                    <path fill="#5D5EA3" d="M19.212 87.846c-.54.247-.902.703-1.066 1.232-.163.296-.293.61-.386.945-.093.338.243.736.603.603.98-.36 1.656-1.297 1.587-2.357-.025-.392-.392-.582-.738-.423" transform="translate(0 4)"/>
                    <path fill="#D98050" d="M80.25 120.59c-.3-.24-.681-.15-.82.216-.402 1.066-.152 2.212.578 3.068.09.105.192.146.294.153.071.064.146.126.223.185.317.244.721-.094.738-.423.003-.052 0-.104.002-.156.064-.084.11-.186.123-.297.119-1.047-.313-2.09-1.137-2.746" transform="translate(0 4)"/>
                    <path fill="#5D5EA3" d="M73.008 14.069c-.14.028-.275.063-.411.1-.132-.085-.3-.11-.477-.003-.23.14-.454.286-.676.436-.692.337-1.323.791-1.87 1.355-.203.21-.159.468-.014.644.058.12.162.218.301.25 1.62.37 3.275-.583 3.75-2.178.114-.38-.25-.676-.603-.604" transform="translate(0 4)"/>
                    <path fill="#D98050" d="M47.144 52.08c-.446-.671-1.64-.92-2.39-.829-.331.04-.614.263-.742.53-.392.264-.5.76-.242 1.185.025.054.056.102.094.139l.034.028.03.04c.167.17.375.29.602.375.472.217 1.01.28 1.518.101.025-.009.048-.024.072-.035.07-.017.14-.033.204-.054.642-.209 1.3-.763.82-1.48M158.261 85.564c-.027-.189-.073-.362-.14-.51l-.035-.103c-.081-.226-.352-.43-.599-.354-.105-.004-.217.006-.348.046-.627.196-.94 1.028-1.034 1.61-.083.52.08 1.078.504 1.382.034.057.07.112.114.163.427.51 1.008.388 1.29-.182.043-.087.085-.205.124-.344.025-.046.05-.093.07-.143.191-.48.168-1.043.054-1.565M161.704 82.54c-.067-.235-.154-.467-.273-.689-.144-.268-.563-.332-.771-.1-.07.08-.128.164-.188.249-.144.099-.25.25-.276.438-.09.054-.17.133-.214.255-.336.939-.112 1.915.526 2.664.219.256.606.141.77-.1.388-.567.565-1.22.552-1.874.019-.288-.02-.573-.126-.842" transform="translate(0 4)"/>
                    <path fill="#F8DA4A" d="M51.78 186.623c-.52-.66-1.28-1.252-2.145-1.077-.087.001-.175.007-.264.02-.192.027-.38.28-.36.472.045.417.139.828.282 1.22.057.59.383 1.122.872 1.432.563.575 1.632.94 2.136.082.417-.71-.078-1.587-.521-2.149M181.175 13.859c-.397-.56-1.055-1.319-1.844-1.076-.73.223-.783.956-.523 1.727-.041.09-.056.198-.01.325.3.84.85 1.677 1.656 2.114.642.348 1.522.221 1.652-.605.128-.817-.481-1.852-.93-2.485" transform="translate(0 4)"/>
                    <path fill="#D98050" d="M244.864 91.588c-.128-.591-.368-1.379-.857-1.85-.356-.34-.97-.476-1.41-.164-.376.065-.653.322-.597.719.1.716.688 1.426 1.275 1.943.17.148.376.148.542.075.656.277 1.166-.173 1.047-.723M246.617 115.771c-.638-.484-1.224.24-1.46.768-.32.717-.382 1.467-.252 2.236.049.29.422.43.672.316.12.028.245.02.345-.052.514-.369.894-.872 1.038-1.496.121-.525.139-1.407-.343-1.772" transform="translate(0 4)"/>
                    <path fill="#5D5EA3" d="M169.327 115.831c.257-.79.048-1.71-.563-2.304-.25-.242-.579-.148-.77.1-.362.47-.518 1.066-.45 1.654-.013.07-.014.144.007.225.034.14.085.265.145.384.119.297.311.56.59.69.02.014.035.03.055.044.139.1.296.086.433.02.335-.084.517-.444.553-.813" transform="translate(0 4)"/>
                    <path fill="#F8DA4A" d="M181.157 147.331c-.2-.148-.566-.046-.67.176-.865 1.837-.203 4.073 1.587 5.077.264.149.65.023.72-.293.077-.342.111-.68.112-1.011.183-1.53-.478-3.012-1.749-3.949" transform="translate(0 4)"/>
                    <path fill="#5D5EA3" d="M143.486 136.6c-.173-.51-.482-.975-.94-1.182-.439-.198-.887.056-1 .509-.106.418.082.903.278 1.267.194.36.507.739.871.938.43.236.992.066 1.086-.448.065-.357-.112-.762-.295-1.084" transform="translate(0 4)"/>
                    <path fill="#FFF" d="M195.577 84.565c-.961 2.855-3.834 3.591-6.54 3.415-3.949-.257-8.651-1.61-11.432-4.569-2.642-2.809-3.364-6.773-4.37-10.355-.947-3.375-2.332-5.904-4.357-8.725-1.261-1.757-2.108-3.607-1.533-5.793.414-1.57 1.375-2.854 2.666-3.694.071-.008.145-.035.22-.09.143-.108.296-.203.453-.292.422-.207.866-.38 1.339-.493.064-.016.113-.044.159-.074 3.563-.805 8.7 1.168 10.298 4.035 1.028 1.847 1.384 4.122 2.223 6.073.667 1.551 1.451 3.05 2.355 4.477 2.19 3.46 5.565 6.1 7.558 9.66 1.064 1.9 1.683 4.283.961 6.425m-1.49-8.93c-2.714-3.51-5.805-6.472-7.795-10.517-1.883-3.828-2.087-8.595-6.272-10.691-2.824-1.416-6.855-2.57-9.761-.865-1.98.966-3.425 2.79-3.925 5.016-.77 3.429 1.458 5.7 3.253 8.334 4.112 6.04 2.876 14.866 9.705 19.12 4.317 2.689 14.628 5.63 17.111-.894 1.277-3.356-.262-6.846-2.315-9.502M62.168 125.832c-3.496-1.834-5.31-5.387-6.43-9.61-1.056-5.579-.525-11.772 2.714-16.428 2.1-3.02 6.117-5.441 9.889-4.212 4.447 1.449 2.038 6.937 1.49 10.143-.466 2.726-.66 5.506-.33 8.26.383 3.218 2.001 5.89 2.732 8.984 1.511 6.4-6.852 4.549-10.065 2.863m9.227-7.93c-1.414-4.117-1.28-8.533-.464-12.759.488-2.525 1.784-5.608.596-8.122-2.605-5.513-10.726-1.815-13.395 1.565-2.88 3.646-3.946 8.402-3.862 12.975.027 1.533.182 3.064.453 4.574.689 3.847 2.358 7.45 5.696 9.72 1.886 1.283 4.077 2.102 6.328 2.452 2.17.337 5.138.654 6.287-1.706 1.369-2.81-.75-6.11-1.639-8.699M207.372 148.259c-.043 1.257-.533 2.567-1.042 3.696-1.113 2.47-2.903 4.639-5.166 6.142-.39.26-.794.504-1.208.722-1.372.725-2.115 1.066-3.352.138-1.24-.933-1.14-1.963-.308-3.318.345-.56.824-1.054 1.252-1.553 2.02-2.352 4.606-4.272 6.211-6.924 1.075-1.774 3.994-.824 3.613 1.097m.87-1.35c-.416-1.563-1.75-2.432-3.354-2.15-2.031.354-2.843 2.22-3.919 3.73-1.24 1.74-2.61 3.387-4.096 4.92-1.278 1.32-2.67 3.18-2.117 5.13 1.187 4.186 6.46.923 8.402-.735 2.694-2.301 6.094-7.088 5.083-10.895M77.082 47.849c-3.92 3.11-5.84 7.855-8.44 11.98-1.507 2.387-3.305 4.718-5.743 6.217-1.164.715-2.856 1.563-4.238.99-2.236-.926-1.863-4.723-1.852-6.638.02-3.447.54-6.867 1.286-10.227.862-3.878 2.054-7.691 3.668-11.324.94-2.111 2.022-4.161 3.266-6.11 2.641-4.141 6.29-7.702 11.062-9.196 4.6-1.44 9.606-1.176 14.062-3.148 2.31-1.022 4.357-2.715 6.799-3.437 3.58-1.057 6.874.472 7.259 4.433.468 4.83-1.953 11-4.513 14.992-5.1 7.955-15.778 6.044-22.616 11.468m23.23-32.195c-2.422-.35-4.686.658-6.754 1.784-3.327 1.813-6.274 3.094-10.046 3.697-5.4.863-10.338 1.654-14.566 5.395-4.413 3.904-7.128 9.393-9.145 14.833-1.353 3.644-2.394 7.402-3.132 11.219-.373 1.927-.667 3.869-.888 5.82-.251 2.225-.654 4.52.096 6.699.375 1.091 1.088 2.228 2.1 2.836 1.137.683 2.553.288 3.706-.173 4.543-1.816 7.229-6.32 9.525-10.372 1.5-2.648 2.982-5.386 5.14-7.57 2.354-2.385 5.337-3.627 8.498-4.562 4.484-1.326 9.457-2.088 13.092-5.278 4.45-3.901 12.95-22.8 2.373-24.328M35.227 171.146c-.683.206-1.384.316-2.102.33-5.769.112-8.494-4.761-10.14-9.51-.673-1.943-.684-3.98 1.183-5.24 1.398-.944 3-.47 4.175.606 2.436 2.23 2.408 6.063 4.594 8.51.695.777 3.445 2.078 3.64 2.831.753 1.713.385 2.265-1.35 2.473m.521-4.29c-2.085-1.434-3.085-2.914-4.001-5.248-.49-1.242-.908-2.54-1.65-3.664-1.147-1.74-3.16-3.208-5.343-2.641-1.834.476-2.982 2.27-3.25 4.067-.274 1.83.367 3.546 1.271 5.118 1.333 3.945 4.288 7.212 8.708 7.86 1.821.268 4.955.173 6.183-1.509 1.304-1.784-.527-3.027-1.918-3.983M233.47 84.673c-.921 4.963-6.147-.385-7.57-1.958-3.05-3.369-6.406-4.872-10.62-6.374-1.204-.43-2.769-.916-3.48-2.094-1.113-1.84.088-4.07 1.603-5.191 2.313-1.714 5.47-1.506 8.082-.656 6.052 1.968 13.27 9.354 11.985 16.273zm.05-6.352c-2.316-6.096-8.99-11.45-15.617-11.544-2.764-.04-5.735 1.072-6.988 3.708-.965 2.031-.546 4.23 1.325 5.549 1.278.9 2.887 1.269 4.34 1.782 2.233.79 4.463 1.696 6.303 3.232 2.418 2.018 4.119 5.283 7.255 6.348 5.488 1.864 4.529-5.966 3.43-8.944l-.049-.13z" transform="translate(0 4)"/>
                    <path fill="#F8DA4A" d="M190.121 21.11c-.524 0-.525.814 0 .814s.526-.814 0-.814M191.53 24.3c-.56 0-.561.87 0 .87.56 0 .56-.87 0-.87M195.01 27.78c-.56 0-.561.87 0 .87.56 0 .56-.87 0-.87M186.455 24.505v.271c0 .524.814.525.814 0v-.271c0-.524-.814-.525-.814 0" transform="translate(0 4)"/>
                    <g transform="translate(0 4) translate(130 .017)">
                        <mask id="dxcx71uvkc" fill="#fff">
                            <use xlink:href="#xaf9pdilob"/>
                        </mask>
                        <path fill="#5D5EA3" d="M.92.503c-.56 0-.561.87 0 .87.56 0 .56-.87 0-.87" mask="url(#dxcx71uvkc)"/>
                    </g>
                    <path fill="#E5EAFF" d="M109.19 6.154l-.29.29c-.396.396.219 1.012.616.615l.29-.29c.396-.396-.218-1.012-.616-.615M112.688 7.767c-.56 0-.56.87 0 .87s.56-.87 0-.87M110.078 10.957c-.56 0-.56.87 0 .87s.561-.87 0-.87M78.14 12.99c-.56 0-.56.87 0 .87s.56-.87 0-.87" transform="translate(0 4)"/>
                    <path fill="#D98050" d="M25.65 64.32c-.56 0-.56.87 0 .87s.56-.87 0-.87" transform="translate(0 4)"/>
                    <g transform="translate(0 4) translate(0 102.457)">
                        <mask id="a4bzlhxkae" fill="#fff">
                            <use xlink:href="#2a1d1i00pd"/>
                        </mask>
                        <path fill="#F8DA4A" d="M.42.433c-.56 0-.56.87 0 .87s.561-.87 0-.87" mask="url(#a4bzlhxkae)"/>
                    </g>
                    <path fill="#F8DA4A" d="M2.74 109.56c-.56 0-.56.87 0 .87s.561-.87 0-.87" transform="translate(0 4)"/>
                    <path fill="#FADAC3" d="M74.37 96.51c-.56 0-.56.87 0 .87s.56-.87 0-.87M74.95 100.57c-.56 0-.56.87 0 .87s.56-.87 0-.87M79.01 95.93c-.56 0-.56.87 0 .87s.561-.87 0-.87" transform="translate(0 4)"/>
                    <path fill="#E5EAFF" d="M165.14 141.17c-.56 0-.56.87 0 .87s.56-.87 0-.87M168.62 144.65c-.56 0-.56.87 0 .87s.56-.87 0-.87M168.185 136.675v.29c0 .56.87.56.87 0v-.29c0-.56-.87-.561-.87 0" transform="translate(0 4)"/>
                    <path fill="#5D5EA3" d="M179.785 127.975v.29c0 .56.87.56.87 0v-.29c0-.56-.87-.56-.87 0M180.22 107.24c-.56 0-.56.87 0 .87s.56-.87 0-.87" transform="translate(0 4)"/>
                    <path fill="#D98050" d="M248.95 104.05c-.56 0-.56.87 0 .87s.56-.87 0-.87M255.347 103.307l-.29-.29c-.396-.396-1.012.219-.615.616l.29.29c.396.396 1.012-.219.615-.616" transform="translate(0 4)"/>
                    <path fill="#E5EAFF" d="M188.322 180.447l-.29.29c-.396.396.219 1.012.616.615l.29-.29c.396-.396-.219-1.012-.616-.615M192.11 188.44c-.56 0-.56.87 0 .87s.56-.87 0-.87M198.78 185.83h-.29c-.56 0-.561.87 0 .87h.29c.56 0 .56-.87 0-.87" transform="translate(0 4)"/>
                    <path fill="#D98050" d="M96.09 131.6c-.56 0-.561.87 0 .87.559 0 .56-.87 0-.87M84.49 125.8c-.56 0-.562.87 0 .87.559 0 .56-.87 0-.87M86.519 131.02c-.56 0-.56.87 0 .87s.561-.87 0-.87M88.114 125.075v.29c0 .56.87.56.87 0v-.29c0-.56-.87-.561-.87 0" transform="translate(0 4)"/>
                </g>
            </g>
            <g>
                <path fill="#F8DA4A" d="M70.786 13.203C70.786 5.911 76.697 0 83.99 0c7.291 0 13.203 5.911 13.203 13.203S91.28 26.406 83.989 26.406c-7.292 0-13.203-5.911-13.203-13.203" transform="translate(57)"/>
                <g fill="#DDA528">
                    <path d="M1.863 6.942h10.202c.995 0 1.801.806 1.801 1.802s-.806 1.802-1.801 1.802H1.863C.867 10.546.06 9.74.06 8.744s.807-1.802 1.803-1.802M1.863.56h10.202c.995 0 1.801.807 1.801 1.802 0 .996-.806 1.803-1.801 1.803H1.863C.867 4.165.06 3.358.06 2.362.06 1.367.867.56 1.863.56" transform="translate(57) translate(77 7.65)"/>
                </g>
                <g transform="translate(57) translate(0 58.75)">
                    <mask id="s4ikfmnerg" fill="#fff">
                        <use xlink:href="#i8x8t6w2nf"/>
                    </mask>
                    <path fill="#F09D7A" d="M97.273 138.002c-.916-1.05-9.809-39.207-10.816-40.37-1.004-1.164-12.104-9.201-19.21-15.899-7.106-6.693-23.76-26.902-23.772-26.917-.46-.41-.96-.838-1.492-1.216-1.88-1.336-9.892-5.534-17.12-8.416-6.636-2.647-13.22-5.405-15.768-6.766C1.168 34.174-.81 27.926.275 27.429c1.08-.498 11.936 3.764 24.834 6.715.687.156 1.361.311 2.03.453 1.416.32 2.795.623 4.124.91 4.77 1.024 8.908 1.846 11.914 2.416l-.025-1.512s16.174-9.23 20.895-15.476C68.767 14.69 72.178.07 72.178.07l55.898 55.14s8.183 36.754 10.567 47.36c2.382 10.607 2.845 22.403 2.875 23.42.02.668-5.194 9.752-17.808 12.644-.693.158-1.41.298-2.15.416-.324.053-.654.102-.988.144-14.892 1.96-22.38-.14-23.3-1.192" mask="url(#s4ikfmnerg)"/>
                </g>
                <path fill="#F09D7A" d="M38.345 85.803s-10.82 2.693-8.098 8.789c1.034 2.317 7.5 9.14 13.233 15.09 5.846 6.07 10.742 11.73 12.387 11.36 1.644-.372 3.048-7.607-3.246-17.207-6.295-9.6-14.276-18.032-14.276-18.032" transform="translate(57)"/>
                <path fill="#AD5039" d="M46.517 97.945c3.18 3.955 5.88 8.5 7.695 13.247.757 1.98 1.302 4.055 1.623 6.151.12.788.462 2.13-.302 2.578-.816.478-1.832-1.006-2.38-1.592-3.506-3.756-6.946-7.58-10.486-11.304-3.8-3.997-7.707-7.884-11.07-12.267-.788-1.027-2.408.165-1.619 1.193 4.279 5.575 9.411 10.408 14.15 15.577 2.207 2.407 4.393 4.828 6.644 7.193 1.213 1.274 2.66 3.444 4.61 3.525 4.112.17 2.267-6.496 1.718-8.606-1.582-6.08-5.05-12.017-8.965-16.887-.81-1.008-2.431.182-1.618 1.192" transform="translate(57)"/>
                <path fill="#F09D7A" d="M52.996 67.575s-10.724 5.754-9.472 12.311C44 82.38 49.48 92.712 53.696 99.82c4.3 7.248 12.531 20.347 14.218 20.362 1.686.015 3.72-9.611-.206-20.398-3.927-10.786-14.712-32.209-14.712-32.209" transform="translate(57)"/>
                <path fill="#F09D7A" d="M63.31 64.34c1.446 2.365 3.467 7.556 4.555 10.083 2.238 5.201 4.35 10.44 5.088 16.098 1.065 8.155-.042 14.805-1.875 15.207-1.834.403-5.938-8.197-9.943-15.991-4.106-7.988-8.054-14.838-8.835-16.47-2.455-5.137-.784-8.099 1.538-11.719 1.9-2.962 3.826-3.3 3.826-3.3s1.487 1.14 2.217 1.87c1.981 1.98 2.512 2.726 3.429 4.223" transform="translate(57)"/>
                <path fill="#AD5039" d="M50.522 69.508c.447 2.759 2.114 5.517 3.309 7.997 2.043 4.245 4.192 8.44 6.329 12.639 1.507 2.961 3.072 5.904 4.435 8.934.659 1.464 1.39 2.878 2.202 4.264.676 1.153 1.376 2.684 2.519 3.477 2.1 1.456 3.524-.938 4.196-2.653 1.433-3.659 1.135-7.61.75-11.441-.41-4.083-1.491-8.049-3.15-11.799-.52-1.18-2.392-.443-1.867.744 2.486 5.624 4.078 12.673 3.177 18.844-.168 1.15-.812 4.92-2.412 4.16-.394-.188-.805-1.217-1.02-1.57-.537-.88-1.06-1.766-1.534-2.68-.674-1.3-1.235-2.656-1.877-3.973-3.185-6.54-6.63-12.951-9.791-19.503-1.136-2.353-2.846-5.061-3.27-7.679-.205-1.272-2.204-1.043-1.996.239" transform="translate(57)"/>
                <path fill="#AD5039" d="M50.745 97.148c3.37 7.068 8.223 13.717 12.84 20.014.7.953 1.452 2.192 2.45 2.862 1.673 1.125 2.947-.018 3.609-1.622 1.998-4.843 1.107-10.09-.625-14.875-.44-1.217-2.309-.473-1.868.745.854 2.359 1.457 4.821 1.637 7.33.113 1.576.07 4.66-.98 5.982-.874 1.098-1.679-.37-2.248-1.132-.83-1.113-1.63-2.249-2.425-3.387-3.718-5.321-7.719-10.784-10.522-16.66-.554-1.162-2.428-.428-1.868.743" transform="translate(57)"/>
                <path fill="#006EB7" d="M30.733 68.745l80.617 10.917c1.632.22 3.135-.924 3.356-2.556l6.277-46.346c.22-1.632-.924-3.134-2.556-3.356L37.809 16.488c-1.632-.221-3.134.923-3.356 2.556l-6.276 46.345c-.22 1.632.924 3.136 2.556 3.356" transform="translate(57)"/>
                <path fill="#F8DA4A" d="M45.958 40.83c4.657.63 8.945-2.634 9.576-7.291.63-4.658-2.634-8.945-7.292-9.576-4.658-.631-8.945 2.634-9.576 7.292-.63 4.657 2.634 8.945 7.292 9.576" transform="translate(57)"/>
                <path fill="#6BBDBA" d="M55.744 42.252c4.658.63 8.944-2.635 9.576-7.292.63-4.658-2.634-8.945-7.292-9.576-4.658-.63-8.945 2.634-9.575 7.292-.631 4.658 2.633 8.945 7.29 9.576" transform="translate(57)"/>
                <path fill="#F09D7A" d="M123.912 124.945c3.8-2.523 4.928-7.582 4.928-7.582s-2.364-16.916-7.945-23.832-13.693-14.739-13.693-14.739C93.469 66.02 76.126 49.128 74.244 48.094c-2.585-1.422-6.337 5.577-.163 16.782 2.555 4.636 5.802 8.838 9.185 12.893 1.673 2.005 3.384 3.979 5.073 5.97 1.058 1.249 2.279 2.277 2.81 3.873 1.06 3.174 1.12 7.007 1.542 10.324 1.707 13.383 2.449 22.99 6.253 28.516 3.805 5.525 21.018 1.118 24.968-1.507" transform="translate(57)"/>
                <path fill="#AD5039" d="M74.01 66.767c2.596 4.33 5.382 8.364 8.342 12.455 1.714 2.368 3.384 4.777 5.23 7.046.734.903 1.678 1.653 2.38 2.571 1.006 1.318.928 3.251 1.043 4.83.424 5.777 1.132 11.509 1.94 17.246.736 5.234 2.245 10.976 4.915 15.561.651 1.118 2.264-.085 1.619-1.193-2.97-5.1-4.304-11.624-4.863-17.433-.275-2.858-.92-5.647-1.215-8.495-.302-2.915-.204-5.883-.667-8.781-.4-2.507-1.988-3.631-3.535-5.499-1.863-2.25-3.517-4.68-5.229-7.046-2.96-4.093-5.745-8.125-8.34-12.455-.667-1.11-2.28.091-1.62 1.193" transform="translate(57)"/>
                <path stroke="#6BBDBA" stroke-linecap="round" stroke-width="2.1" d="M106.561 35.482c1.63 3.333 1.15 7.59-1.18 10.476M109.14 34.136c1.692 1.75 2.117 4.43 1.685 6.824-.432 2.396-1.605 4.583-2.767 6.721M103.572 38.633c.71 1.439.447 3.299-.632 4.485" transform="translate(57)"/>
                <path fill="#F8DA4A" d="M10.712 47.937c0-7.292 5.91-13.203 13.202-13.203 7.291 0 13.203 5.911 13.203 13.203S31.206 61.14 23.914 61.14c-7.291 0-13.202-5.911-13.202-13.203" transform="translate(57)"/>
                <path fill="#DDA528" d="M23.698 66.126c0-7.292 5.91-13.203 13.202-13.203 7.29 0 13.202 5.91 13.202 13.203 0 7.29-5.911 13.202-13.202 13.202-7.292 0-13.202-5.91-13.202-13.203" transform="translate(57)"/>
                <g fill="#DDA528">
                    <path d="M1.988 6.676H12.19c.995 0 1.802.806 1.802 1.802s-.807 1.803-1.802 1.803H1.988c-.995 0-1.803-.807-1.803-1.803 0-.996.808-1.802 1.803-1.802M1.988.295H12.19c.995 0 1.802.806 1.802 1.801v.001c0 .995-.807 1.802-1.802 1.802H1.988c-.995 0-1.803-.807-1.803-1.802C.185 1.1.993.294 1.988.294" transform="translate(57) translate(16.8 42.65)"/>
                </g>
                <g fill="#F8DA4A">
                    <path d="M2.399 6.664H12.6c.995 0 1.802.807 1.802 1.802 0 .996-.807 1.803-1.802 1.803H2.399c-.996 0-1.803-.807-1.803-1.803 0-.995.807-1.802 1.803-1.802M2.399.282H12.6c.995 0 1.802.807 1.802 1.803 0 .996-.807 1.802-1.802 1.802H2.399c-.996 0-1.803-.806-1.803-1.802S1.403.282 2.4.282" transform="translate(57) translate(29.4 60.85)"/>
                </g>
            </g>
        </g>
    </g>
</svg>
