<svg xmlns="http://www.w3.org/2000/svg" width="183" height="138" viewBox="0 0 183 138">
    <g fill="none" fill-rule="evenodd">
        <g>
            <g>
                <g>
                    <path fill="#FFDA01" d="M137 35.5c0 6.904-5.596 12.5-12.5 12.5-6.903 0-12.5-5.596-12.5-12.5 0-6.903 5.597-12.5 12.5-12.5 6.904 0 12.5 5.597 12.5 12.5" transform="translate(-183 -2986) translate(183 2986) translate(0 7.16)"/>
                    <path fill="#F09D7A" d="M35.463 20.296s2.378 1.158.028 6.216c-2.351 5.059-9.918 12.497-10.534 25.494-.615 12.997-5.674 2.12-5.674 1.84s.88-21.395.88-21.395l5.781-9.678 9.519-2.477z" transform="translate(-183 -2986) translate(183 2986) translate(0 7.16)"/>
                    <path fill="#F09D7A" d="M14.355 92.965c-.417 1.254-2.304 4.936-4.498 9.102 2.167 2.086 4.424 4.077 6.772 5.958 6.498 5.206 13.655 9.583 21.258 12.957 2.64-5.287 5.772-10.756 6.312-16.562.542-5.824-.16-12.042-2.018-17.434-2.706-7.855-7.023-15.343-12.868-21.265-1.21-1.227-2.487-2.385-3.827-3.467-1.01-.814-2.032-1.521-2.856-2.528-1.308-1.588-1.46-13.095-1.461-13.104.77-3.312.122-6.454 1.818-9.49 3.998-7.16 7.254-9.821 12.476-16.836 5.221-7.015 3.433-11.189 2.255-10.31-3.67 2.735-7.153 5.768-10.65 8.718-4.744 4.001-9.701 7.981-13.011 13.323-2.729 4.403-5.571 9.975-6.327 15.162-.948 6.502 1.399 19.907 3.122 28.859 1.185 6.15 4.613 13.575 3.503 16.917" transform="translate(-183 -2986) translate(183 2986) translate(0 7.16)"/>
                    <path fill="#F09D7A" d="M21.583 77.18c.699 2.617 1.879 5.078 3.416 7.281 3.18 4.556 8.029 8.107 13.44 9.28.835.182 1.694.272 2.532.238.019-1.266-.016-2.525-.152-3.716-.53-4.649-1.632-8.954-3.458-13.252-1.446-3.407-3.275-6.616-5.117-9.805-2.32-4.018-6.21-13.56-9.887-20.307-2.752-5.05-5.664-8.206-6.18-8.093-1.652.359-2.57 4.892-1.519 11.852 1.052 6.96 6.524 23.38 6.925 26.521" transform="translate(-183 -2986) translate(183 2986) translate(0 7.16)"/>
                    <path fill="#AD5039" d="M22.64 47.297c-1.35-2.398-2.389-4.974-4.088-7.164-1.066-1.374-3.389-3.145-4.455-.733-.904 2.043-.334 4.692-.106 6.827.5 4.69 1.448 9.284 2.351 13.908.53 2.718 1.05 5.455 1.383 8.205.154 1.268.263 2.504.072 3.772-.16 1.06-.209 2.042-.016 3.102.123.682 1.163.393 1.04-.286-.325-1.79.26-3.589.105-5.404-.173-2.04-.535-4.064-.88-6.08-.718-4.187-1.682-8.327-2.364-12.521-.452-2.786-.902-5.712-.93-8.55-.007-.78-.116-2.458.627-2.993.776-.56 1.819.774 2.227 1.281 1.737 2.163 2.754 4.783 4.103 7.18.34.605 1.271.062.93-.544" transform="translate(-183 -2986) translate(183 2986) translate(0 7.16)"/>
                    <path fill="#964747" d="M35.48 65.231l.01-.019c-.14.21-.047.09-.01.02" transform="translate(-183 -2986) translate(183 2986) translate(0 7.16)"/>
                    <path fill="#D45648" d="M1.266 101.193c-.897 1.578-1.883 3.277-.772 4.953 1.07 1.615 3.566 2.069 5.414 2.564 4.965 1.332 8.158 5.466 11.472 9.086 3.872 4.232 8.51 7 13.818 9.125 1.034.413 2.128.8 3.234.677 1.808-.2 2.208-1.687 2.938-3.06 1.94-3.652 3.647-7.436 4.953-11.362 2.108-6.34 3.044-13.06 2.606-19.723-.21-3.179-.728-6.317-1.478-9.422-.183-.757-.38-1.51-.594-2.258-.908-3.199-3.414-2.607-6.145-2.965-7.122-.933-14.304-1.517-21.454-2.194-2.78-.262-5.776-.85-8.468.159-1.459.548-1.265 3.906-1.333 5.159-.219 3.995-.252 8.084-1.188 11.996-.525 2.192-1.456 4.25-2.456 6.261-.164.328-.354.663-.547 1.004" transform="translate(-183 -2986) translate(183 2986) translate(0 7.16)"/>
                    <path fill="#A3322E" d="M8.78 77.858c-1.04 1.935-.874 3.885-.626 5.984.284 2.415.131 5.018-.13 7.432-.254 2.363-.793 4.717-1.67 6.929-.76 1.915-2.298 3.859-2.033 6.021.083.68 1.162.689 1.078 0-.253-2.063 1.346-4.048 2.062-5.906.78-2.025 1.274-4.152 1.553-6.303.289-2.224.373-4.52.31-6.76-.067-2.359-.807-4.631.387-6.853.328-.612-.602-1.156-.93-.544M15.975 78.994c-.963 1.953-1.08 4.103-1.072 6.247.009 2.573-.095 5.034-.477 7.585-.393 2.63-.93 5.238-1.62 7.806-.624 2.316-1.642 4.685-1.412 7.128.065.685 1.144.692 1.078 0-.226-2.402.82-4.758 1.426-7.04.666-2.503 1.184-5.045 1.568-7.607.33-2.214.554-4.4.528-6.64-.027-2.327-.145-4.792.912-6.935.306-.62-.624-1.168-.93-.544M24.06 79.595c-1.752 2.063-1.853 5.267-1.997 7.851-.19 3.413.012 6.832-.173 10.249-.145 2.649-.905 5.088-1.626 7.619-.734 2.58-1.397 5.178-2.008 7.79-.158.675.882.963 1.04.287.592-2.534 1.231-5.055 1.942-7.558.605-2.134 1.335-4.256 1.596-6.466.385-3.268.222-6.562.248-9.842.013-1.596.128-3.169.322-4.75.19-1.547.37-3.185 1.417-4.418.447-.526-.312-1.292-.762-.762M31.798 81.115c1.179.65 1.078 3.071 1.09 4.185.018 1.562-.06 3.128-.184 4.685-.255 3.212-.5 6.43-.907 9.627-.424 3.327-1.018 6.637-1.843 9.89-.806 3.175-1.722 6.406-3.031 9.412-.275.63.654 1.18.93.545 2.822-6.484 4.285-13.665 5.121-20.656.426-3.562.761-7.17.932-10.755.078-1.623.151-3.294-.079-4.908-.152-1.065-.468-2.395-1.484-2.956-.609-.335-1.153.595-.545.93M39.033 81.858c1.537.98 1.732 2.861 1.97 4.538.263 1.856.25 3.761.232 5.632-.035 3.582-.19 7.184-.765 10.724-1.133 6.973-3.17 14.158-6.536 20.388-.33.61.6 1.155.93.544 1.849-3.42 3.153-6.99 4.273-10.705 1.14-3.784 2.086-7.632 2.61-11.553.507-3.783.63-7.662.558-11.476-.037-1.926-.181-3.81-.61-5.69-.33-1.449-.831-2.513-2.118-3.334-.587-.373-1.128.559-.544.932" transform="translate(-183 -2986) translate(183 2986) translate(0 7.16)"/>
                    <g fill="#E77B44">
                        <path d="M46.686.086c12.31.015 24.113 4.911 32.818 13.615 8.704 8.705 13.601 20.507 13.616 32.817 0 34.915-41.225 72.419-42.98 73.997l-3.454 3.108-3.453-3.108C41.478 118.937.254 81.431.254 46.518.27 34.208 5.165 22.406 13.87 13.701 22.574 4.997 34.376.101 46.686.086zm9.519 22.98c-4.751-1.968-9.98-2.483-15.023-1.48-5.043 1.003-9.676 3.48-13.312 7.116-3.636 3.636-6.112 8.268-7.116 13.312-1.003 5.043-.489 10.271 1.48 15.022 1.967 4.75 5.3 8.812 9.576 11.668 4.276 2.858 9.302 4.382 14.444 4.382 6.896 0 13.51-2.74 18.386-7.615 4.876-4.876 7.614-11.49 7.614-18.385 0-5.142-1.524-10.169-4.38-14.444-2.857-4.276-6.918-7.608-11.669-9.577z" transform="translate(-183 -2986) translate(183 2986) translate(0 7.16) translate(35.519 5.997)"/>
                    </g>
                    <path fill="#E77B44" d="M92.68 49H71.32C69.487 49 68 47.433 68 45.5s1.487-3.5 3.32-3.5h21.36c1.833 0 3.32 1.567 3.32 3.5S94.513 49 92.68 49M92.68 62H71.32C69.487 62 68 60.433 68 58.5s1.487-3.5 3.32-3.5h21.36c1.833 0 3.32 1.567 3.32 3.5S94.513 62 92.68 62" transform="translate(-183 -2986) translate(183 2986) translate(0 7.16)"/>
                    <path fill="#47C0BB" d="M123.82 91.107c0 6.14-4.977 11.117-11.117 11.117-6.14 0-11.117-4.977-11.117-11.117 0-6.14 4.978-11.117 11.117-11.117 6.14 0 11.118 4.977 11.118 11.117" transform="translate(-183 -2986) translate(183 2986) translate(0 7.16)"/>
                    <path fill="#30A6A1" d="M119.87 92.93l-.043-.108-.053-.06-.1-.058-.056-.01-.12.022-.073.043-.02.014c-.025.021-.062.055-.087.114l.02.17.066.09.115.07c.044.006.162.024.26-.064.062-.055.093-.135.09-.223zm-.578-8.526l.134-.01.081-.042.087-.104c.07-.222-.05-.372-.189-.418l-.133.011-.081.042-.086.101c-.071.222.047.373.187.42zm-3.389 7.074l.101-.052.092-.124c.016-.086.04-.216-.042-.333-.047-.068-.119-.112-.207-.128-.018-.003-.038-.006-.06-.006l-.085.019-.053.028-.062.053-.014.018c-.13.158-.146.309-.05.446l.03.032.023.021.036.024c.03.015.063.026.095.032.095.017.164-.015.196-.03zm4.46 3.176l-.052-.12-.064-.061-.119-.05h-.025c-.329-.009-.417.167-.435.316l.032.12.05.069.103.069c.02.005.04.01.06.013.053.009.212.037.335-.07.055-.046.119-.134.115-.286zm-1.238-8.782l-.026.001c-.018-.007-.037-.013-.057-.018l-.132.028-.076.05-.073.114-.015.083.029.13.051.075.112.071.084.015.14-.035.075-.06.065-.135c.03-.182-.073-.285-.177-.319zm.934 3.718l-.051-.007-.121.037-.068.052-.064.107-.02.11.027.128.048.074.112.075.02.004c.102.018.191.003.267-.042l.047-.042.028-.037.03-.055c.035-.119.004-.207-.028-.26-.033-.052-.1-.12-.227-.144zm-3.514.28l.159-.013.09-.055.082-.14c.008-.166-.092-.359-.276-.392-.072-.013-.148.003-.212.045l-.047.046-.027.04-.028.06c-.028.125-.009.296.242.402l.017.006zm-.495 6.196l-.047-.005-.114.035-.036.028c.002.006-.03.022-.03.022l-.093.106c-.036.118-.005.206.027.259.033.053.099.121.225.144l.054.007.113-.03.066-.046.068-.095c.032-.111.023-.207-.027-.289-.045-.072-.118-.12-.206-.136zm4.729-4.836l-.023-.036c-.012-.016-.046-.058-.109-.086h-.142l-.087.04-.038.024c-.015.013-.058.047-.085.109v.142l.04.087.025.04c.014.016.048.057.11.083l.141-.001.087-.04.038-.025c.016-.013.059-.049.085-.113l-.003-.138-.04-.086zm-3.38 2.3c.107.018.2-.025.254-.089l.044-.029.074-.105c.024-.099.007-.201-.05-.288-.054-.083-.142-.142-.24-.16-.08-.014-.163 0-.233.04l-.047.039-.03.034-.03.053c-.04.115-.022.222.06.325 0 .003.035.073.035.073l.081.079c.028.013.055.022.083.027zm.785-1.32l-.086-.004-.06.013-.078.038c-.126.109-.12.245-.119.298.001-.004.01-.04.035-.065l-.043.162.025.105.126.126.02.006c.182.033.337-.083.382-.273.045-.187-.04-.358-.202-.407zm.338-2.409c-.021-.003-.045-.005-.068-.005l-.11.043-.06.052-.058.101-.01.056.023.12.044.073.013.019c.02.025.053.062.11.086l.174-.02.09-.067.07-.116c.03-.218-.099-.32-.218-.342zm-.78 3.916l-.104-.06-.11-.02-.126.026-.074.048-.074.106c-.02.085-.006.172.041.243.046.07.119.12.2.133.084.015.17-.006.233-.06.07-.058.107-.143.107-.241l-.04-.111-.053-.064zm2.036-7.773l.056.06c.032.02.068.035.106.041.153.028.31-.07.348-.219.035-.135-.04-.273-.176-.32l-.14.012-.027.014c-.145.032-.227.144-.219.285l.023.078.03.05zm.935 12.64l-.127-.099-.167-.03-.142.038-.075.062-.063.132c0 .017 0 .02-.016.053s-.04.083-.052.15l.043.15.07.076.084.033c.124-.079.243-.165.362-.25.053-.053.104-.108.155-.163-.01-.029-.021-.056-.035-.072l-.037-.08zm-6.39-7.668l-.15.02-.083.055-.077.127c-.02.195.074.296.132.338l.156.024.1-.032.111-.114c.069-.222-.05-.373-.19-.418zm6.215-2.726c.094.017.186-.005.251-.06.06-.051.093-.125.092-.203l-.028-.09-.036-.058-.073-.063c.035.016.053.04.056.044-.018-.026-.071-.106-.18-.125-.075-.014-.148.005-.22.054l-.016.013-.012.011-.018.018c-.066.08-.085.18-.052.273.036.096.123.166.236.186zm2.918 4.96c-.024-.054-.069-.11-.148-.157-.008-.004.002.003.014.016l-.171-.054-.111.028-.128.13c-.08.335.137.417.205.434l.116-.012.02-.009c0 .007.045.08.045.08l.097.075c.02.007.04.011.058.014.017.004.034.005.05.005-.008.017-.014.033-.017.052 0 .002-.098.013-.098.013l-.088.057-.065.08c.007-.016.013-.026.014-.027-.032.043-.102.133-.074.258.018.08.072.147.153.188l.018.001c.112-.37.204-.75.277-1.135-.025-.03-.059-.043-.105-.052l-.062.016zm-.627 1.863c-.063.056-.095.135-.092.225l.041.104.05.061.103.06c.071-.16.136-.322.196-.487l-.039-.025c-.043-.007-.162-.025-.26.062zm-.865 1.784c-.074.02-.126.053-.164.102-.035.044-.071.12-.051.23l.06.103.063.052.06.022c.107-.158.21-.32.309-.486-.026-.022-.057-.041-.095-.057l-.182.034zm-7.044-10.703l-.02-.027c-.006-.02-.015-.04-.026-.058-.045-.072-.119-.12-.208-.137l-.034-.004-.107.022-.063.036-.069.076c-.029.06-.105.269.124.412l.024-.037c.004.008-.013.038-.013.038l.036.008.012.017c.043.057.108.096.182.11l.203-.146.004-.028.034-.029.01-.056-.007-.086c-.016-.047-.044-.085-.082-.11zm6.512.304c.024.005.05.006.077.006l.1-.034.06-.044.06-.084c.046-.135.015-.232-.018-.29-.027-.045-.092-.124-.226-.148-.02-.004-.042-.006-.065-.007l-.127.05-.067.066-.051.119c-.008.277.158.348.257.366zm-1.097.823l.053.063.102.06.056.01.078-.004.055-.015.07-.04c.109-.1.111-.205.103-.26-.008-.055-.042-.157-.176-.22h-.148l-.092.044-.046.032c-.063.06-.095.133-.096.218l.04.112zm1.337 1.474c.08-.07.11-.171.111-.246.002-.093-.036-.177-.104-.23l-.075-.029.002-.07-.027-.098c-.044-.068-.117-.117-.201-.131-.085-.016-.171.004-.235.051-.07.051-.112.128-.122.217l.025.089c-.108.022-.196.103-.224.217l.037.156.077.087c.03.03.083.083.177.1.032.006.066.007.1.003l.03-.013.018.017c.04.023.078.037.117.044.081.015.162-.007.223-.06.033-.03.057-.064.071-.104zm-.2 2.077c.013.016.047.059.11.086l.142-.001.087-.04.038-.025c.017-.013.06-.048.086-.113l-.003-.139-.04-.084-.023-.038c-.013-.016-.05-.06-.115-.087l-.138.003-.085.04-.037.023c-.016.012-.058.047-.086.109l.001.142.04.086.023.038zm.197-5.824l.098.022.035.021c-.05.055-.077.127-.074.208l.041.105.05.06.103.059c.087.015.164 0 .227-.038.037.041.085.07.136.087-.21-.356-.436-.7-.683-1.029l-.014.019-.03.062c-.064.246.042.371.11.424zm-.03 7.923c.173.03.343-.065.388-.22.033-.115-.009-.27-.178-.339l-.134.002-.034.014c-.216.043-.273.195-.262.323l.035.089.04.054.075.057c.022.01.046.015.07.02zm.54-7.18c-.033.208.089.327.216.35.07.013.133-.004.187-.032-.083-.16-.17-.318-.26-.473l-.052.027-.091.128zm-3.78-2.446l.107.074-.015-.004c.018.01.052.03.1.038.059.011.205.016.297-.167l.01-.133c-.002-.018-.002-.029-.002-.04l-.042-.11-.053-.06-.101-.059-.084-.015-.13.029-.074.051-.072.113-.015.083.026.126.048.074zm4.925 6.273c-.073-.01-.195-.025-.3.057-.066.05-.106.121-.117.208v.056l.005.03c.03.124.144.224.283.249.004 0 .011.053.011.053l.028.038.009.041.14.134c.11.02.186-.01.223-.026l.07-.052.038-.048.036-.078.01-.055-.006-.036.016-.029c-.017-.185-.039-.368-.065-.55l-.022-.011c-.113-.005-.215.012-.309.05l-.05-.031zm-.353-1.933c.025.002.048.002.071 0l-.02.005-.068.034.017-.04zm.289.912l.06-.006-.044.052-.013.069c-.003-.05-.009-.089-.02-.121.006.002.011.005.017.006zm-.786-.835l.038.038.032.023.045.024c.02.006.037.01.053.013.084.015.167-.004.235-.053.01-.008.019-.016.027-.025-.027.04-.043.087-.044.139l.019.083.029.057.04.052c.034.028.092.076.164.103l-.03.061c-.007.053-.003.098.007.137-.028-.013-.059-.024-.093-.03l-.02-.003-.157.061-.073.087c-.028.029-.09.1-.091.218l.021.086.031.056.063.065c.028.017.056.028.085.036.017.156.135.211.177.225l.132-.013.05.078.116.077.166.03.163-.06c-.095-.561-.233-1.108-.41-1.636-.011 0-.024-.003-.035-.002-.017-.007-.036-.013-.056-.017l-.049.002c.03-.008.06-.019.086-.035l.028-.026c-.054-.158-.111-.313-.172-.468-.027-.03-.052-.06-.087-.086l-.093-.015c-.023-.02-.052-.03-.079-.035-.16-.028-.295.064-.328.225l-.003.043.001.032.004.022c-.043-.034-.094-.067-.162-.08-.142-.025-.275.064-.31.207l.01.11.03.07.05.066c.044.037.101.078.176.09.077.015.149-.004.206-.047l.008.015zm-5.333 3.78l.04-.025c.016-.014.058-.05.084-.112l-.003-.14-.04-.085-.022-.037c-.02-.025-.054-.061-.111-.085l-.141.001-.087.04-.036.022c-.025.02-.061.054-.086.11v.142l.01.022c-.013-.005-.027-.01-.042-.012-.015-.003-.03-.005-.048-.006l-.107.031-.066.046-.067.094c-.033.111-.024.208.026.288.045.072.118.122.207.137.014.003.028.004.043.005l.11-.03.066-.046.068-.094c.024-.083.025-.159.003-.225l.112-.001.087-.04zm-1.48-5.453c.022.007.04.011.058.014.12.022.227-.014.295-.098.112-.14.04-.31.015-.366l-.04-.057-.036-.035-.06-.038c-.04-.015-.081-.026-.12-.033-.106-.02-.203-.007-.289.038-.025-.012-.05-.02-.077-.024-.075-.014-.152 0-.214.042l-.052.053-.029.045-.025.07c-.03.23.078.328.17.37.006.01.082.072.082.072.025.01.048.018.072.022.127.023.212-.04.25-.075zm8.153 4.851l-.053.024-.048.034c-.01.009-.017.019-.025.028-.045-.058-.11-.1-.19-.116l-.123.026c0-.023 0-.047-.006-.07-.024-.11-.115-.194-.234-.215-.126-.022-.245.037-.296.143-.038.078-.039.167 0 .246.04.078.115.133.206.15.03.004.059.004.087 0-.028.11 0 .192.031.24.032.055.098.124.226.147.016.002.033.005.052.006l.113-.03.02-.013c-.01.074.008.139.056.222l.047.053.041.03.068.03c.026-.22.034-.443.034-.668 0-.09-.004-.178-.006-.267zm-11.8-2.447l-.15-.01-.093.036-.045.026-.026.024-.061-.041c-.02-.006-.038-.01-.056-.013-.126-.023-.212.019-.262.058-.097.014-.172.07-.21.16l-.009.116.023.078.067.095c.057.04.133.058.173.065.139.025.257-.002.341-.078.016-.015.028-.03.04-.047.029.024.072.053.137.064l.015.002.024.002.125-.038.063-.052.06-.1c.029-.143-.031-.276-.156-.347zm.992-5.68l-.095-.075c-.021-.007-.041-.012-.06-.016-.169-.03-.31.05-.36.204l.006.124.035.079.095.09c-.017-.005-.028-.013-.029-.013.023.017.075.06.158.074.023.004.047.006.072.006l.11-.042.061-.053.058-.102.016-.083-.023-.12-.044-.073zm9.938 9.838c-.01.056.003.112.034.157.033.048.085.08.147.091l.016-.086c-.009-.002.006-.088.006-.088.01.003.021.005.036.004l.01-.055c-.008-.022-.019-.031-.03-.033l.03-.172c-.113-.02-.227.063-.249.182zm.72-.255l-.018.087c-.233-.042-.351.09-.383.214l-.003.07.007.05.025.066c.043.069.12.118.21.134.058.01.115.004.168-.013.04-.227.072-.46.096-.695-.034.024-.062.049-.083.07l-.018.017zm-.655-.66c-.023-.004-.048-.004-.073-.004l-.106.043-.06.053-.058.1-.01.056.023.121.044.073.013.018c.02.025.053.06.107.085l.17-.015.092-.064.073-.117c.032-.208-.085-.325-.215-.348zm-.1 2.426l.078-.108c.079-.335-.137-.417-.204-.434l-.14.025-.08.054-.075.124c-.02.038-.067.138-.01.251.058.12.18.148.225.158l.13-.022.076-.048zm-1.13 1.279l.123-.038.064-.05.061-.1c.011-.055.01-.108-.003-.157.083-.031.148-.097.177-.19l-.012-.133-.042-.081-.101-.085c-.02-.006-.04-.01-.06-.014-.167-.03-.308.049-.358.202l.01.13c-.01.004-.058.032-.058.032-.016.014-.059.049-.085.113l.005.143.044.09.03.043c.018.018.072.074.166.09l.016.003.023.002zm-5.054-10.322l-.047.031c-.063.06-.095.134-.095.219l.04.111.053.063.103.06.055.01.079-.004.054-.015.07-.039c.11-.1.111-.206.103-.26-.008-.055-.041-.157-.176-.22h-.148l-.091.044zm-1.405-.64l.017.022c.012.016.046.056.105.082l.185-.028.085-.073.026-.031c.09-.094.087-.191.075-.242-.011-.043-.052-.147-.192-.184l-.117.01-.075.033.013.03-.02-.032-.075.045-.082.12-.01.055.022.12.043.073zm1.762.173l.128-.007.016.004.108-.035.118-.135.015-.083-.011-.1-.028-.065-.065-.076c-.031-.021-.067-.035-.104-.042-.155-.028-.313.07-.351.218-.036.135.04.272.174.32zm-.963 4.026h-.148l-.092.043-.046.032c-.064.06-.096.134-.096.219l.04.112.053.063.103.06.055.01.078-.004.054-.016.069-.038c.11-.098.113-.205.105-.26-.008-.056-.042-.157-.175-.22zm-.393-7.328l.112.072.026.005c0 .013.002.025.004.039.024.121.114.211.234.233l.11-.016.049-.024c.002.004.082-.035.082-.035l.088-.1c.056-.164.009-.305-.138-.42l-.099-.035-.015-.001c-.006-.013-.011-.027-.019-.04-.148-.02-.293-.034-.44-.046l-.065.108-.01.056.029.13.052.074zm.64.344c-.015.011-.061.048-.089.115l.02.17.067.09.116.07c.049.006.162.022.258-.065.027-.024.047-.053.062-.085.056 0 .13-.01.196-.07.06-.055.093-.134.089-.224l-.043-.107-.053-.06-.1-.058-.055-.01-.121.023-.072.044-.022.015c-.013.01-.042.036-.066.078l-.096.018-.072.043-.018.013zm.04 5.283l.107.069.014.003c.12.021.283-.004.383-.245l.008-.017-.01-.155-.052-.089-.131-.085c-.131-.015-.22.03-.269.072-.052.042-.117.12-.13.26l.03.118.05.069zm1.372.013c-.129-.024-.218.01-.27.042l-.045.041-.028.035-.024.047c-.018-.123-.112-.224-.243-.248l-.203.143-.007.042-.024.023c-.034.052-.056.123 0 .223l.055.046.074.107c.081.014.161-.003.225-.048.044-.03.077-.073.1-.12.011.134.103.225.207.259l.126-.007.079-.036.085-.085c-.018.04-.046.06-.046.06.109-.072.159-.176.148-.308l-.043-.1-.05-.056-.098-.057-.018-.003zm-1.443-2.998l-.028-.13-.052-.074-.112-.072-.083-.015-.124.024-.073.047-.075.1c-.032.12 0 .206.032.259.046.07.12.12.21.135l.025.004.13-.034.07-.053.066-.107.014-.084zm1.043-1.31l.026.04c.013.016.048.058.112.085l.14-.004.085-.04.036-.022c.016-.013.06-.049.087-.116l-.003-.138-.039-.085-.024-.038c-.013-.016-.049-.059-.113-.085l-.14.002-.087.04-.036.024c-.017.013-.059.048-.085.113l.002.139.04.085zm.02 1.118c.01.007.1-.102.1-.102l-.004.131.125.004.076-.015c.179-.079.185-.237.179-.301l-.01-.041-.01-.03-.018-.039c-.034-.052-.101-.118-.225-.14-.048-.01-.099-.01-.151-.005l-.027.003-.104.04-.06.05-.06.095c-.015.07-.028.245.188.35z" transform="translate(-183 -2986) translate(183 2986) translate(0 7.16)"/>
                    <path fill="#B5C8E7" d="M83.08 6.489c-.225 3.238-3.031 5.68-6.269 5.456-3.238-.224-5.68-3.03-5.457-6.268.224-3.238 3.03-5.68 6.269-5.456 3.237.223 5.68 3.03 5.456 6.268" transform="translate(-183 -2986) translate(183 2986) translate(0 7.16)"/>
                    <path fill="#FFDA01" d="M38.508 54.199c-.13 1.891-1.77 3.317-3.66 3.186-1.891-.13-3.318-1.77-3.187-3.66.13-1.89 1.77-3.317 3.66-3.187 1.89.132 3.318 1.77 3.187 3.66" transform="translate(-183 -2986) translate(183 2986) translate(0 7.16)"/>
                </g>
                <g>
                    <path fill="#AD5039" d="M4.55 42.741c-.072 0-.147-.017-.216-.054-.224-.12-.31-.399-.19-.624 3.619-6.793 7.836-13.327 12.535-19.42.156-.203.446-.24.648-.084.201.155.239.445.083.647-4.668 6.053-8.857 12.543-12.452 19.29-.083.157-.242.245-.407.245M5.42 63.808c-.194 0-.375-.124-.438-.319-.568-1.75-1.55-3.381-2.5-4.958-.46-.764-.936-1.552-1.365-2.353-.34-.635-.675-1.326-.825-2.08-.05-.25.112-.493.362-.543.25-.05.492.113.542.363.127.635.428 1.252.735 1.825.417.78.886 1.559 1.34 2.311.977 1.622 1.987 3.3 2.588 5.15.079.243-.053.502-.296.581-.047.016-.095.023-.142.023M7.205 41.305c-.09 0-.18-.026-.26-.08-.21-.143-.265-.43-.12-.64 2.438-3.586 5.003-7.157 7.623-10.613.153-.203.443-.244.646-.09.203.155.243.444.089.647-2.61 3.444-5.166 7.001-7.596 10.575-.09.13-.235.201-.382.201" transform="translate(-183 -2986) translate(183 2986) translate(21.219 .24)"/>
                    <path fill="#F09D7A" d="M97.319 9.087s-1.815 1.926 2.177 5.823c3.992 3.896 13.705 8.169 18.888 20.103 5.183 11.935 6.057-.03 5.958-.291-.1-.262-8.408-19.693-8.408-19.693l-8.837-7-9.778 1.058z" transform="translate(-183 -2986) translate(183 2986) translate(21.219 .24)"/>
                    <path fill="#F09D7A" d="M142.82 69.552c.834 1.025 3.903 3.799 7.432 6.917-1.286 2.719-2.692 5.38-4.22 7.972-4.23 7.17-9.37 13.801-15.283 19.652-4.343-4.007-9.21-8.01-11.774-13.249-2.572-5.253-4.12-11.317-4.294-17.016-.255-8.305 1.127-16.837 4.493-24.447.697-1.576 1.479-3.112 2.35-4.599.654-1.119 1.36-2.142 1.773-3.375.66-1.95-3.278-12.762-3.28-12.771-1.894-2.824-2.402-5.992-5.064-8.23-6.277-5.277-10.265-6.61-17.635-11.319C89.95 4.38 90.141-.157 91.554.247c4.4 1.256 8.735 2.857 13.049 4.375 5.854 2.06 11.9 4.023 16.89 7.845 4.112 3.15 8.746 7.352 11.291 11.934 3.192 5.743 5.75 19.11 7.313 28.091 1.073 6.17.5 14.33 2.722 17.06" transform="translate(-183 -2986) translate(183 2986) translate(21.219 .24)"/>
                    <path fill="#F09D7A" d="M130.464 57.355c.275 2.696.044 5.414-.613 8.02-1.357 5.387-4.632 10.427-9.276 13.443-.716.465-1.488.854-2.284 1.12-.466-1.179-.88-2.367-1.175-3.53-1.151-4.534-1.648-8.95-1.465-13.617.144-3.698.717-7.348 1.309-10.981.745-4.58 1-14.881 2.045-22.493.783-5.698 2.387-9.682 2.91-9.76 1.67-.25 4.136 3.663 5.62 10.544 1.485 6.88 2.19 24.175 2.929 27.254" transform="translate(-183 -2986) translate(183 2986) translate(21.219 .24)"/>
                    <path fill="#AD5039" d="M118.882 29.788c.412-2.72.47-5.497 1.282-8.147.51-1.663 2.054-4.143 3.906-2.265 1.568 1.59 1.976 4.269 2.52 6.345 1.194 4.563 1.936 9.195 2.732 13.839.467 2.728.952 5.473 1.615 8.162.306 1.24.642 2.435 1.27 3.552.525.934.92 1.836 1.115 2.895.126.682-.948.78-1.073.101-.33-1.788-1.516-3.263-2.015-5.015-.56-1.968-.94-3.99-1.332-5.997-.814-4.17-1.38-8.384-2.23-12.546-.564-2.765-1.181-5.662-2.161-8.323-.27-.733-.763-2.341-1.648-2.578-.924-.248-1.426 1.369-1.627 1.988-.857 2.637-.88 5.449-1.291 8.168-.104.686-1.167.508-1.063-.179" transform="translate(-183 -2986) translate(183 2986) translate(21.219 .24)"/>
                    <path fill="#964747" d="M113.233 51.11l-.016-.014c.206.146.077.067.016.014" transform="translate(-183 -2986) translate(183 2986) translate(21.219 .24)"/>
                    <path fill="#D45648" d="M157.975 72.606c1.398 1.157 2.922 2.395 2.478 4.357-.428 1.89-2.601 3.199-4.152 4.317-4.171 3.005-5.692 8.004-7.506 12.563-2.121 5.33-5.476 9.563-9.686 13.431-.82.754-1.706 1.504-2.785 1.781-1.761.452-2.66-.795-3.83-1.821-3.11-2.726-6.047-5.66-8.66-8.867-4.22-5.182-7.477-11.133-9.43-17.519-.93-3.046-1.559-6.164-1.958-9.334-.098-.772-.18-1.546-.246-2.321-.284-3.313 2.269-3.648 4.695-4.951 6.329-3.398 12.837-6.49 19.283-9.658 2.506-1.23 5.1-2.843 7.974-2.855 1.558-.004 2.567 3.205 3.076 4.353 1.62 3.657 3.101 7.47 5.363 10.794 1.268 1.865 2.868 3.46 4.517 4.985.27.248.565.495.867.745" transform="translate(-183 -2986) translate(183 2986) translate(21.219 .24)"/>
                    <path fill="#A3322E" d="M142.675 53.45c1.66 1.441 2.196 3.323 2.708 5.373.59 2.36 1.656 4.74 2.756 6.904 1.076 2.12 2.414 4.13 4.02 5.887 1.388 1.521 3.515 2.793 4.035 4.91.162.664-.843 1.055-1.008.381-.495-2.018-2.695-3.308-4.023-4.791-1.447-1.618-2.664-3.432-3.687-5.343-1.058-1.977-1.95-4.094-2.686-6.212-.775-2.229-.887-4.616-2.792-6.27-.524-.455.153-1.294.677-.84M136.35 57.063c1.594 1.486 2.465 3.454 3.219 5.462.903 2.408 1.873 4.673 3.134 6.923 1.3 2.32 2.727 4.568 4.283 6.724 1.405 1.945 3.196 3.8 3.847 6.165.182.663-.824 1.052-1.008.383-.64-2.327-2.453-4.16-3.83-6.078-1.51-2.105-2.895-4.298-4.162-6.558-1.094-1.952-2.077-3.917-2.848-6.02-.8-2.186-1.563-4.532-3.312-6.162-.505-.471.17-1.312.678-.839M129.005 60.491c2.37 1.309 3.599 4.27 4.65 6.634 1.388 3.123 2.41 6.393 3.796 9.521 1.074 2.426 2.65 4.437 4.22 6.548 1.603 2.153 3.143 4.347 4.64 6.573.387.575-.482 1.213-.87.637-1.452-2.16-2.944-4.29-4.495-6.379-1.323-1.78-2.758-3.506-3.785-5.48-1.519-2.92-2.534-6.057-3.722-9.115-.577-1.487-1.242-2.917-1.985-4.328-.727-1.378-1.476-2.846-2.891-3.628-.605-.333-.166-1.319.442-.983M122.307 64.657c-.87 1.025.082 3.254.465 4.3.537 1.467 1.166 2.902 1.833 4.314 1.378 2.913 2.748 5.835 4.262 8.68 1.576 2.962 3.305 5.846 5.23 8.594 1.879 2.683 3.881 5.38 6.172 7.727.479.492-.194 1.335-.678.839-4.937-5.061-8.852-11.258-12.112-17.498-1.661-3.18-3.254-6.436-4.684-9.726-.649-1.491-1.31-3.027-1.667-4.618-.235-1.049-.411-2.405.34-3.29.45-.529 1.29.149.84.678M115.806 67.916c-1.09 1.462-.605 3.29-.233 4.942.413 1.828 1.1 3.605 1.78 5.349 1.303 3.337 2.724 6.65 4.517 9.755 3.532 6.12 7.985 12.116 13.34 16.747.525.454-.151 1.293-.677.839-2.94-2.544-5.425-5.417-7.79-8.495-2.409-3.134-4.656-6.397-6.537-9.877-1.815-3.358-3.305-6.941-4.59-10.533-.648-1.814-1.182-3.627-1.448-5.538-.205-1.47-.112-2.643.8-3.866.415-.558 1.252.122.838.677" transform="translate(-183 -2986) translate(183 2986) translate(21.219 .24)"/>
                    <path fill="#AD5039" d="M111.723 20.198c-.108 0-.217-.037-.304-.114-5.752-5.034-11.97-9.618-18.483-13.623-.216-.134-.284-.418-.15-.635.132-.217.416-.286.634-.15 6.555 4.032 12.816 8.646 18.606 13.713.192.168.212.46.044.651-.091.105-.219.158-.347.158M118.378 40.205c-.245 0-.448-.193-.46-.44-.094-1.943.256-3.87.595-5.733.157-.865.32-1.759.433-2.636.084-.644.146-1.328.04-1.967-.042-.251.128-.49.379-.531.25-.044.488.128.53.379.127.758.059 1.523-.034 2.238-.117.9-.282 1.806-.44 2.683-.33 1.811-.67 3.685-.582 5.523.012.254-.184.47-.438.483h-.023M108.732 19.796c-.092 0-.184-.027-.264-.083-3.541-2.48-7.192-4.9-10.853-7.194-.216-.136-.281-.42-.145-.636.134-.216.419-.282.635-.147 3.674 2.303 7.338 4.732 10.891 7.221.21.146.26.434.114.642-.09.129-.233.197-.378.197" transform="translate(-183 -2986) translate(183 2986) translate(21.219 .24)"/>
                </g>
            </g>
        </g>
    </g>
</svg>
