<svg xmlns="http://www.w3.org/2000/svg" width="16" height="16" viewBox="0 0 16 16">
    <g fill="none" fill-rule="evenodd">
        <g fill="#1B1B1B">
            <g>
                <g>
                    <path d="M12.507 5.709c.146 3.242-2.292 6.858-6.61 6.858-1.312 0-2.535-.382-3.564-1.036 1.234.144 2.465-.195 3.442-.955-1.017-.019-1.876-.685-2.171-1.6.364.068.722.048 1.05-.04-1.12-.223-1.89-1.222-1.866-2.29.314.173.673.276 1.054.288-1.035-.686-1.329-2.042-.72-3.078 1.147 1.395 2.86 2.313 4.793 2.409-.339-1.443.764-2.832 2.264-2.832.67 0 1.274.28 1.698.729.53-.103 1.027-.296 1.476-.56-.173.539-.542.99-1.022 1.276.47-.056.918-.18 1.336-.363-.312.462-.706.868-1.16 1.194zM3.333 16h9.334C14.507 16 16 14.508 16 12.667V3.334c0-1.84-1.492-3.333-3.333-3.333H3.333C1.493 0 0 1.493 0 3.334v9.333c0 1.841 1.492 3.334 3.333 3.334z" transform="translate(-659 -628) translate(577 628) translate(82)"/>
                </g>
            </g>
        </g>
    </g>
</svg>
