<svg xmlns="http://www.w3.org/2000/svg" width="215" height="188" viewBox="0 0 215 188">
    <g fill="none" fill-rule="evenodd">
        <g fill="#ffda01">
            <g>
                <path d="M9.334 178.648h196.331V9.351H9.335v169.297zM215 8.386V0h-8.371c0 1.891-1.53 3.425-3.418 3.425-1.888 0-3.418-1.534-3.418-3.425h-6.837c0 1.891-1.53 3.425-3.418 3.425-1.888 0-3.418-1.534-3.418-3.425h-6.837c0 1.891-1.53 3.425-3.418 3.425-1.888 0-3.418-1.534-3.418-3.425h-6.837c0 1.891-1.53 3.425-3.418 3.425-1.888 0-3.418-1.534-3.418-3.425h-6.837c0 1.891-1.53 3.425-3.418 3.425-1.888 0-3.418-1.534-3.418-3.425h-6.837c0 1.891-1.53 3.425-3.418 3.425-1.888 0-3.418-1.534-3.418-3.425h-6.837c0 1.891-1.53 3.425-3.418 3.425-1.888 0-3.418-1.534-3.418-3.425h-6.837c0 1.891-1.53 3.425-3.418 3.425-1.888 0-3.418-1.534-3.418-3.425h-6.837c0 1.891-1.53 3.425-3.418 3.425C91.94 3.425 90.41 1.89 90.41 0h-6.837c0 1.891-1.53 3.425-3.418 3.425-1.888 0-3.418-1.534-3.418-3.425h-6.837c0 1.891-1.53 3.425-3.418 3.425-1.888 0-3.418-1.534-3.418-3.425h-6.837c0 1.891-1.53 3.425-3.418 3.425C50.92 3.425 49.39 1.89 49.39 0h-6.837c0 1.891-1.53 3.425-3.418 3.425-1.888 0-3.418-1.534-3.418-3.425H28.88c0 1.891-1.53 3.425-3.418 3.425-1.888 0-3.418-1.534-3.418-3.425h-6.837c0 1.891-1.53 3.425-3.418 3.425C9.902 3.425 8.371 1.89 8.371 0H0v8.386c1.888 0 3.418 1.534 3.418 3.425 0 1.89-1.53 3.424-3.418 3.424v6.85c1.888 0 3.418 1.533 3.418 3.424S1.888 28.933 0 28.933v6.85c1.888 0 3.418 1.533 3.418 3.424 0 1.892-1.53 3.425-3.418 3.425v6.849c1.888 0 3.418 1.533 3.418 3.424 0 1.892-1.53 3.425-3.418 3.425v6.85c1.888 0 3.418 1.532 3.418 3.424 0 1.89-1.53 3.424-3.418 3.424v6.85c1.888 0 3.418 1.533 3.418 3.424S1.888 83.726 0 83.726v6.85c1.888 0 3.418 1.533 3.418 3.424 0 1.892-1.53 3.425-3.418 3.425v6.849c1.888 0 3.418 1.533 3.418 3.424 0 1.892-1.53 3.425-3.418 3.425v6.849c1.888 0 3.418 1.533 3.418 3.424 0 1.892-1.53 3.425-3.418 3.425v6.849c1.888 0 3.418 1.533 3.418 3.425 0 1.891-1.53 3.424-3.418 3.424v6.85c1.888 0 3.418 1.532 3.418 3.424 0 1.891-1.53 3.424-3.418 3.424v6.85c1.888 0 3.418 1.533 3.418 3.424 0 1.892-1.53 3.425-3.418 3.425v6.849c1.888 0 3.418 1.533 3.418 3.424 0 1.892-1.53 3.425-3.418 3.425V188h8.371c0-1.891 1.53-3.425 3.418-3.425 1.888 0 3.418 1.534 3.418 3.425h6.837c0-1.891 1.53-3.425 3.418-3.425 1.888 0 3.418 1.534 3.418 3.425h6.837c0-1.891 1.53-3.425 3.418-3.425 1.888 0 3.418 1.534 3.418 3.425h6.837c0-1.891 1.53-3.425 3.418-3.425 1.888 0 3.418 1.534 3.418 3.425h6.837c0-1.891 1.53-3.425 3.418-3.425 1.888 0 3.418 1.534 3.418 3.425h6.837c0-1.891 1.53-3.425 3.418-3.425 1.888 0 3.418 1.534 3.418 3.425h6.837c0-1.891 1.53-3.425 3.418-3.425 1.888 0 3.418 1.534 3.418 3.425h6.837c0-1.891 1.53-3.425 3.418-3.425 1.888 0 3.418 1.534 3.418 3.425h6.837c0-1.891 1.53-3.425 3.418-3.425 1.888 0 3.418 1.534 3.418 3.425h6.837c0-1.891 1.53-3.425 3.418-3.425 1.888 0 3.418 1.534 3.418 3.425h6.837c0-1.891 1.53-3.425 3.418-3.425 1.888 0 3.418 1.534 3.418 3.425h6.837c0-1.891 1.53-3.425 3.418-3.425 1.888 0 3.418 1.534 3.418 3.425h6.837c0-1.891 1.53-3.425 3.418-3.425 1.888 0 3.418 1.534 3.418 3.425h6.837c0-1.891 1.53-3.425 3.418-3.425 1.888 0 3.418 1.534 3.418 3.425h6.837c0-1.891 1.53-3.425 3.418-3.425 1.888 0 3.418 1.534 3.418 3.425H215v-8.386c-1.888 0-3.418-1.533-3.418-3.425 0-1.89 1.53-3.424 3.418-3.424v-6.85c-1.888 0-3.418-1.532-3.418-3.424 0-1.891 1.53-3.424 3.418-3.424v-6.85c-1.888 0-3.418-1.533-3.418-3.424 0-1.892 1.53-3.425 3.418-3.425v-6.849c-1.888 0-3.418-1.533-3.418-3.424 0-1.892 1.53-3.425 3.418-3.425v-6.85c-1.888 0-3.418-1.532-3.418-3.424 0-1.89 1.53-3.424 3.418-3.424v-6.85c-1.888 0-3.418-1.532-3.418-3.424 0-1.891 1.53-3.424 3.418-3.424v-6.85c-1.888 0-3.418-1.532-3.418-3.424 0-1.891 1.53-3.425 3.418-3.425v-6.849c-1.888 0-3.418-1.533-3.418-3.424s1.53-3.425 3.418-3.425v-6.849c-1.888 0-3.418-1.533-3.418-3.424 0-1.892 1.53-3.425 3.418-3.425V56.33c-1.888 0-3.418-1.533-3.418-3.425 0-1.891 1.53-3.424 3.418-3.424v-6.85c-1.888 0-3.418-1.532-3.418-3.424 0-1.891 1.53-3.424 3.418-3.424v-6.85c-1.888 0-3.418-1.533-3.418-3.424s1.53-3.425 3.418-3.425v-6.849c-1.888 0-3.418-1.533-3.418-3.424s1.53-3.425 3.418-3.425z" transform="translate(-1055 -153) translate(1055 153)"/>
            </g>
        </g>
    </g>
</svg>
